B612-Bold.ufo
<glyph name="exclam" format="1">
  <advance width="700"/>
  <unicode hex="0021"/>
  <outline>
    <contour>
      <point x="400" y="1500" type="line"/>
      <point x="400" y="444" type="line"/>
      <point x="100" y="409" type="line"/>
      <point x="100" y="1500" type="line"/>
    </contour>
    <contour>
      <point x="103" y="137" type="qcurve"/>
      <point x="103" y="167"/>
      <point x="126" y="221"/>
      <point x="166" y="262"/>
      <point x="220" y="285"/>
      <point x="250" y="285" type="qcurve"/>
      <point x="280" y="285"/>
      <point x="335" y="262"/>
      <point x="375" y="221"/>
      <point x="398" y="167"/>
      <point x="398" y="137" type="qcurve"/>
      <point x="398" y="106"/>
      <point x="375" y="51"/>
      <point x="336" y="10"/>
      <point x="282" y="-14"/>
      <point x="252" y="-14" type="qcurve"/>
      <point x="221" y="-14"/>
      <point x="166" y="10"/>
      <point x="126" y="51"/>
      <point x="103" y="106"/>
    </contour>
  </outline>
</glyph>
<glyph name="numbersign" format="1">
  <advance width="1700"/>
  <unicode hex="0023"/>
  <outline>
    <contour>
      <point x="1352" y="902" type="line"/>
      <point x="1347" y="861"/>
      <point x="1338" y="789"/>
      <point x="1328" y="717"/>
      <point x="1319" y="641"/>
      <point x="1314" y="598" type="qcurve"/>
      <point x="1619" y="598" type="line"/>
      <point x="1592" y="380" type="line"/>
      <point x="1289" y="380" type="line"/>
      <point x="1241" y="6" type="line"/>
      <point x="888" y="-27" type="line"/>
      <point x="940" y="380" type="line"/>
      <point x="662" y="380" type="line"/>
      <point x="617" y="6" type="line"/>
      <point x="265" y="-27" type="line"/>
      <point x="315" y="380" type="line"/>
      <point x="40" y="380" type="line"/>
      <point x="40" y="598" type="line"/>
      <point x="340" y="598" type="line"/>
      <point x="378" y="902" type="line"/>
      <point x="36" y="902" type="line"/>
      <point x="63" y="1120" type="line"/>
      <point x="405" y="1120" type="line"/>
      <point x="422" y="1258" type="line"/>
      <point x="422" y="1494" type="line"/>
      <point x="803" y="1526" type="line"/>
      <point x="752" y="1120" type="line"/>
      <point x="1031" y="1120" type="line"/>
      <point x="1076" y="1494" type="line"/>
      <point x="1428" y="1527" type="line"/>
      <point x="1379" y="1120" type="line"/>
      <point x="1615" y="1120" type="line"/>
      <point x="1615" y="902" type="line"/>
    </contour>
    <contour>
      <point x="1004" y="902" type="line"/>
      <point x="727" y="902" type="line"/>
      <point x="722" y="861"/>
      <point x="713" y="789"/>
      <point x="703" y="717"/>
      <point x="694" y="641"/>
      <point x="689" y="598" type="qcurve"/>
      <point x="966" y="598" type="line"/>
    </contour>
  </outline>
</glyph>
<glyph name="quotesingle" format="1">
  <advance width="400"/>
  <unicode hex="0027"/>
  <outline>
    <contour>
      <point x="100" y="1500" type="line"/>
      <point x="370" y="1500" type="line"/>
      <point x="370" y="1367" type="line"/>
      <point x="370" y="1331"/>
      <point x="356" y="1266"/>
      <point x="323" y="1197"/>
      <point x="269" y="1118"/>
      <point x="229" y="1068" type="qcurve"/>
      <point x="90" y="1068" type="line"/>
      <point x="92" y="1148"/>
      <point x="100" y="1301"/>
      <point x="100" y="1367" type="qcurve"/>
    </contour>
  </outline>
</glyph>
<glyph name="parenleft" format="1">
  <advance width="900"/>
  <unicode hex="0028"/>
  <outline>
    <contour>
      <point x="144" y="1158" type="line"/>
      <point x="144" y="1251"/>
      <point x="164" y="1412"/>
      <point x="235" y="1532"/>
      <point x="370" y="1600"/>
      <point x="484" y="1600" type="qcurve"/>
      <point x="509" y="1600"/>
      <point x="566" y="1593"/>
      <point x="623" y="1579"/>
      <point x="675" y="1558"/>
      <point x="696" y="1545" type="qcurve"/>
      <point x="606" y="1431" type="line"/>
      <point x="588" y="1431"/>
      <point x="539" y="1421"/>
      <point x="495" y="1380"/>
      <point x="465" y="1298"/>
      <point x="465" y="1227" type="qcurve"/>
      <point x="465" y="-46" type="line"/>
      <point x="465" y="-119"/>
      <point x="496" y="-200"/>
      <point x="538" y="-238"/>
      <point x="583" y="-245"/>
      <point x="598" y="-245" type="qcurve"/>
      <point x="696" y="-365" type="line"/>
      <point x="675" y="-378"/>
      <point x="623" y="-399"/>
      <point x="566" y="-413"/>
      <point x="509" y="-420"/>
      <point x="484" y="-420" type="qcurve"/>
      <point x="370" y="-420"/>
      <point x="235" y="-347"/>
      <point x="164" y="-221"/>
      <point x="144" y="-55"/>
      <point x="144" y="38" type="qcurve"/>
    </contour>
  </outline>
</glyph>
<glyph name="parenright" format="1">
  <advance width="900"/>
  <unicode hex="0029"/>
  <outline>
    <contour>
      <point x="730" y="38" type="line"/>
      <point x="730" y="-55"/>
      <point x="710" y="-221"/>
      <point x="639" y="-347"/>
      <point x="504" y="-420"/>
      <point x="390" y="-420" type="qcurve"/>
      <point x="365" y="-420"/>
      <point x="308" y="-413"/>
      <point x="251" y="-399"/>
      <point x="199" y="-378"/>
      <point x="178" y="-365" type="qcurve"/>
      <point x="276" y="-245" type="line"/>
      <point x="291" y="-245"/>
      <point x="336" y="-238"/>
      <point x="378" y="-200"/>
      <point x="409" y="-119"/>
      <point x="409" y="-46" type="qcurve"/>
      <point x="409" y="1227" type="line"/>
      <point x="409" y="1298"/>
      <point x="379" y="1380"/>
      <point x="335" y="1421"/>
      <point x="286" y="1431"/>
      <point x="268" y="1431" type="qcurve"/>
      <point x="178" y="1545" type="line"/>
      <point x="199" y="1558"/>
      <point x="251" y="1579"/>
      <point x="308" y="1593"/>
      <point x="365" y="1600"/>
      <point x="390" y="1600" type="qcurve"/>
      <point x="504" y="1600"/>
      <point x="639" y="1532"/>
      <point x="710" y="1412"/>
      <point x="730" y="1251"/>
      <point x="730" y="1158" type="qcurve"/>
    </contour>
  </outline>
</glyph>
<glyph name="plus" format="1">
  <advance width="1200"/>
  <unicode hex="002B"/>
  <outline>
    <contour>
      <point x="80" y="700" type="line"/>
      <point x="440" y="700" type="line"/>
      <point x="440" y="1130" type="line"/>
      <point x="660" y="1130" type="line"/>
      <point x="660" y="700" type="line"/>
      <point x="1020" y="700" type="line"/>
      <point x="1020" y="500" type="line"/>
      <point x="660" y="500" type="line"/>
      <point x="660" y="100" type="line"/>
      <point x="440" y="100" type="line"/>
      <point x="440" y="500" type="line"/>
      <point x="80" y="500" type="line"/>
    </contour>
  </outline>
</glyph>
<glyph name="period" format="1">
  <advance width="600"/>
  <unicode hex="002E"/>
  <outline>
    <contour>
      <point x="66" y="171" type="qcurve"/>
      <point x="66" y="209"/>
      <point x="95" y="276"/>
      <point x="145" y="327"/>
      <point x="212" y="356"/>
      <point x="250" y="356" type="qcurve"/>
      <point x="288" y="356"/>
      <point x="356" y="327"/>
      <point x="406" y="276"/>
      <point x="435" y="209"/>
      <point x="435" y="171" type="qcurve"/>
      <point x="435" y="132"/>
      <point x="406" y="64"/>
      <point x="357" y="13"/>
      <point x="290" y="-17"/>
      <point x="252" y="-17" type="qcurve"/>
      <point x="214" y="-17"/>
      <point x="145" y="13"/>
      <point x="95" y="64"/>
      <point x="66" y="132"/>
    </contour>
  </outline>
</glyph>
<glyph name="zero" format="1">
  <advance width="1300"/>
  <unicode hex="0030"/>
  <outline>
    <contour>
      <point x="598" y="-16" type="qcurve"/>
      <point x="505" y="-16"/>
      <point x="349" y="49"/>
      <point x="225" y="161"/>
      <point x="131" y="311"/>
      <point x="69" y="481"/>
      <point x="38" y="663"/>
      <point x="38" y="750" type="qcurve"/>
      <point x="38" y="840"/>
      <point x="64" y="1023"/>
      <point x="121" y="1194"/>
      <point x="210" y="1342"/>
      <point x="334" y="1453"/>
      <point x="496" y="1516"/>
      <point x="598" y="1516" type="qcurve"/>
      <point x="691" y="1516"/>
      <point x="847" y="1451"/>
      <point x="971" y="1339"/>
      <point x="1065" y="1189"/>
      <point x="1127" y="1019"/>
      <point x="1158" y="837"/>
      <point x="1158" y="750" type="qcurve"/>
      <point x="1158" y="660"/>
      <point x="1131" y="477"/>
      <point x="1075" y="306"/>
      <point x="986" y="158"/>
      <point x="861" y="47"/>
      <point x="699" y="-16"/>
    </contour>
    <contour>
      <point x="386" y="791" type="qcurve"/>
      <point x="386" y="740"/>
      <point x="392" y="616"/>
      <point x="409" y="491"/>
      <point x="439" y="373"/>
      <point x="488" y="281"/>
      <point x="557" y="226"/>
      <point x="605" y="226" type="qcurve"/>
      <point x="647" y="226"/>
      <point x="710" y="267"/>
      <point x="756" y="338"/>
      <point x="786" y="433"/>
      <point x="803" y="541"/>
      <point x="810" y="654"/>
      <point x="810" y="709" type="qcurve"/>
      <point x="810" y="760"/>
      <point x="804" y="884"/>
      <point x="787" y="1009"/>
      <point x="757" y="1127"/>
      <point x="708" y="1218"/>
      <point x="638" y="1273"/>
      <point x="590" y="1273" type="qcurve"/>
      <point x="548" y="1273"/>
      <point x="485" y="1232"/>
      <point x="439" y="1161"/>
      <point x="410" y="1066"/>
      <point x="393" y="959"/>
      <point x="386" y="845"/>
    </contour>
  </outline>
</glyph>
<glyph name="one" format="1">
  <advance width="1300"/>
  <unicode hex="0031"/>
  <outline>
    <contour>
      <point x="530" y="880" type="line"/>
      <point x="604" y="1243" type="line"/>
      <point x="377" y="972" type="line"/>
      <point x="293" y="898" type="line"/>
      <point x="138" y="1083" type="line"/>
      <point x="618" y="1525" type="line"/>
      <point x="861" y="1492" type="line"/>
      <point x="861" y="200" type="line"/>
      <point x="1104" y="200" type="line"/>
      <point x="1104" y="0" type="line"/>
      <point x="287" y="0" type="line"/>
      <point x="287" y="200" type="line"/>
      <point x="530" y="200" type="line"/>
    </contour>
  </outline>
</glyph>
<glyph name="three" format="1">
  <advance width="1300"/>
  <unicode hex="0033"/>
  <outline>
    <contour>
      <point x="263" y="938" type="line"/>
      <point x="292" y="959"/>
      <point x="374" y="1019"/>
      <point x="467" y="1091"/>
      <point x="564" y="1170"/>
      <point x="653" y="1253"/>
      <point x="727" y="1336"/>
      <point x="751" y="1374" type="qcurve"/>
      <point x="491" y="1300" type="line"/>
      <point x="160" y="1300" type="line"/>
      <point x="181" y="1500" type="line"/>
      <point x="1023" y="1500" type="line"/>
      <point x="1023" y="1327" type="line"/>
      <point x="992" y="1248"/>
      <point x="876" y="1116"/>
      <point x="805" y="1052" type="qcurve"/>
      <point x="649" y="969" type="line"/>
      <point x="754" y="969"/>
      <point x="927" y="914"/>
      <point x="1049" y="812"/>
      <point x="1116" y="665"/>
      <point x="1116" y="573" type="qcurve"/>
      <point x="1116" y="474"/>
      <point x="1034" y="312"/>
      <point x="894" y="185"/>
      <point x="705" y="91"/>
      <point x="490" y="30"/>
      <point x="261" y="0"/>
      <point x="150" y="0" type="qcurve"/>
      <point x="150" y="200" type="line"/>
      <point x="268" y="204"/>
      <point x="492" y="258"/>
      <point x="668" y="351"/>
      <point x="775" y="482"/>
      <point x="775" y="563" type="qcurve"/>
      <point x="775" y="621"/>
      <point x="726" y="700"/>
      <point x="642" y="749"/>
      <point x="531" y="770"/>
      <point x="469" y="770" type="qcurve"/>
      <point x="454" y="770"/>
      <point x="396" y="767"/>
      <point x="334" y="764"/>
      <point x="277" y="761"/>
      <point x="263" y="760" type="qcurve"/>
    </contour>
  </outline>
</glyph>
<glyph name="five" format="1">
  <advance width="1300"/>
  <unicode hex="0035"/>
  <outline>
    <contour>
      <point x="491" y="1046" type="line"/>
      <point x="515" y="1052"/>
      <point x="572" y="1059"/>
      <point x="607" y="1059" type="qcurve"/>
      <point x="723" y="1059"/>
      <point x="906" y="991"/>
      <point x="1033" y="873"/>
      <point x="1100" y="716"/>
      <point x="1100" y="626" type="qcurve"/>
      <point x="1100" y="523"/>
      <point x="1018" y="351"/>
      <point x="877" y="212"/>
      <point x="689" y="107"/>
      <point x="476" y="36"/>
      <point x="250" y="0"/>
      <point x="142" y="0" type="qcurve"/>
      <point x="142" y="226" type="line"/>
      <point x="213" y="228"/>
      <point x="362" y="256"/>
      <point x="502" y="304"/>
      <point x="626" y="372"/>
      <point x="719" y="455"/>
      <point x="773" y="552"/>
      <point x="773" y="606" type="qcurve"/>
      <point x="773" y="647"/>
      <point x="745" y="725"/>
      <point x="694" y="785"/>
      <point x="624" y="822"/>
      <point x="581" y="822" type="qcurve"/>
      <point x="543" y="822"/>
      <point x="477" y="810"/>
      <point x="423" y="791"/>
      <point x="382" y="769"/>
      <point x="367" y="759" type="qcurve"/>
      <point x="142" y="759" type="line"/>
      <point x="142" y="1500" type="line"/>
      <point x="1008" y="1500" type="line"/>
      <point x="1008" y="1300" type="line"/>
      <point x="491" y="1300" type="line"/>
    </contour>
  </outline>
</glyph>
<glyph name="nine" format="1">
  <advance width="1300"/>
  <unicode hex="0039"/>
  <outline>
    <contour>
      <point x="288" y="199" type="line"/>
      <point x="357" y="201"/>
      <point x="491" y="244"/>
      <point x="611" y="314"/>
      <point x="713" y="408"/>
      <point x="788" y="518"/>
      <point x="832" y="639"/>
      <point x="833" y="700" type="qcurve"/>
      <point x="655" y="548" type="line"/>
      <point x="639" y="546"/>
      <point x="606" y="544"/>
      <point x="589" y="544" type="qcurve"/>
      <point x="480" y="544"/>
      <point x="290" y="611"/>
      <point x="150" y="735"/>
      <point x="70" y="910"/>
      <point x="70" y="1017" type="qcurve"/>
      <point x="70" y="1128"/>
      <point x="146" y="1312"/>
      <point x="287" y="1444"/>
      <point x="487" y="1517"/>
      <point x="611" y="1517" type="qcurve"/>
      <point x="721" y="1517"/>
      <point x="889" y="1455"/>
      <point x="1012" y="1352"/>
      <point x="1095" y="1218"/>
      <point x="1144" y="1075"/>
      <point x="1165" y="933"/>
      <point x="1165" y="873" type="qcurve"/>
      <point x="1165" y="696"/>
      <point x="1053" y="385"/>
      <point x="839" y="148"/>
      <point x="529" y="-1"/>
      <point x="331" y="-17" type="qcurve"/>
    </contour>
    <contour>
      <point x="598" y="761" type="qcurve"/>
      <point x="632" y="761"/>
      <point x="704" y="793"/>
      <point x="768" y="845"/>
      <point x="821" y="911"/>
      <point x="837" y="945" type="qcurve"/>
      <point x="834" y="1008"/>
      <point x="802" y="1135"/>
      <point x="745" y="1237"/>
      <point x="666" y="1300"/>
      <point x="618" y="1300" type="qcurve"/>
      <point x="571" y="1300"/>
      <point x="492" y="1257"/>
      <point x="433" y="1185"/>
      <point x="400" y="1088"/>
      <point x="400" y="1034" type="qcurve"/>
      <point x="400" y="980"/>
      <point x="427" y="882"/>
      <point x="478" y="806"/>
      <point x="551" y="761"/>
    </contour>
  </outline>
</glyph>
<glyph name="less" format="1">
  <advance width="1300"/>
  <unicode hex="003C"/>
  <outline>
    <contour>
      <point x="1137" y="1277" type="line"/>
      <point x="1137" y="1009" type="line"/>
      <point x="470" y="654" type="line"/>
      <point x="1137" y="302" type="line"/>
      <point x="1137" y="34" type="line"/>
      <point x="130" y="545" type="line"/>
      <point x="130" y="770" type="line"/>
    </contour>
  </outline>
</glyph>
<glyph name="question" format="1">
  <advance width="1100"/>
  <unicode hex="003F"/>
  <outline>
    <contour>
      <point x="1038" y="1124" type="qcurve"/>
      <point x="1038" y="1064"/>
      <point x="998" y="965"/>
      <point x="934" y="879"/>
      <point x="850" y="803"/>
      <point x="807" y="765" type="qcurve"/>
      <point x="778" y="740"/>
      <point x="719" y="677"/>
      <point x="672" y="597"/>
      <point x="643" y="497"/>
      <point x="643" y="434" type="qcurve"/>
      <point x="332" y="399" type="line"/>
      <point x="333" y="486"/>
      <point x="358" y="638"/>
      <point x="416" y="772"/>
      <point x="510" y="889"/>
      <point x="581" y="942" type="qcurve"/>
      <point x="603" y="961"/>
      <point x="645" y="1001"/>
      <point x="677" y="1046"/>
      <point x="697" y="1099"/>
      <point x="697" y="1132" type="qcurve"/>
      <point x="697" y="1172"/>
      <point x="668" y="1229"/>
      <point x="619" y="1266"/>
      <point x="555" y="1283"/>
      <point x="521" y="1283" type="qcurve"/>
      <point x="495" y="1283"/>
      <point x="420" y="1266"/>
      <point x="335" y="1227"/>
      <point x="250" y="1163"/>
      <point x="216" y="1117" type="qcurve"/>
      <point x="34" y="1268" type="line"/>
      <point x="91" y="1344"/>
      <point x="220" y="1441"/>
      <point x="354" y="1496"/>
      <point x="486" y="1517"/>
      <point x="545" y="1517" type="qcurve"/>
      <point x="640" y="1517"/>
      <point x="818" y="1470"/>
      <point x="955" y="1373"/>
      <point x="1038" y="1225"/>
    </contour>
    <contour>
      <point x="352" y="137" type="qcurve"/>
      <point x="352" y="167"/>
      <point x="375" y="221"/>
      <point x="415" y="262"/>
      <point x="469" y="285"/>
      <point x="499" y="285" type="qcurve"/>
      <point x="529" y="285"/>
      <point x="584" y="262"/>
      <point x="624" y="221"/>
      <point x="647" y="167"/>
      <point x="647" y="137" type="qcurve"/>
      <point x="647" y="106"/>
      <point x="624" y="51"/>
      <point x="585" y="10"/>
      <point x="531" y="-14"/>
      <point x="501" y="-14" type="qcurve"/>
      <point x="470" y="-14"/>
      <point x="415" y="10"/>
      <point x="375" y="51"/>
      <point x="352" y="106"/>
    </contour>
  </outline>
</glyph>
<glyph name="at" format="1">
  <advance width="2000"/>
  <unicode hex="0040"/>
  <outline>
    <contour>
      <point x="1013" y="-12" type="line"/>
      <point x="1005" y="-14"/>
      <point x="983" y="-17"/>
      <point x="962" y="-17" type="qcurve"/>
      <point x="876" y="-17"/>
      <point x="725" y="46"/>
      <point x="613" y="158"/>
      <point x="547" y="310"/>
      <point x="547" y="400" type="qcurve"/>
      <point x="547" y="496"/>
      <point x="627" y="621"/>
      <point x="755" y="696"/>
      <point x="912" y="726"/>
      <point x="989" y="726" type="qcurve"/>
      <point x="1034" y="726"/>
      <point x="1105" y="720"/>
      <point x="1132" y="715" type="qcurve"/>
      <point x="1131" y="755"/>
      <point x="1121" y="822"/>
      <point x="1095" y="872"/>
      <point x="1051" y="900"/>
      <point x="1017" y="900" type="qcurve"/>
      <point x="975" y="900"/>
      <point x="904" y="893"/>
      <point x="841" y="880"/>
      <point x="780" y="861"/>
      <point x="749" y="850" type="qcurve"/>
      <point x="653" y="1031" type="line"/>
      <point x="699" y="1049"/>
      <point x="786" y="1081"/>
      <point x="876" y="1104"/>
      <point x="972" y="1117"/>
      <point x="1026" y="1117" type="qcurve"/>
      <point x="1156" y="1117"/>
      <point x="1308" y="1054"/>
      <point x="1387" y="939"/>
      <point x="1409" y="778"/>
      <point x="1409" y="681" type="qcurve"/>
      <point x="1409" y="205" type="line"/>
      <point x="1409" y="188"/>
      <point x="1430" y="159"/>
      <point x="1452" y="159" type="qcurve"/>
      <point x="1464" y="159"/>
      <point x="1483" y="204"/>
      <point x="1498" y="274"/>
      <point x="1509" y="360"/>
      <point x="1516" y="441"/>
      <point x="1520" y="508"/>
      <point x="1520" y="525" type="qcurve"/>
      <point x="1520" y="726"/>
      <point x="1454" y="1014"/>
      <point x="1318" y="1199"/>
      <point x="1112" y="1287"/>
      <point x="971" y="1287" type="qcurve"/>
      <point x="705" y="1287"/>
      <point x="442" y="940"/>
      <point x="442" y="605" type="qcurve"/>
      <point x="442" y="437"/>
      <point x="499" y="147"/>
      <point x="624" y="-67"/>
      <point x="823" y="-189"/>
      <point x="966" y="-189" type="qcurve"/>
      <point x="1025" y="-189"/>
      <point x="1115" y="-182"/>
      <point x="1189" y="-165"/>
      <point x="1254" y="-139"/>
      <point x="1289" y="-120" type="qcurve"/>
      <point x="1393" y="-321" type="line"/>
      <point x="1337" y="-351"/>
      <point x="1238" y="-388"/>
      <point x="1141" y="-409"/>
      <point x="1038" y="-417"/>
      <point x="978" y="-417" type="qcurve"/>
      <point x="833" y="-417"/>
      <point x="592" y="-344"/>
      <point x="400" y="-212"/>
      <point x="256" y="-30"/>
      <point x="160" y="187"/>
      <point x="112" y="433"/>
      <point x="112" y="562" type="qcurve"/>
      <point x="112" y="694"/>
      <point x="162" y="939"/>
      <point x="261" y="1151"/>
      <point x="407" y="1325"/>
      <point x="600" y="1449"/>
      <point x="837" y="1517"/>
      <point x="978" y="1517" type="qcurve"/>
      <point x="1111" y="1517"/>
      <point x="1343" y="1450"/>
      <point x="1535" y="1330"/>
      <point x="1684" y="1161"/>
      <point x="1787" y="957"/>
      <point x="1841" y="724"/>
      <point x="1841" y="599" type="qcurve"/>
      <point x="1841" y="517"/>
      <point x="1830" y="361"/>
      <point x="1799" y="224"/>
      <point x="1744" y="110"/>
      <point x="1657" y="28"/>
      <point x="1533" y="-17"/>
      <point x="1449" y="-17" type="qcurve"/>
      <point x="1393" y="-17"/>
      <point x="1290" y="12"/>
      <point x="1207" y="61"/>
      <point x="1147" y="126"/>
      <point x="1133" y="162" type="qcurve"/>
    </contour>
    <contour>
      <point x="1133" y="515" type="line"/>
      <point x="1109" y="518"/>
      <point x="1052" y="523"/>
      <point x="1026" y="523" type="qcurve"/>
      <point x="990" y="523"/>
      <point x="921" y="503"/>
      <point x="867" y="463"/>
      <point x="833" y="401"/>
      <point x="833" y="359" type="qcurve"/>
      <point x="833" y="325"/>
      <point x="855" y="267"/>
      <point x="891" y="224"/>
      <point x="936" y="200"/>
      <point x="959" y="200" type="qcurve"/>
      <point x="988" y="200"/>
      <point x="1041" y="218"/>
      <point x="1086" y="245"/>
      <point x="1121" y="277"/>
      <point x="1133" y="290" type="qcurve"/>
    </contour>
  </outline>
</glyph>
<glyph name="A" format="1">
  <advance width="1300"/>
  <unicode hex="0041"/>
  <outline>
    <contour>
      <point x="6" y="0" type="line"/>
      <point x="404" y="1284" type="line"/>
      <point x="439" y="1494" type="line"/>
      <point x="817" y="1525" type="line"/>
      <point x="1296" y="0" type="line"/>
      <point x="954" y="0" type="line"/>
      <point x="838" y="427" type="line"/>
      <point x="446" y="427" type="line"/>
      <point x="333" y="0" type="line"/>
    </contour>
    <contour>
      <point x="642" y="1361" type="line"/>
      <point x="589" y="990" type="line"/>
      <point x="505" y="646" type="line"/>
      <point x="779" y="646" type="line"/>
      <point x="694" y="990" type="line"/>
    </contour>
  </outline>
</glyph>
<glyph name="B" format="1">
  <advance width="1300"/>
  <unicode hex="0042"/>
  <outline>
    <contour>
      <point x="471" y="1130" type="line"/>
      <point x="471" y="900" type="line"/>
      <point x="500" y="900" type="line"/>
      <point x="547" y="900"/>
      <point x="642" y="926"/>
      <point x="718" y="981"/>
      <point x="766" y="1067"/>
      <point x="766" y="1128" type="qcurve"/>
      <point x="766" y="1183"/>
      <point x="720" y="1253"/>
      <point x="648" y="1291"/>
      <point x="561" y="1305"/>
      <point x="520" y="1305" type="qcurve"/>
      <point x="506" y="1305"/>
      <point x="470" y="1303"/>
      <point x="455" y="1301" type="qcurve"/>
    </contour>
    <contour>
      <point x="120" y="0" type="line"/>
      <point x="120" y="1262" type="line"/>
      <point x="88" y="1481" type="line"/>
      <point x="131" y="1487"/>
      <point x="233" y="1497"/>
      <point x="334" y="1505"/>
      <point x="426" y="1509"/>
      <point x="459" y="1509" type="qcurve"/>
      <point x="579" y="1509"/>
      <point x="803" y="1478"/>
      <point x="976" y="1398"/>
      <point x="1080" y="1257"/>
      <point x="1080" y="1148" type="qcurve"/>
      <point x="1080" y="1094"/>
      <point x="1049" y="998"/>
      <point x="994" y="917"/>
      <point x="915" y="850"/>
      <point x="867" y="826" type="qcurve"/>
      <point x="931" y="804"/>
      <point x="1044" y="742"/>
      <point x="1128" y="656"/>
      <point x="1176" y="545"/>
      <point x="1176" y="475" type="qcurve"/>
      <point x="1176" y="387"/>
      <point x="1126" y="248"/>
      <point x="1041" y="143"/>
      <point x="925" y="68"/>
      <point x="794" y="21"/>
      <point x="653" y="0"/>
      <point x="585" y="0" type="qcurve"/>
    </contour>
    <contour>
      <point x="471" y="228" type="line"/>
      <point x="528" y="228" type="line"/>
      <point x="603" y="228"/>
      <point x="720" y="251"/>
      <point x="801" y="307"/>
      <point x="844" y="397"/>
      <point x="844" y="465" type="qcurve"/>
      <point x="844" y="530"/>
      <point x="802" y="617"/>
      <point x="728" y="670"/>
      <point x="626" y="693"/>
      <point x="566" y="693" type="qcurve"/>
      <point x="471" y="693" type="line"/>
    </contour>
  </outline>
</glyph>
<glyph name="G" format="1">
  <advance width="1300"/>
  <unicode hex="0047"/>
  <outline>
    <contour>
      <point x="1231" y="221" type="line"/>
      <point x="1186" y="171"/>
      <point x="1073" y="84"/>
      <point x="938" y="20"/>
      <point x="780" y="-17"/>
      <point x="688" y="-17" type="qcurve"/>
      <point x="533" y="-17"/>
      <point x="287" y="108"/>
      <point x="115" y="322"/>
      <point x="24" y="608"/>
      <point x="24" y="769" type="qcurve"/>
      <point x="24" y="920"/>
      <point x="106" y="1192"/>
      <point x="275" y="1397"/>
      <point x="534" y="1517"/>
      <point x="710" y="1517" type="qcurve"/>
      <point x="839" y="1517"/>
      <point x="1074" y="1428"/>
      <point x="1162" y="1344" type="qcurve"/>
      <point x="1014" y="1170" type="line"/>
      <point x="981" y="1192"/>
      <point x="909" y="1232"/>
      <point x="834" y="1262"/>
      <point x="760" y="1280"/>
      <point x="725" y="1280" type="qcurve"/>
      <point x="630" y="1280"/>
      <point x="497" y="1199"/>
      <point x="413" y="1060"/>
      <point x="375" y="875"/>
      <point x="375" y="772" type="qcurve"/>
      <point x="375" y="711"/>
      <point x="392" y="582"/>
      <point x="427" y="459"/>
      <point x="482" y="351"/>
      <point x="557" y="269"/>
      <point x="654" y="221"/>
      <point x="713" y="221" type="qcurve"/>
      <point x="738" y="221"/>
      <point x="791" y="233"/>
      <point x="840" y="252"/>
      <point x="883" y="276"/>
      <point x="899" y="289" type="qcurve"/>
      <point x="899" y="616" type="line"/>
      <point x="605" y="635" type="line"/>
      <point x="605" y="840" type="line"/>
      <point x="1231" y="840" type="line"/>
    </contour>
  </outline>
</glyph>
<glyph name="H" format="1">
  <advance width="1400"/>
  <unicode hex="0048"/>
  <outline>
    <contour>
      <point x="904" y="0" type="line"/>
      <point x="904" y="688" type="line"/>
      <point x="458" y="688" type="line"/>
      <point x="458" y="0" type="line"/>
      <point x="111" y="0" type="line"/>
      <point x="111" y="1263" type="line"/>
      <point x="80" y="1494" type="line"/>
      <point x="458" y="1526" type="line"/>
      <point x="458" y="916" type="line"/>
      <point x="904" y="916" type="line"/>
      <point x="904" y="1496" type="line"/>
      <point x="1250" y="1527" type="line"/>
      <point x="1250" y="0" type="line"/>
    </contour>
  </outline>
</glyph>
<glyph name="I" format="1">
  <advance width="600"/>
  <unicode hex="0049"/>
  <outline>
    <contour>
      <point x="111" y="0" type="line"/>
      <point x="111" y="1263" type="line"/>
      <point x="78" y="1494" type="line"/>
      <point x="463" y="1525" type="line"/>
      <point x="463" y="0" type="line"/>
    </contour>
  </outline>
</glyph>
<glyph name="L" format="1">
  <advance width="1100"/>
  <unicode hex="004C"/>
  <outline>
    <contour>
      <point x="463" y="228" type="line"/>
      <point x="1082" y="228" type="line"/>
      <point x="1055" y="0" type="line"/>
      <point x="97" y="0" type="line"/>
      <point x="120" y="232" type="line"/>
      <point x="120" y="1263" type="line"/>
      <point x="86" y="1494" type="line"/>
      <point x="471" y="1525" type="line"/>
      <point x="471" y="360" type="line"/>
    </contour>
  </outline>
</glyph>
<glyph name="M" format="1">
  <advance width="1800"/>
  <unicode hex="004D"/>
  <outline>
    <contour>
      <point x="922" y="799" type="line"/>
      <point x="1250" y="1495" type="line"/>
      <point x="1600" y="1526" type="line"/>
      <point x="1600" y="0" type="line"/>
      <point x="1269" y="0" type="line"/>
      <point x="1269" y="551" type="line"/>
      <point x="1314" y="1060" type="line"/>
      <point x="1309" y="1061" type="line"/>
      <point x="1145" y="581" type="line"/>
      <point x="928" y="123" type="line"/>
      <point x="745" y="123" type="line"/>
      <point x="546" y="536" type="line"/>
      <point x="377" y="1060" type="line"/>
      <point x="371" y="1059" type="line"/>
      <point x="422" y="498" type="line"/>
      <point x="422" y="0" type="line"/>
      <point x="100" y="0" type="line"/>
      <point x="100" y="1263" type="line"/>
      <point x="70" y="1494" type="line"/>
      <point x="429" y="1524" type="line"/>
      <point x="773" y="801" type="line"/>
      <point x="848" y="498" type="line"/>
    </contour>
  </outline>
</glyph>
<glyph name="N" format="1">
  <advance width="1500"/>
  <unicode hex="004E"/>
  <outline>
    <contour>
      <point x="1323" y="1527" type="line"/>
      <point x="1323" y="0" type="line"/>
      <point x="1007" y="0" type="line"/>
      <point x="589" y="700" type="line"/>
      <point x="441" y="1038" type="line"/>
      <point x="435" y="1037" type="line"/>
      <point x="473" y="691" type="line"/>
      <point x="473" y="0" type="line"/>
      <point x="131" y="0" type="line"/>
      <point x="131" y="1263" type="line"/>
      <point x="98" y="1494" type="line"/>
      <point x="454" y="1524" type="line"/>
      <point x="879" y="810" type="line"/>
      <point x="1028" y="449" type="line"/>
      <point x="1034" y="450" type="line"/>
      <point x="986" y="816" type="line"/>
      <point x="986" y="1493" type="line"/>
    </contour>
  </outline>
</glyph>
<glyph name="Q" format="1">
  <advance width="1600"/>
  <unicode hex="0051"/>
  <outline>
    <contour>
      <point x="957" y="2" type="line"/>
      <point x="915" y="-7"/>
      <point x="827" y="-17"/>
      <point x="780" y="-17" type="qcurve"/>
      <point x="613" y="-17"/>
      <point x="347" y="99"/>
      <point x="161" y="304"/>
      <point x="62" y="585"/>
      <point x="62" y="750" type="qcurve"/>
      <point x="62" y="915"/>
      <point x="158" y="1196"/>
      <point x="341" y="1401"/>
      <point x="609" y="1517"/>
      <point x="780" y="1517" type="qcurve"/>
      <point x="947" y="1517"/>
      <point x="1213" y="1401"/>
      <point x="1398" y="1196"/>
      <point x="1497" y="915"/>
      <point x="1497" y="750" type="qcurve"/>
      <point x="1497" y="562"/>
      <point x="1376" y="255"/>
      <point x="1259" y="152" type="qcurve"/>
      <point x="1281" y="135"/>
      <point x="1327" y="106"/>
      <point x="1383" y="86"/>
      <point x="1453" y="75"/>
      <point x="1498" y="75" type="qcurve"/>
      <point x="1410" y="-145" type="line"/>
      <point x="1378" y="-145" type="line"/>
      <point x="1311" y="-145"/>
      <point x="1208" y="-120"/>
      <point x="1129" y="-77"/>
      <point x="1070" y="-21"/>
      <point x="1024" y="42"/>
      <point x="986" y="106"/>
      <point x="967" y="135" type="qcurve"/>
    </contour>
    <contour>
      <point x="1119" y="506" type="line"/>
      <point x="1134" y="557"/>
      <point x="1148" y="665"/>
      <point x="1148" y="721" type="qcurve"/>
      <point x="1148" y="827"/>
      <point x="1108" y="1025"/>
      <point x="1018" y="1177"/>
      <point x="876" y="1269"/>
      <point x="774" y="1269" type="qcurve"/>
      <point x="678" y="1269"/>
      <point x="540" y="1188"/>
      <point x="452" y="1053"/>
      <point x="411" y="877"/>
      <point x="411" y="783" type="qcurve"/>
      <point x="411" y="675"/>
      <point x="452" y="476"/>
      <point x="542" y="323"/>
      <point x="684" y="231"/>
      <point x="785" y="231" type="qcurve"/>
      <point x="894" y="231" type="line"/>
      <point x="860" y="260"/>
      <point x="757" y="300"/>
      <point x="687" y="300" type="qcurve"/>
      <point x="761" y="500" type="line"/>
      <point x="837" y="500"/>
      <point x="947" y="468"/>
      <point x="1030" y="416"/>
      <point x="1091" y="348"/>
      <point x="1119" y="311" type="qcurve"/>
    </contour>
  </outline>
</glyph>
<glyph name="R" format="1">
  <advance width="1300"/>
  <unicode hex="0052"/>
  <outline>
    <contour>
      <point x="474" y="1130" type="line"/>
      <point x="474" y="802" type="line"/>
      <point x="538" y="802" type="line"/>
      <point x="605" y="802"/>
      <point x="704" y="845"/>
      <point x="769" y="917"/>
      <point x="801" y="1013"/>
      <point x="801" y="1066" type="qcurve"/>
      <point x="801" y="1136"/>
      <point x="754" y="1228"/>
      <point x="680" y="1283"/>
      <point x="587" y="1305"/>
      <point x="542" y="1305" type="qcurve"/>
      <point x="522" y="1305"/>
      <point x="498" y="1305"/>
      <point x="481" y="1305"/>
      <point x="466" y="1304"/>
      <point x="457" y="1303" type="qcurve"/>
    </contour>
    <contour>
      <point x="521" y="564" type="line"/>
      <point x="510" y="578"/>
      <point x="482" y="583"/>
      <point x="474" y="583" type="qcurve"/>
      <point x="474" y="0" type="line"/>
      <point x="122" y="0" type="line"/>
      <point x="122" y="1262" type="line"/>
      <point x="84" y="1482" type="line"/>
      <point x="129" y="1487"/>
      <point x="243" y="1498"/>
      <point x="361" y="1506"/>
      <point x="474" y="1511"/>
      <point x="518" y="1511" type="qcurve"/>
      <point x="655" y="1511"/>
      <point x="880" y="1456"/>
      <point x="1041" y="1347"/>
      <point x="1130" y="1186"/>
      <point x="1130" y="1081" type="qcurve"/>
      <point x="1130" y="973"/>
      <point x="1063" y="818"/>
      <point x="949" y="709"/>
      <point x="800" y="639"/>
      <point x="719" y="617" type="qcurve"/>
      <point x="859" y="584" type="line"/>
      <point x="1295" y="0" type="line"/>
      <point x="927" y="0" type="line"/>
    </contour>
  </outline>
</glyph>
<glyph name="S" format="1">
  <advance width="1100"/>
  <unicode hex="0053"/>
  <outline>
    <contour>
      <point x="853" y="1178" type="line"/>
      <point x="807" y="1205"/>
      <point x="732" y="1244"/>
      <point x="668" y="1271"/>
      <point x="611" y="1284"/>
      <point x="583" y="1284" type="qcurve"/>
      <point x="546" y="1284"/>
      <point x="476" y="1267"/>
      <point x="422" y="1230"/>
      <point x="389" y="1169"/>
      <point x="389" y="1125" type="qcurve"/>
      <point x="389" y="1084"/>
      <point x="427" y="1022"/>
      <point x="490" y="972"/>
      <point x="572" y="931"/>
      <point x="616" y="911" type="qcurve"/>
      <point x="666" y="888"/>
      <point x="769" y="839"/>
      <point x="865" y="780"/>
      <point x="949" y="710"/>
      <point x="1012" y="622"/>
      <point x="1048" y="514"/>
      <point x="1048" y="448" type="qcurve"/>
      <point x="1048" y="332"/>
      <point x="952" y="158"/>
      <point x="793" y="42"/>
      <point x="586" y="-17"/>
      <point x="476" y="-17" type="qcurve"/>
      <point x="350" y="-17"/>
      <point x="137" y="54"/>
      <point x="30" y="121" type="qcurve"/>
      <point x="168" y="348" type="line"/>
      <point x="195" y="330"/>
      <point x="269" y="287"/>
      <point x="352" y="251"/>
      <point x="436" y="226"/>
      <point x="474" y="226" type="qcurve"/>
      <point x="518" y="226"/>
      <point x="604" y="248"/>
      <point x="671" y="297"/>
      <point x="712" y="374"/>
      <point x="712" y="430" type="qcurve"/>
      <point x="712" y="484"/>
      <point x="663" y="565"/>
      <point x="584" y="628"/>
      <point x="484" y="679"/>
      <point x="433" y="703" type="qcurve"/>
      <point x="361" y="737"/>
      <point x="222" y="810"/>
      <point x="111" y="902"/>
      <point x="43" y="1019"/>
      <point x="43" y="1097" type="qcurve"/>
      <point x="43" y="1198"/>
      <point x="132" y="1355"/>
      <point x="278" y="1462"/>
      <point x="463" y="1517"/>
      <point x="559" y="1517" type="qcurve"/>
      <point x="676" y="1517"/>
      <point x="892" y="1443"/>
      <point x="1003" y="1369" type="qcurve"/>
    </contour>
  </outline>
</glyph>
<glyph name="T" format="1">
  <advance width="1200"/>
  <unicode hex="0054"/>
  <outline>
    <contour>
      <point x="408" y="0" type="line"/>
      <point x="408" y="1272" type="line"/>
      <point x="14" y="1272" type="line"/>
      <point x="14" y="1500" type="line"/>
      <point x="1149" y="1500" type="line"/>
      <point x="1149" y="1272" type="line"/>
      <point x="759" y="1272" type="line"/>
      <point x="759" y="0" type="line"/>
    </contour>
  </outline>
</glyph>
<glyph name="V" format="1">
  <advance width="1300"/>
  <unicode hex="0056"/>
  <outline>
    <contour>
      <point x="1290" y="1500" type="line"/>
      <point x="880" y="204" type="line"/>
      <point x="851" y="-25" type="line"/>
      <point x="461" y="5" type="line"/>
      <point x="-16" y="1492" type="line"/>
      <point x="306" y="1526" type="line"/>
      <point x="559" y="700" type="line"/>
      <point x="653" y="260" type="line"/>
      <point x="722" y="700" type="line"/>
      <point x="970" y="1500" type="line"/>
    </contour>
  </outline>
</glyph>
<glyph name="X" format="1">
  <advance width="1300"/>
  <unicode hex="0058"/>
  <outline>
    <contour>
      <point x="700" y="375" type="line"/>
      <point x="608" y="592" type="line"/>
      <point x="550" y="400" type="line"/>
      <point x="310" y="0" type="line"/>
      <point x="-34" y="0" type="line"/>
      <point x="445" y="797" type="line"/>
      <point x="26" y="1492" type="line"/>
      <point x="374" y="1524" type="line"/>
      <point x="569" y="1198" type="line"/>
      <point x="665" y="962" type="line"/>
      <point x="707" y="1154" type="line"/>
      <point x="913" y="1500" type="line"/>
      <point x="1259" y="1500" type="line"/>
      <point x="823" y="775" type="line"/>
      <point x="1288" y="0" type="line"/>
      <point x="924" y="0" type="line"/>
    </contour>
  </outline>
</glyph>
<glyph name="Y" format="1">
  <advance width="1200"/>
  <unicode hex="0059"/>
  <outline>
    <contour>
      <point x="511" y="1143" type="line"/>
      <point x="618" y="773" type="line"/>
      <point x="676" y="1143" type="line"/>
      <point x="858" y="1500" type="line"/>
      <point x="1193" y="1500" type="line"/>
      <point x="760" y="650" type="line"/>
      <point x="760" y="0" type="line"/>
      <point x="409" y="0" type="line"/>
      <point x="409" y="650" type="line"/>
      <point x="-20" y="1492" type="line"/>
      <point x="319" y="1525" type="line"/>
    </contour>
  </outline>
</glyph>
<glyph name="Z" format="1">
  <advance width="1200"/>
  <unicode hex="005A"/>
  <outline>
    <contour>
      <point x="1121" y="228" type="line"/>
      <point x="1148" y="0" type="line"/>
      <point x="30" y="0" type="line"/>
      <point x="-4" y="86" type="line"/>
      <point x="622" y="1187" type="line"/>
      <point x="800" y="1310" type="line"/>
      <point x="589" y="1272" type="line"/>
      <point x="86" y="1272" type="line"/>
      <point x="59" y="1500" type="line"/>
      <point x="1087" y="1500" type="line"/>
      <point x="1128" y="1441" type="line"/>
      <point x="495" y="314" type="line"/>
      <point x="300" y="190" type="line"/>
      <point x="514" y="228" type="line"/>
    </contour>
  </outline>
</glyph>
<glyph name="a" format="1">
  <advance width="1050"/>
  <unicode hex="0061"/>
  <outline>
    <contour>
      <point x="973" y="0" type="line"/>
      <point x="634" y="0" type="line"/>
      <point x="634" y="162" type="line"/>
      <point x="514" y="-12" type="line"/>
      <point x="506" y="-14"/>
      <point x="484" y="-17"/>
      <point x="463" y="-17" type="qcurve"/>
      <point x="377" y="-17"/>
      <point x="223" y="32"/>
      <point x="107" y="127"/>
      <point x="38" y="267"/>
      <point x="38" y="358" type="qcurve"/>
      <point x="38" y="422"/>
      <point x="76" y="526"/>
      <point x="143" y="608"/>
      <point x="231" y="668"/>
      <point x="332" y="707"/>
      <point x="439" y="726"/>
      <point x="490" y="726" type="qcurve"/>
      <point x="535" y="726"/>
      <point x="606" y="720"/>
      <point x="633" y="715" type="qcurve"/>
      <point x="632" y="755"/>
      <point x="622" y="822"/>
      <point x="596" y="872"/>
      <point x="552" y="900"/>
      <point x="518" y="900" type="qcurve"/>
      <point x="433" y="900"/>
      <point x="277" y="861"/>
      <point x="214" y="838" type="qcurve"/>
      <point x="110" y="1023" type="line"/>
      <point x="188" y="1058"/>
      <point x="263" y="1079" type="qcurve"/>
      <point x="311" y="1093"/>
      <point x="442" y="1117"/>
      <point x="527" y="1117" type="qcurve"/>
      <point x="657" y="1117"/>
      <point x="822" y="1054"/>
      <point x="915" y="939"/>
      <point x="950" y="778"/>
      <point x="950" y="681" type="qcurve"/>
      <point x="950" y="205" type="line"/>
    </contour>
    <contour>
      <point x="634" y="515" type="line"/>
      <point x="610" y="518"/>
      <point x="553" y="523"/>
      <point x="527" y="523" type="qcurve"/>
      <point x="491" y="523"/>
      <point x="422" y="503"/>
      <point x="368" y="463"/>
      <point x="334" y="401"/>
      <point x="334" y="359" type="qcurve"/>
      <point x="334" y="325"/>
      <point x="356" y="267"/>
      <point x="392" y="224"/>
      <point x="437" y="200"/>
      <point x="460" y="200" type="qcurve"/>
      <point x="489" y="200"/>
      <point x="542" y="218"/>
      <point x="587" y="245"/>
      <point x="622" y="277"/>
      <point x="634" y="290" type="qcurve"/>
    </contour>
  </outline>
</glyph>
<glyph name="b" format="1">
  <advance width="1200"/>
  <unicode hex="0062"/>
  <outline>
    <contour>
      <point x="457" y="212" type="line"/>
      <point x="486" y="207"/>
      <point x="552" y="200"/>
      <point x="582" y="200" type="qcurve"/>
      <point x="645" y="200"/>
      <point x="726" y="275"/>
      <point x="773" y="392"/>
      <point x="792" y="533"/>
      <point x="792" y="598" type="qcurve"/>
      <point x="792" y="680"/>
      <point x="768" y="795"/>
      <point x="729" y="867"/>
      <point x="676" y="900"/>
      <point x="648" y="900" type="qcurve"/>
      <point x="587" y="900"/>
      <point x="495" y="858"/>
      <point x="457" y="826" type="qcurve"/>
    </contour>
    <contour>
      <point x="130" y="1398" type="line"/>
      <point x="108" y="1601" type="line"/>
      <point x="457" y="1632" type="line"/>
      <point x="457" y="974" type="line"/>
      <point x="554" y="1096" type="line"/>
      <point x="583" y="1104"/>
      <point x="648" y="1117"/>
      <point x="676" y="1117" type="qcurve"/>
      <point x="768" y="1117"/>
      <point x="929" y="1048"/>
      <point x="1049" y="915"/>
      <point x="1119" y="719"/>
      <point x="1119" y="593" type="qcurve"/>
      <point x="1119" y="456"/>
      <point x="1037" y="231"/>
      <point x="892" y="71"/>
      <point x="691" y="-16"/>
      <point x="573" y="-16" type="qcurve"/>
      <point x="509" y="-16"/>
      <point x="378" y="-3"/>
      <point x="259" y="17"/>
      <point x="160" y="42"/>
      <point x="130" y="54" type="qcurve"/>
    </contour>
  </outline>
</glyph>
<glyph name="c" format="1">
  <advance width="1000"/>
  <unicode hex="0063"/>
  <outline>
    <contour>
      <point x="788" y="814" type="line"/>
      <point x="758" y="843"/>
      <point x="703" y="877"/>
      <point x="653" y="895"/>
      <point x="604" y="900"/>
      <point x="580" y="900" type="qcurve"/>
      <point x="522" y="900"/>
      <point x="441" y="844"/>
      <point x="390" y="751"/>
      <point x="367" y="629"/>
      <point x="367" y="563" type="qcurve"/>
      <point x="367" y="494"/>
      <point x="389" y="363"/>
      <point x="440" y="261"/>
      <point x="526" y="200"/>
      <point x="590" y="200" type="qcurve"/>
      <point x="616" y="200"/>
      <point x="676" y="214"/>
      <point x="737" y="238"/>
      <point x="796" y="270"/>
      <point x="822" y="288" type="qcurve"/>
      <point x="934" y="93" type="line"/>
      <point x="861" y="43"/>
      <point x="683" y="-17"/>
      <point x="577" y="-17" type="qcurve"/>
      <point x="442" y="-17"/>
      <point x="240" y="82"/>
      <point x="104" y="246"/>
      <point x="36" y="460"/>
      <point x="36" y="575" type="qcurve"/>
      <point x="36" y="679"/>
      <point x="102" y="875"/>
      <point x="237" y="1026"/>
      <point x="442" y="1117"/>
      <point x="582" y="1117" type="qcurve"/>
      <point x="690" y="1117"/>
      <point x="862" y="1046"/>
      <point x="939" y="961" type="qcurve"/>
    </contour>
  </outline>
</glyph>
<glyph name="e" format="1">
  <advance width="1100"/>
  <unicode hex="0065"/>
  <outline>
    <contour>
      <point x="1002" y="158" type="line"/>
      <point x="965" y="120"/>
      <point x="879" y="56"/>
      <point x="775" y="10"/>
      <point x="651" y="-16"/>
      <point x="576" y="-16" type="qcurve"/>
      <point x="432" y="-16"/>
      <point x="228" y="78"/>
      <point x="99" y="235"/>
      <point x="40" y="439"/>
      <point x="40" y="550" type="qcurve"/>
      <point x="40" y="621"/>
      <point x="68" y="760"/>
      <point x="125" y="885"/>
      <point x="210" y="993"/>
      <point x="324" y="1071"/>
      <point x="467" y="1116"/>
      <point x="553" y="1116" type="qcurve"/>
      <point x="673" y="1116"/>
      <point x="849" y="1045"/>
      <point x="963" y="918"/>
      <point x="1019" y="740"/>
      <point x="1019" y="632" type="qcurve"/>
      <point x="1019" y="605"/>
      <point x="1012" y="517"/>
      <point x="1007" y="466" type="qcurve"/>
      <point x="337" y="466" type="line"/>
      <point x="339" y="412"/>
      <point x="381" y="315"/>
      <point x="450" y="243"/>
      <point x="542" y="200"/>
      <point x="596" y="200" type="qcurve"/>
      <point x="640" y="200"/>
      <point x="719" y="220"/>
      <point x="784" y="249"/>
      <point x="834" y="280"/>
      <point x="848" y="292" type="qcurve"/>
    </contour>
    <contour>
      <point x="735" y="672" type="line"/>
      <point x="735" y="718"/>
      <point x="721" y="800"/>
      <point x="683" y="863"/>
      <point x="618" y="900"/>
      <point x="567" y="900" type="qcurve"/>
      <point x="524" y="900"/>
      <point x="459" y="870"/>
      <point x="412" y="825"/>
      <point x="382" y="775"/>
      <point x="374" y="756" type="qcurve"/>
      <point x="283" y="653" type="line"/>
      <point x="456" y="671" type="line"/>
    </contour>
  </outline>
</glyph>
<glyph name="f" format="1">
  <advance width="800"/>
  <unicode hex="0066"/>
  <outline>
    <contour>
      <point x="10" y="1100" type="line"/>
      <point x="150" y="1100" type="line"/>
      <point x="150" y="1242" type="line"/>
      <point x="150" y="1330"/>
      <point x="193" y="1469"/>
      <point x="285" y="1566"/>
      <point x="430" y="1617"/>
      <point x="532" y="1617" type="qcurve"/>
      <point x="584" y="1617"/>
      <point x="676" y="1598"/>
      <point x="755" y="1566"/>
      <point x="822" y="1524"/>
      <point x="850" y="1501" type="qcurve"/>
      <point x="714" y="1341" type="line"/>
      <point x="676" y="1368"/>
      <point x="608" y="1393"/>
      <point x="564" y="1393" type="qcurve"/>
      <point x="520" y="1393"/>
      <point x="462" y="1319"/>
      <point x="462" y="1233" type="qcurve"/>
      <point x="462" y="1100" type="line"/>
      <point x="746" y="1100" type="line"/>
      <point x="719" y="876" type="line"/>
      <point x="476" y="876" type="line"/>
      <point x="476" y="0" type="line"/>
      <point x="150" y="0" type="line"/>
      <point x="150" y="876" type="line"/>
      <point x="10" y="876" type="line"/>
    </contour>
  </outline>
</glyph>
<glyph name="j" format="1">
  <advance width="600"/>
  <unicode hex="006A"/>
  <outline>
    <contour>
      <point x="-70" y="-268" type="line"/>
      <point x="-69" y="-268"/>
      <point x="-68" y="-269"/>
      <point x="-67" y="-269" type="qcurve"/>
      <point x="-47" y="-277"/>
      <point x="3" y="-291"/>
      <point x="29" y="-291" type="qcurve"/>
      <point x="59" y="-291"/>
      <point x="99" y="-263"/>
      <point x="121" y="-212"/>
      <point x="130" y="-140"/>
      <point x="130" y="-97" type="qcurve"/>
      <point x="130" y="1049" type="line"/>
      <point x="447" y="1081" type="line"/>
      <point x="447" y="-89" type="line"/>
      <point x="447" y="-180"/>
      <point x="416" y="-337"/>
      <point x="335" y="-452"/>
      <point x="194" y="-517"/>
      <point x="83" y="-517" type="qcurve"/>
      <point x="46" y="-517"/>
      <point x="-21" y="-505"/>
      <point x="-75" y="-488"/>
      <point x="-115" y="-471"/>
      <point x="-126" y="-465" type="qcurve"/>
    </contour>
    <contour>
      <point x="124" y="1500" type="line"/>
      <point x="452" y="1500" type="line"/>
      <point x="452" y="1269" type="line"/>
      <point x="124" y="1269" type="line"/>
    </contour>
  </outline>
</glyph>
<glyph name="k" format="1">
  <advance width="1100"/>
  <unicode hex="006B"/>
  <outline>
    <contour>
      <point x="130" y="0" type="line"/>
      <point x="130" y="1397" type="line"/>
      <point x="108" y="1600" type="line"/>
      <point x="436" y="1631" type="line"/>
      <point x="436" y="769" type="line"/>
      <point x="701" y="1100" type="line"/>
      <point x="1042" y="1100" type="line"/>
      <point x="680" y="700" type="line"/>
      <point x="476" y="627" type="line"/>
      <point x="665" y="564" type="line"/>
      <point x="1143" y="0" type="line"/>
      <point x="795" y="0" type="line"/>
      <point x="436" y="458" type="line"/>
      <point x="436" y="0" type="line"/>
    </contour>
  </outline>
</glyph>
<glyph name="l" format="1">
  <advance width="700"/>
  <unicode hex="006C"/>
  <outline>
    <contour>
      <point x="129" y="1379" type="line"/>
      <point x="108" y="1600" type="line"/>
      <point x="456" y="1631" type="line"/>
      <point x="456" y="403" type="line"/>
      <point x="456" y="360"/>
      <point x="462" y="288"/>
      <point x="481" y="237"/>
      <point x="517" y="209"/>
      <point x="547" y="209" type="qcurve"/>
      <point x="561" y="209"/>
      <point x="590" y="214"/>
      <point x="617" y="222"/>
      <point x="639" y="229"/>
      <point x="646" y="232" type="qcurve"/>
      <point x="702" y="35" type="line"/>
      <point x="691" y="29"/>
      <point x="651" y="12"/>
      <point x="597" y="-5"/>
      <point x="530" y="-17"/>
      <point x="493" y="-17" type="qcurve"/>
      <point x="382" y="-17"/>
      <point x="240" y="48"/>
      <point x="159" y="163"/>
      <point x="129" y="320"/>
      <point x="129" y="411" type="qcurve"/>
    </contour>
  </outline>
</glyph>
<glyph name="q" format="1">
  <advance width="1200"/>
  <unicode hex="0071"/>
  <outline>
    <contour>
      <point x="718" y="891" type="line"/>
      <point x="688" y="895"/>
      <point x="623" y="900"/>
      <point x="593" y="900" type="qcurve"/>
      <point x="551" y="900"/>
      <point x="487" y="868"/>
      <point x="439" y="814"/>
      <point x="406" y="741"/>
      <point x="386" y="658"/>
      <point x="377" y="569"/>
      <point x="377" y="526" type="qcurve"/>
      <point x="377" y="442"/>
      <point x="403" y="320"/>
      <point x="445" y="239"/>
      <point x="499" y="200"/>
      <point x="527" y="200" type="qcurve"/>
      <point x="548" y="200"/>
      <point x="596" y="215"/>
      <point x="646" y="239"/>
      <point x="695" y="271"/>
      <point x="718" y="288" type="qcurve"/>
    </contour>
    <contour>
      <point x="718" y="136" type="line"/>
      <point x="601" y="-8" type="line"/>
      <point x="553" y="-17"/>
      <point x="509" y="-17" type="qcurve"/>
      <point x="417" y="-17"/>
      <point x="253" y="58"/>
      <point x="129" y="198"/>
      <point x="56" y="400"/>
      <point x="56" y="526" type="qcurve"/>
      <point x="56" y="663"/>
      <point x="136" y="882"/>
      <point x="279" y="1035"/>
      <point x="478" y="1117"/>
      <point x="597" y="1117" type="qcurve"/>
      <point x="661" y="1117"/>
      <point x="797" y="1099"/>
      <point x="920" y="1074"/>
      <point x="1018" y="1047"/>
      <point x="1044" y="1038" type="qcurve"/>
      <point x="1044" y="-500" type="line"/>
      <point x="718" y="-500" type="line"/>
    </contour>
  </outline>
</glyph>
<glyph name="r" format="1">
  <advance width="800"/>
  <unicode hex="0072"/>
  <outline>
    <contour>
      <point x="789" y="867" type="line"/>
      <point x="769" y="877"/>
      <point x="737" y="890"/>
      <point x="705" y="898"/>
      <point x="670" y="900"/>
      <point x="647" y="900" type="qcurve"/>
      <point x="619" y="900"/>
      <point x="562" y="873"/>
      <point x="509" y="827"/>
      <point x="465" y="768"/>
      <point x="450" y="736" type="qcurve"/>
      <point x="450" y="0" type="line"/>
      <point x="124" y="0" type="line"/>
      <point x="124" y="1093" type="line"/>
      <point x="450" y="1126" type="line"/>
      <point x="450" y="895" type="line"/>
      <point x="544" y="1100" type="line"/>
      <point x="560" y="1106"/>
      <point x="619" y="1117"/>
      <point x="645" y="1117" type="qcurve"/>
      <point x="700" y="1117"/>
      <point x="771" y="1100"/>
      <point x="803" y="1084" type="qcurve"/>
    </contour>
  </outline>
</glyph>
<glyph name="s" format="1">
  <advance width="900"/>
  <unicode hex="0073"/>
  <outline>
    <contour>
      <point x="690" y="822" type="line"/>
      <point x="659" y="841"/>
      <point x="592" y="870"/>
      <point x="529" y="890"/>
      <point x="475" y="900"/>
      <point x="459" y="900" type="qcurve"/>
      <point x="342" y="900"/>
      <point x="342" y="822" type="qcurve"/>
      <point x="342" y="796"/>
      <point x="386" y="756"/>
      <point x="458" y="720"/>
      <point x="551" y="684"/>
      <point x="647" y="640"/>
      <point x="740" y="587"/>
      <point x="812" y="516"/>
      <point x="856" y="424"/>
      <point x="856" y="364" type="qcurve"/>
      <point x="856" y="260"/>
      <point x="784" y="116"/>
      <point x="658" y="24"/>
      <point x="487" y="-17"/>
      <point x="389" y="-17" type="qcurve"/>
      <point x="351" y="-17"/>
      <point x="249" y="1"/>
      <point x="144" y="31"/>
      <point x="46" y="72"/>
      <point x="12" y="96" type="qcurve"/>
      <point x="112" y="286" type="line"/>
      <point x="148" y="268"/>
      <point x="227" y="236"/>
      <point x="303" y="213"/>
      <point x="373" y="200"/>
      <point x="400" y="200" type="qcurve"/>
      <point x="428" y="200"/>
      <point x="481" y="216"/>
      <point x="521" y="249"/>
      <point x="545" y="300"/>
      <point x="545" y="336" type="qcurve"/>
      <point x="545" y="372"/>
      <point x="502" y="425"/>
      <point x="431" y="469"/>
      <point x="340" y="507"/>
      <point x="245" y="550"/>
      <point x="154" y="600"/>
      <point x="83" y="667"/>
      <point x="40" y="754"/>
      <point x="40" y="813" type="qcurve"/>
      <point x="40" y="894"/>
      <point x="101" y="1010"/>
      <point x="212" y="1083"/>
      <point x="368" y="1117"/>
      <point x="462" y="1117" type="qcurve"/>
      <point x="506" y="1117"/>
      <point x="595" y="1100"/>
      <point x="679" y="1073"/>
      <point x="752" y="1039"/>
      <point x="779" y="1021" type="qcurve"/>
    </contour>
  </outline>
</glyph>
<glyph name="v" format="1">
  <advance width="1100"/>
  <unicode hex="0076"/>
  <outline>
    <contour>
      <point x="462" y="700" type="line"/>
      <point x="536" y="300" type="line"/>
      <point x="608" y="700" type="line"/>
      <point x="737" y="1093" type="line"/>
      <point x="1054" y="1129" type="line"/>
      <point x="679" y="-24" type="line"/>
      <point x="362" y="5" type="line"/>
      <point x="10" y="1093" type="line"/>
      <point x="325" y="1125" type="line"/>
    </contour>
  </outline>
</glyph>
<glyph name="bar" format="1">
  <advance width="400"/>
  <unicode hex="007C"/>
  <outline>
    <contour>
      <point x="366" y="1527" type="line"/>
      <point x="366" y="-380" type="line"/>
      <point x="24" y="-380" type="line"/>
      <point x="24" y="1493" type="line"/>
    </contour>
  </outline>
</glyph>
<glyph name="exclamdown" format="1">
  <advance width="700"/>
  <unicode hex="00A1"/>
  <outline>
    <contour>
      <point x="100" y="-399" type="line"/>
      <point x="100" y="692" type="line"/>
      <point x="400" y="657" type="line"/>
      <point x="400" y="-399" type="line"/>
    </contour>
    <contour>
      <point x="103" y="964" type="qcurve"/>
      <point x="103" y="995"/>
      <point x="126" y="1050"/>
      <point x="166" y="1091"/>
      <point x="221" y="1115"/>
      <point x="252" y="1115" type="qcurve"/>
      <point x="282" y="1115"/>
      <point x="336" y="1091"/>
      <point x="375" y="1050"/>
      <point x="398" y="995"/>
      <point x="398" y="964" type="qcurve"/>
      <point x="398" y="934"/>
      <point x="375" y="880"/>
      <point x="335" y="839"/>
      <point x="280" y="816"/>
      <point x="250" y="816" type="qcurve"/>
      <point x="220" y="816"/>
      <point x="166" y="839"/>
      <point x="126" y="880"/>
      <point x="103" y="934"/>
    </contour>
  </outline>
</glyph>
<glyph name="sterling" format="1">
  <advance width="1100"/>
  <unicode hex="00A3"/>
  <outline>
    <contour>
      <point x="678" y="216" type="line"/>
      <point x="999" y="216" type="line"/>
      <point x="999" y="0" type="line"/>
      <point x="50" y="0" type="line"/>
      <point x="79" y="216" type="line"/>
      <point x="212" y="216" type="line"/>
      <point x="214" y="218"/>
      <point x="220" y="231"/>
      <point x="225" y="249" type="qcurve"/>
      <point x="233" y="277"/>
      <point x="275" y="479"/>
      <point x="302" y="665" type="qcurve"/>
      <point x="174" y="665" type="line"/>
      <point x="174" y="883" type="line"/>
      <point x="333" y="883" type="line"/>
      <point x="371" y="1150" type="line"/>
      <point x="383" y="1229"/>
      <point x="433" y="1364"/>
      <point x="521" y="1462"/>
      <point x="653" y="1517"/>
      <point x="746" y="1517" type="qcurve"/>
      <point x="800" y="1517"/>
      <point x="885" y="1504"/>
      <point x="959" y="1475"/>
      <point x="1028" y="1428"/>
      <point x="1066" y="1395" type="qcurve"/>
      <point x="936" y="1228" type="line"/>
      <point x="886" y="1273"/>
      <point x="820" y="1303"/>
      <point x="790" y="1303" type="qcurve"/>
      <point x="767" y="1303"/>
      <point x="734" y="1276"/>
      <point x="711" y="1227"/>
      <point x="696" y="1158"/>
      <point x="690" y="1116" type="qcurve"/>
      <point x="657" y="883" type="line"/>
      <point x="852" y="883" type="line"/>
      <point x="825" y="665" type="line"/>
      <point x="627" y="665" type="line"/>
      <point x="619" y="601"/>
      <point x="608" y="511"/>
      <point x="596" y="438"/>
      <point x="582" y="371"/>
      <point x="572" y="331" type="qcurve"/>
      <point x="430" y="157" type="line"/>
    </contour>
  </outline>
</glyph>
<glyph name="currency" format="1">
  <advance width="1200"/>
  <unicode hex="00A4"/>
  <outline>
    <contour>
      <point x="1103" y="249" type="line"/>
      <point x="927" y="72" type="line"/>
      <point x="761" y="238" type="line"/>
      <point x="681" y="205"/>
      <point x="586" y="205" type="qcurve"/>
      <point x="538" y="205"/>
      <point x="449" y="221"/>
      <point x="410" y="238" type="qcurve"/>
      <point x="245" y="72" type="line"/>
      <point x="68" y="249" type="line"/>
      <point x="220" y="400" type="line"/>
      <point x="163" y="496"/>
      <point x="163" y="590" type="qcurve"/>
      <point x="163" y="635"/>
      <point x="191" y="731"/>
      <point x="220" y="779" type="qcurve"/>
      <point x="68" y="930" type="line"/>
      <point x="244" y="1109" type="line"/>
      <point x="410" y="942" type="line"/>
      <point x="450" y="959"/>
      <point x="538" y="974"/>
      <point x="586" y="974" type="qcurve"/>
      <point x="633" y="974"/>
      <point x="721" y="959"/>
      <point x="761" y="942" type="qcurve"/>
      <point x="928" y="1109" type="line"/>
      <point x="1103" y="930" type="line"/>
      <point x="952" y="779" type="line"/>
      <point x="1008" y="682"/>
      <point x="1008" y="590" type="qcurve"/>
      <point x="1008" y="544"/>
      <point x="980" y="447"/>
      <point x="952" y="400" type="qcurve"/>
    </contour>
    <contour>
      <point x="421" y="590" type="qcurve"/>
      <point x="421" y="542"/>
      <point x="452" y="475"/>
      <point x="500" y="435"/>
      <point x="559" y="417"/>
      <point x="586" y="417" type="qcurve"/>
      <point x="613" y="417"/>
      <point x="671" y="435"/>
      <point x="719" y="475"/>
      <point x="750" y="542"/>
      <point x="750" y="590" type="qcurve"/>
      <point x="750" y="638"/>
      <point x="719" y="704"/>
      <point x="671" y="744"/>
      <point x="613" y="761"/>
      <point x="586" y="761" type="qcurve"/>
      <point x="559" y="761"/>
      <point x="500" y="744"/>
      <point x="452" y="704"/>
      <point x="421" y="638"/>
    </contour>
  </outline>
</glyph>
<glyph name="yen" format="1">
  <advance width="1200"/>
  <unicode hex="00A5"/>
  <outline>
    <contour>
      <point x="100" y="589" type="line"/>
      <point x="409" y="589" type="line"/>
      <point x="409" y="650" type="line"/>
      <point x="383" y="700" type="line"/>
      <point x="100" y="700" type="line"/>
      <point x="100" y="889" type="line"/>
      <point x="287" y="889" type="line"/>
      <point x="-20" y="1492" type="line"/>
      <point x="319" y="1525" type="line"/>
      <point x="511" y="1143" type="line"/>
      <point x="618" y="773" type="line"/>
      <point x="676" y="1143" type="line"/>
      <point x="858" y="1500" type="line"/>
      <point x="1193" y="1500" type="line"/>
      <point x="882" y="889" type="line"/>
      <point x="1100" y="889" type="line"/>
      <point x="1100" y="700" type="line"/>
      <point x="785" y="700" type="line"/>
      <point x="760" y="650" type="line"/>
      <point x="760" y="589" type="line"/>
      <point x="1100" y="589" type="line"/>
      <point x="1100" y="400" type="line"/>
      <point x="760" y="400" type="line"/>
      <point x="760" y="0" type="line"/>
      <point x="409" y="0" type="line"/>
      <point x="409" y="400" type="line"/>
      <point x="100" y="400" type="line"/>
    </contour>
  </outline>
</glyph>
<glyph name="brokenbar" format="1">
  <advance width="400"/>
  <unicode hex="00A6"/>
  <outline>
    <contour>
      <point x="366" y="1527" type="line"/>
      <point x="366" y="700" type="line"/>
      <point x="24" y="700" type="line"/>
      <point x="24" y="1493" type="line"/>
    </contour>
    <contour>
      <point x="366" y="362" type="line"/>
      <point x="366" y="-400" type="line"/>
      <point x="24" y="-400" type="line"/>
      <point x="24" y="362" type="line"/>
    </contour>
  </outline>
</glyph>
<glyph name="section" format="1">
  <advance width="1000"/>
  <unicode hex="00A7"/>
  <outline>
    <contour>
      <point x="778" y="1249" type="line"/>
      <point x="736" y="1272"/>
      <point x="670" y="1299"/>
      <point x="614" y="1314"/>
      <point x="568" y="1318"/>
      <point x="547" y="1318" type="qcurve"/>
      <point x="516" y="1318"/>
      <point x="460" y="1303"/>
      <point x="417" y="1269"/>
      <point x="392" y="1214"/>
      <point x="392" y="1174" type="qcurve"/>
      <point x="392" y="1135"/>
      <point x="423" y="1075"/>
      <point x="474" y="1025"/>
      <point x="541" y="980"/>
      <point x="577" y="958" type="qcurve"/>
      <point x="637" y="921"/>
      <point x="757" y="839"/>
      <point x="854" y="737"/>
      <point x="915" y="610"/>
      <point x="915" y="527" type="qcurve"/>
      <point x="915" y="479"/>
      <point x="886" y="388"/>
      <point x="834" y="312"/>
      <point x="764" y="252"/>
      <point x="723" y="234" type="qcurve"/>
      <point x="760" y="205"/>
      <point x="823" y="141"/>
      <point x="869" y="71"/>
      <point x="896" y="-5"/>
      <point x="896" y="-46" type="qcurve"/>
      <point x="896" y="-128"/>
      <point x="835" y="-259"/>
      <point x="718" y="-351"/>
      <point x="549" y="-400"/>
      <point x="441" y="-400" type="qcurve"/>
      <point x="394" y="-400"/>
      <point x="306" y="-390"/>
      <point x="219" y="-366"/>
      <point x="133" y="-328"/>
      <point x="87" y="-299" type="qcurve"/>
      <point x="193" y="-129" type="line"/>
      <point x="235" y="-152"/>
      <point x="301" y="-180"/>
      <point x="357" y="-195"/>
      <point x="403" y="-200"/>
      <point x="424" y="-200" type="qcurve"/>
      <point x="455" y="-200"/>
      <point x="511" y="-184"/>
      <point x="553" y="-149"/>
      <point x="578" y="-93"/>
      <point x="578" y="-54" type="qcurve"/>
      <point x="578" y="-15"/>
      <point x="548" y="45"/>
      <point x="497" y="96"/>
      <point x="430" y="140"/>
      <point x="394" y="163" type="qcurve"/>
      <point x="334" y="200"/>
      <point x="214" y="281"/>
      <point x="117" y="383"/>
      <point x="56" y="510"/>
      <point x="56" y="593" type="qcurve"/>
      <point x="56" y="645"/>
      <point x="86" y="733"/>
      <point x="138" y="805"/>
      <point x="207" y="862"/>
      <point x="247" y="885" type="qcurve"/>
      <point x="210" y="915"/>
      <point x="147" y="979"/>
      <point x="101" y="1049"/>
      <point x="75" y="1125"/>
      <point x="75" y="1166" type="qcurve"/>
      <point x="75" y="1248"/>
      <point x="136" y="1378"/>
      <point x="253" y="1469"/>
      <point x="422" y="1517"/>
      <point x="530" y="1517" type="qcurve"/>
      <point x="576" y="1517"/>
      <point x="664" y="1508"/>
      <point x="750" y="1485"/>
      <point x="837" y="1447"/>
      <point x="883" y="1419" type="qcurve"/>
    </contour>
    <contour>
      <point x="438" y="747" type="line"/>
      <point x="426" y="737" type="line"/>
      <point x="415" y="728"/>
      <point x="391" y="701"/>
      <point x="372" y="666"/>
      <point x="359" y="622"/>
      <point x="359" y="595" type="qcurve"/>
      <point x="359" y="561"/>
      <point x="386" y="503"/>
      <point x="429" y="452"/>
      <point x="483" y="407"/>
      <point x="511" y="387" type="qcurve"/>
      <point x="533" y="372" type="line"/>
      <point x="545" y="383" type="line"/>
      <point x="556" y="392"/>
      <point x="580" y="419"/>
      <point x="599" y="455"/>
      <point x="612" y="499"/>
      <point x="612" y="525" type="qcurve"/>
      <point x="612" y="558"/>
      <point x="585" y="616"/>
      <point x="542" y="667"/>
      <point x="488" y="711"/>
      <point x="461" y="731" type="qcurve"/>
    </contour>
  </outline>
</glyph>
<glyph name="dieresis" format="1">
  <advance width="1100"/>
  <unicode hex="00A8"/>
  <outline>
    <contour>
      <point x="224" y="1500" type="line"/>
      <point x="500" y="1500" type="line"/>
      <point x="500" y="1234" type="line"/>
      <point x="224" y="1234" type="line"/>
    </contour>
    <contour>
      <point x="624" y="1500" type="line"/>
      <point x="900" y="1500" type="line"/>
      <point x="900" y="1234" type="line"/>
      <point x="624" y="1234" type="line"/>
    </contour>
  </outline>
</glyph>
<glyph name="ordfeminine" format="1">
  <advance width="800"/>
  <unicode hex="00AA"/>
  <outline>
    <contour>
      <point x="70" y="800" type="line"/>
      <point x="530" y="800" type="line"/>
      <point x="530" y="650" type="line"/>
      <point x="70" y="650" type="line"/>
    </contour>
    <contour>
      <point x="538" y="931" type="line"/>
      <point x="369" y="931" type="line"/>
      <point x="369" y="1012" type="line"/>
      <point x="309" y="925" type="line"/>
      <point x="305" y="924"/>
      <point x="294" y="922"/>
      <point x="283" y="922" type="qcurve"/>
      <point x="240" y="922"/>
      <point x="163" y="947"/>
      <point x="105" y="994"/>
      <point x="71" y="1064"/>
      <point x="71" y="1110" type="qcurve"/>
      <point x="71" y="1142"/>
      <point x="90" y="1194"/>
      <point x="123" y="1235"/>
      <point x="167" y="1265"/>
      <point x="218" y="1284"/>
      <point x="271" y="1294"/>
      <point x="297" y="1294" type="qcurve"/>
      <point x="319" y="1294"/>
      <point x="355" y="1291"/>
      <point x="368" y="1288" type="qcurve"/>
      <point x="368" y="1308"/>
      <point x="363" y="1342"/>
      <point x="350" y="1367"/>
      <point x="328" y="1381"/>
      <point x="311" y="1381" type="qcurve"/>
      <point x="268" y="1381"/>
      <point x="190" y="1361"/>
      <point x="159" y="1350" type="qcurve"/>
      <point x="107" y="1442" type="line"/>
      <point x="146" y="1460"/>
      <point x="183" y="1470" type="qcurve"/>
      <point x="207" y="1477"/>
      <point x="273" y="1489"/>
      <point x="315" y="1489" type="qcurve"/>
      <point x="380" y="1489"/>
      <point x="463" y="1458"/>
      <point x="509" y="1400"/>
      <point x="527" y="1320"/>
      <point x="527" y="1271" type="qcurve"/>
      <point x="527" y="1033" type="line"/>
    </contour>
    <contour>
      <point x="369" y="1188" type="line"/>
      <point x="357" y="1190"/>
      <point x="328" y="1192"/>
      <point x="315" y="1192" type="qcurve"/>
      <point x="297" y="1192"/>
      <point x="263" y="1182"/>
      <point x="236" y="1162"/>
      <point x="219" y="1131"/>
      <point x="219" y="1110" type="qcurve"/>
      <point x="219" y="1093"/>
      <point x="230" y="1064"/>
      <point x="248" y="1043"/>
      <point x="270" y="1031"/>
      <point x="282" y="1031" type="qcurve"/>
      <point x="296" y="1031"/>
      <point x="323" y="1040"/>
      <point x="345" y="1053"/>
      <point x="363" y="1069"/>
      <point x="369" y="1076" type="qcurve"/>
    </contour>
  </outline>
</glyph>
<glyph name="registered" format="1">
  <advance width="1100"/>
  <unicode hex="00AE"/>
  <outline>
    <contour>
      <point x="550" y="1517" type="qcurve"/>
      <point x="647" y="1517"/>
      <point x="818" y="1443"/>
      <point x="946" y="1315"/>
      <point x="1020" y="1144"/>
      <point x="1020" y="1047" type="qcurve"/>
      <point x="1020" y="949"/>
      <point x="946" y="778"/>
      <point x="818" y="651"/>
      <point x="647" y="577"/>
      <point x="550" y="577" type="qcurve"/>
      <point x="453" y="577"/>
      <point x="282" y="651"/>
      <point x="154" y="778"/>
      <point x="80" y="949"/>
      <point x="80" y="1047" type="qcurve"/>
      <point x="80" y="1144"/>
      <point x="154" y="1315"/>
      <point x="282" y="1443"/>
      <point x="453" y="1517"/>
    </contour>
    <contour>
      <point x="550" y="701" type="qcurve"/>
      <point x="620" y="701"/>
      <point x="745" y="756"/>
      <point x="840" y="850"/>
      <point x="896" y="976"/>
      <point x="896" y="1047" type="qcurve"/>
      <point x="896" y="1119"/>
      <point x="842" y="1245"/>
      <point x="748" y="1339"/>
      <point x="622" y="1393"/>
      <point x="550" y="1393" type="qcurve"/>
      <point x="478" y="1393"/>
      <point x="352" y="1339"/>
      <point x="258" y="1245"/>
      <point x="204" y="1119"/>
      <point x="204" y="1047" type="qcurve"/>
      <point x="204" y="977"/>
      <point x="259" y="852"/>
      <point x="353" y="757"/>
      <point x="479" y="701"/>
    </contour>
    <contour>
      <point x="512" y="1174" type="line"/>
      <point x="512" y="1065" type="line"/>
      <point x="532" y="1065" type="line"/>
      <point x="554" y="1065"/>
      <point x="585" y="1080"/>
      <point x="606" y="1104"/>
      <point x="616" y="1135"/>
      <point x="616" y="1153" type="qcurve"/>
      <point x="616" y="1176"/>
      <point x="601" y="1206"/>
      <point x="578" y="1225"/>
      <point x="548" y="1232"/>
      <point x="533" y="1232" type="qcurve"/>
      <point x="527" y="1232"/>
      <point x="519" y="1232"/>
      <point x="514" y="1232"/>
      <point x="509" y="1232"/>
      <point x="506" y="1231" type="qcurve"/>
    </contour>
    <contour>
      <point x="527" y="987" type="line"/>
      <point x="523" y="991"/>
      <point x="514" y="993"/>
      <point x="512" y="993" type="qcurve"/>
      <point x="512" y="800" type="line"/>
      <point x="399" y="800" type="line"/>
      <point x="399" y="1218" type="line"/>
      <point x="387" y="1291" type="line"/>
      <point x="401" y="1292"/>
      <point x="438" y="1296"/>
      <point x="476" y="1298"/>
      <point x="512" y="1300"/>
      <point x="526" y="1300" type="qcurve"/>
      <point x="570" y="1300"/>
      <point x="642" y="1282"/>
      <point x="693" y="1246"/>
      <point x="722" y="1193"/>
      <point x="722" y="1158" type="qcurve"/>
      <point x="722" y="1122"/>
      <point x="700" y="1071"/>
      <point x="664" y="1035"/>
      <point x="616" y="1012"/>
      <point x="590" y="1004" type="qcurve"/>
      <point x="635" y="993" type="line"/>
      <point x="774" y="800" type="line"/>
      <point x="657" y="800" type="line"/>
    </contour>
  </outline>
</glyph>
<glyph name="threesuperior" format="1">
  <advance width="600"/>
  <unicode hex="00B3"/>
  <outline>
    <contour>
      <point x="130" y="1189" type="line"/>
      <point x="145" y="1199"/>
      <point x="186" y="1229"/>
      <point x="232" y="1265"/>
      <point x="281" y="1305"/>
      <point x="325" y="1346"/>
      <point x="362" y="1388"/>
      <point x="374" y="1407" type="qcurve"/>
      <point x="244" y="1370" type="line"/>
      <point x="79" y="1370" type="line"/>
      <point x="89" y="1470" type="line"/>
      <point x="510" y="1470" type="line"/>
      <point x="510" y="1383" type="line"/>
      <point x="495" y="1344"/>
      <point x="437" y="1278"/>
      <point x="401" y="1246" type="qcurve"/>
      <point x="323" y="1204" type="line"/>
      <point x="376" y="1204"/>
      <point x="462" y="1177"/>
      <point x="523" y="1126"/>
      <point x="557" y="1052"/>
      <point x="557" y="1006" type="qcurve"/>
      <point x="557" y="957"/>
      <point x="516" y="876"/>
      <point x="446" y="812"/>
      <point x="351" y="765"/>
      <point x="244" y="735"/>
      <point x="129" y="720"/>
      <point x="74" y="720" type="qcurve"/>
      <point x="74" y="820" type="line"/>
      <point x="133" y="822"/>
      <point x="245" y="849"/>
      <point x="333" y="895"/>
      <point x="386" y="961"/>
      <point x="386" y="1001" type="qcurve"/>
      <point x="386" y="1030"/>
      <point x="362" y="1070"/>
      <point x="320" y="1094"/>
      <point x="264" y="1105"/>
      <point x="233" y="1105" type="qcurve"/>
      <point x="226" y="1105"/>
      <point x="197" y="1103"/>
      <point x="166" y="1102"/>
      <point x="137" y="1100"/>
      <point x="130" y="1100" type="qcurve"/>
    </contour>
  </outline>
</glyph>
<glyph name="cedilla" format="1">
  <advance width="1100"/>
  <unicode hex="00B8"/>
  <outline>
    <contour>
      <point x="562" y="0" type="line"/>
      <point x="589" y="-20"/>
      <point x="611" y="-46" type="qcurve"/>
      <point x="630" y="-69"/>
      <point x="661" y="-132"/>
      <point x="661" y="-171" type="qcurve"/>
      <point x="661" y="-221"/>
      <point x="614" y="-307"/>
      <point x="534" y="-370"/>
      <point x="430" y="-407"/>
      <point x="373" y="-407" type="qcurve"/>
      <point x="313" y="-407"/>
      <point x="198" y="-371"/>
      <point x="150" y="-349" type="qcurve"/>
      <point x="95" y="-323"/>
      <point x="44" y="-290" type="qcurve"/>
      <point x="159" y="-131" type="line"/>
      <point x="191" y="-151"/>
      <point x="223" y="-166" type="qcurve"/>
      <point x="249" y="-179"/>
      <point x="308" y="-200"/>
      <point x="330" y="-200" type="qcurve"/>
      <point x="353" y="-200"/>
      <point x="394" y="-175"/>
      <point x="394" y="-147" type="qcurve"/>
      <point x="394" y="-126"/>
      <point x="370" y="-79"/>
      <point x="338" y="-37"/>
      <point x="307" y="-6"/>
      <point x="300" y="0" type="qcurve"/>
    </contour>
  </outline>
</glyph>
<glyph name="ordmasculine" format="1">
  <advance width="800"/>
  <unicode hex="00BA"/>
  <outline>
    <contour>
      <point x="70" y="800" type="line"/>
      <point x="530" y="800" type="line"/>
      <point x="530" y="650" type="line"/>
      <point x="70" y="650" type="line"/>
    </contour>
    <contour>
      <point x="312" y="922" type="qcurve"/>
      <point x="252" y="922"/>
      <point x="153" y="966"/>
      <point x="81" y="1042"/>
      <point x="42" y="1146"/>
      <point x="42" y="1207" type="qcurve"/>
      <point x="42" y="1268"/>
      <point x="80" y="1371"/>
      <point x="150" y="1447"/>
      <point x="250" y="1489"/>
      <point x="312" y="1489" type="qcurve"/>
      <point x="372" y="1489"/>
      <point x="471" y="1447"/>
      <point x="543" y="1371"/>
      <point x="582" y="1268"/>
      <point x="582" y="1207" type="qcurve"/>
      <point x="582" y="1146"/>
      <point x="544" y="1042"/>
      <point x="474" y="966"/>
      <point x="374" y="922"/>
    </contour>
    <contour>
      <point x="419" y="1195" type="qcurve"/>
      <point x="419" y="1229"/>
      <point x="407" y="1295"/>
      <point x="381" y="1347"/>
      <point x="339" y="1379"/>
      <point x="310" y="1379" type="qcurve"/>
      <point x="282" y="1379"/>
      <point x="242" y="1352"/>
      <point x="217" y="1306"/>
      <point x="205" y="1247"/>
      <point x="205" y="1216" type="qcurve"/>
      <point x="205" y="1182"/>
      <point x="217" y="1116"/>
      <point x="243" y="1064"/>
      <point x="284" y="1032"/>
      <point x="313" y="1032" type="qcurve"/>
      <point x="341" y="1032"/>
      <point x="381" y="1060"/>
      <point x="407" y="1106"/>
      <point x="419" y="1164"/>
    </contour>
  </outline>
</glyph>
<glyph name="onequarter" format="1">
  <advance width="1500"/>
  <unicode hex="00BC"/>
  <outline>
    <contour>
      <point x="474" y="0" type="line"/>
      <point x="289" y="0" type="line"/>
      <point x="1064" y="1500" type="line"/>
      <point x="1240" y="1500" type="line"/>
    </contour>
    <contour>
      <point x="284" y="1162" type="line"/>
      <point x="321" y="1343" type="line"/>
      <point x="207" y="1208" type="line"/>
      <point x="165" y="1171" type="line"/>
      <point x="88" y="1263" type="line"/>
      <point x="328" y="1484" type="line"/>
      <point x="449" y="1468" type="line"/>
      <point x="449" y="822" type="line"/>
      <point x="571" y="822" type="line"/>
      <point x="571" y="722" type="line"/>
      <point x="162" y="722" type="line"/>
      <point x="162" y="822" type="line"/>
      <point x="284" y="822" type="line"/>
    </contour>
    <contour>
      <point x="1398" y="188" type="line"/>
      <point x="1309" y="188" type="line"/>
      <point x="1309" y="38" type="line"/>
      <point x="1149" y="38" type="line"/>
      <point x="1149" y="188" type="line"/>
      <point x="849" y="188" type="line"/>
      <point x="849" y="288" type="line"/>
      <point x="1096" y="800" type="line"/>
      <point x="1254" y="784" type="line"/>
      <point x="1090" y="419" type="line"/>
      <point x="1003" y="288" type="line"/>
      <point x="1149" y="288" type="line"/>
      <point x="1149" y="437" type="line"/>
      <point x="1309" y="424" type="line"/>
      <point x="1309" y="288" type="line"/>
      <point x="1409" y="288" type="line"/>
    </contour>
  </outline>
</glyph>
<glyph name="onehalf" format="1">
  <advance width="1500"/>
  <unicode hex="00BD"/>
  <outline>
    <contour>
      <point x="474" y="0" type="line"/>
      <point x="289" y="0" type="line"/>
      <point x="1064" y="1500" type="line"/>
      <point x="1240" y="1500" type="line"/>
    </contour>
    <contour>
      <point x="284" y="1162" type="line"/>
      <point x="321" y="1343" type="line"/>
      <point x="207" y="1208" type="line"/>
      <point x="165" y="1171" type="line"/>
      <point x="88" y="1263" type="line"/>
      <point x="328" y="1484" type="line"/>
      <point x="449" y="1468" type="line"/>
      <point x="449" y="822" type="line"/>
      <point x="571" y="822" type="line"/>
      <point x="571" y="722" type="line"/>
      <point x="162" y="722" type="line"/>
      <point x="162" y="822" type="line"/>
      <point x="284" y="822" type="line"/>
    </contour>
    <contour>
      <point x="904" y="38" type="line"/>
      <point x="904" y="133" type="line"/>
      <point x="927" y="170"/>
      <point x="989" y="251"/>
      <point x="1054" y="330"/>
      <point x="1116" y="400"/>
      <point x="1139" y="425" type="qcurve"/>
      <point x="1166" y="454"/>
      <point x="1204" y="494"/>
      <point x="1227" y="528"/>
      <point x="1238" y="563"/>
      <point x="1238" y="586" type="qcurve"/>
      <point x="1238" y="605"/>
      <point x="1225" y="641"/>
      <point x="1202" y="670"/>
      <point x="1170" y="688"/>
      <point x="1149" y="688" type="qcurve"/>
      <point x="1108" y="688"/>
      <point x="1046" y="633"/>
      <point x="1022" y="586" type="qcurve"/>
      <point x="906" y="629" type="line"/>
      <point x="920" y="668"/>
      <point x="966" y="729"/>
      <point x="1029" y="773"/>
      <point x="1108" y="796"/>
      <point x="1157" y="796" type="qcurve"/>
      <point x="1214" y="796"/>
      <point x="1303" y="759"/>
      <point x="1364" y="698"/>
      <point x="1396" y="620"/>
      <point x="1396" y="581" type="qcurve"/>
      <point x="1396" y="546"/>
      <point x="1374" y="487"/>
      <point x="1337" y="432"/>
      <point x="1290" y="378"/>
      <point x="1265" y="348" type="qcurve"/>
      <point x="1240" y="318"/>
      <point x="1187" y="256"/>
      <point x="1138" y="200"/>
      <point x="1099" y="153"/>
      <point x="1088" y="138" type="qcurve"/>
      <point x="1409" y="138" type="line"/>
      <point x="1409" y="38" type="line"/>
    </contour>
  </outline>
</glyph>
<glyph name="threequarters" format="1">
  <advance width="1500"/>
  <unicode hex="00BE"/>
  <outline>
    <contour>
      <point x="474" y="0" type="line"/>
      <point x="289" y="0" type="line"/>
      <point x="1064" y="1500" type="line"/>
      <point x="1240" y="1500" type="line"/>
    </contour>
    <contour>
      <point x="150" y="1191" type="line"/>
      <point x="165" y="1201"/>
      <point x="206" y="1231"/>
      <point x="252" y="1267"/>
      <point x="301" y="1307"/>
      <point x="345" y="1348"/>
      <point x="382" y="1390"/>
      <point x="394" y="1409" type="qcurve"/>
      <point x="264" y="1372" type="line"/>
      <point x="99" y="1372" type="line"/>
      <point x="109" y="1472" type="line"/>
      <point x="530" y="1472" type="line"/>
      <point x="530" y="1385" type="line"/>
      <point x="515" y="1346"/>
      <point x="457" y="1280"/>
      <point x="421" y="1248" type="qcurve"/>
      <point x="343" y="1206" type="line"/>
      <point x="396" y="1206"/>
      <point x="482" y="1179"/>
      <point x="543" y="1128"/>
      <point x="577" y="1054"/>
      <point x="577" y="1008" type="qcurve"/>
      <point x="577" y="959"/>
      <point x="536" y="878"/>
      <point x="466" y="814"/>
      <point x="371" y="767"/>
      <point x="264" y="737"/>
      <point x="149" y="722"/>
      <point x="94" y="722" type="qcurve"/>
      <point x="94" y="822" type="line"/>
      <point x="153" y="824"/>
      <point x="265" y="851"/>
      <point x="353" y="897"/>
      <point x="406" y="963"/>
      <point x="406" y="1003" type="qcurve"/>
      <point x="406" y="1032"/>
      <point x="382" y="1072"/>
      <point x="340" y="1096"/>
      <point x="284" y="1107"/>
      <point x="253" y="1107" type="qcurve"/>
      <point x="246" y="1107"/>
      <point x="217" y="1105"/>
      <point x="186" y="1104"/>
      <point x="157" y="1102"/>
      <point x="150" y="1102" type="qcurve"/>
    </contour>
    <contour>
      <point x="1398" y="188" type="line"/>
      <point x="1309" y="188" type="line"/>
      <point x="1309" y="38" type="line"/>
      <point x="1149" y="38" type="line"/>
      <point x="1149" y="188" type="line"/>
      <point x="849" y="188" type="line"/>
      <point x="849" y="288" type="line"/>
      <point x="1096" y="800" type="line"/>
      <point x="1254" y="784" type="line"/>
      <point x="1090" y="419" type="line"/>
      <point x="1003" y="288" type="line"/>
      <point x="1149" y="288" type="line"/>
      <point x="1149" y="437" type="line"/>
      <point x="1309" y="424" type="line"/>
      <point x="1309" y="288" type="line"/>
      <point x="1409" y="288" type="line"/>
    </contour>
  </outline>
</glyph>
<glyph name="questiondown" format="1">
  <advance width="1100"/>
  <unicode hex="00BF"/>
  <outline>
    <contour>
      <point x="34" y="-22" type="qcurve"/>
      <point x="34" y="38"/>
      <point x="74" y="137"/>
      <point x="138" y="223"/>
      <point x="222" y="299"/>
      <point x="265" y="337" type="qcurve"/>
      <point x="294" y="362"/>
      <point x="353" y="425"/>
      <point x="400" y="505"/>
      <point x="429" y="605"/>
      <point x="429" y="668" type="qcurve"/>
      <point x="740" y="703" type="line"/>
      <point x="739" y="616"/>
      <point x="714" y="464"/>
      <point x="656" y="330"/>
      <point x="562" y="213"/>
      <point x="491" y="160" type="qcurve"/>
      <point x="469" y="141"/>
      <point x="427" y="101"/>
      <point x="395" y="56"/>
      <point x="375" y="3"/>
      <point x="375" y="-30" type="qcurve"/>
      <point x="375" y="-70"/>
      <point x="404" y="-127"/>
      <point x="453" y="-164"/>
      <point x="517" y="-181"/>
      <point x="551" y="-181" type="qcurve"/>
      <point x="577" y="-181"/>
      <point x="652" y="-164"/>
      <point x="737" y="-125"/>
      <point x="822" y="-61"/>
      <point x="856" y="-15" type="qcurve"/>
      <point x="1038" y="-166" type="line"/>
      <point x="981" y="-242"/>
      <point x="852" y="-339"/>
      <point x="718" y="-394"/>
      <point x="586" y="-415"/>
      <point x="527" y="-415" type="qcurve"/>
      <point x="432" y="-415"/>
      <point x="254" y="-368"/>
      <point x="117" y="-271"/>
      <point x="34" y="-123"/>
    </contour>
    <contour>
      <point x="720" y="965" type="qcurve"/>
      <point x="720" y="935"/>
      <point x="697" y="881"/>
      <point x="657" y="840"/>
      <point x="603" y="817"/>
      <point x="573" y="817" type="qcurve"/>
      <point x="543" y="817"/>
      <point x="488" y="840"/>
      <point x="448" y="881"/>
      <point x="425" y="935"/>
      <point x="425" y="965" type="qcurve"/>
      <point x="425" y="996"/>
      <point x="448" y="1051"/>
      <point x="487" y="1092"/>
      <point x="541" y="1116"/>
      <point x="571" y="1116" type="qcurve"/>
      <point x="602" y="1116"/>
      <point x="657" y="1092"/>
      <point x="697" y="1051"/>
      <point x="720" y="996"/>
    </contour>
  </outline>
</glyph>
<glyph name="AE" format="1">
  <advance width="1700"/>
  <unicode hex="00C6"/>
  <outline>
    <contour>
      <point x="1663" y="228" type="line"/>
      <point x="1635" y="0" type="line"/>
      <point x="682" y="0" type="line"/>
      <point x="700" y="231" type="line"/>
      <point x="700" y="427" type="line"/>
      <point x="457" y="427" type="line"/>
      <point x="286" y="0" type="line"/>
      <point x="-22" y="0" type="line"/>
      <point x="493" y="1280" type="line"/>
      <point x="542" y="1500" type="line"/>
      <point x="1626" y="1500" type="line"/>
      <point x="1626" y="1272" type="line"/>
      <point x="1030" y="1272" type="line"/>
      <point x="1047" y="1133" type="line"/>
      <point x="1047" y="916" type="line"/>
      <point x="1558" y="916" type="line"/>
      <point x="1558" y="703" type="line"/>
      <point x="1047" y="703" type="line"/>
      <point x="1047" y="360" type="line"/>
      <point x="1039" y="228" type="line"/>
    </contour>
    <contour>
      <point x="700" y="645" type="line"/>
      <point x="700" y="1200" type="line"/>
      <point x="650" y="939" type="line"/>
      <point x="545" y="645" type="line"/>
    </contour>
  </outline>
</glyph>
<glyph name="multiply" format="1">
  <advance width="1600"/>
  <unicode hex="00D7"/>
  <outline>
    <contour>
      <point x="469" y="119" type="line"/>
      <point x="282" y="269" type="line"/>
      <point x="648" y="633" type="line"/>
      <point x="282" y="998" type="line"/>
      <point x="469" y="1149" type="line"/>
      <point x="770" y="847" type="line"/>
      <point x="840" y="729" type="line"/>
      <point x="862" y="847" type="line"/>
      <point x="1162" y="1149" type="line"/>
      <point x="1349" y="998" type="line"/>
      <point x="984" y="633" type="line"/>
      <point x="1349" y="269" type="line"/>
      <point x="1162" y="119" type="line"/>
      <point x="862" y="419" type="line"/>
      <point x="792" y="538" type="line"/>
      <point x="770" y="419" type="line"/>
    </contour>
  </outline>
</glyph>
<glyph name="ae" format="1">
  <advance width="1700"/>
  <unicode hex="00E6"/>
  <outline>
    <contour>
      <point x="1588" y="632" type="qcurve"/>
      <point x="1588" y="605"/>
      <point x="1582" y="517"/>
      <point x="1576" y="466" type="qcurve"/>
      <point x="912" y="466" type="line"/>
      <point x="916" y="412"/>
      <point x="960" y="315"/>
      <point x="1031" y="243"/>
      <point x="1122" y="200"/>
      <point x="1175" y="200" type="qcurve"/>
      <point x="1244" y="200"/>
      <point x="1362" y="252"/>
      <point x="1418" y="292" type="qcurve"/>
      <point x="1571" y="157" type="line"/>
      <point x="1535" y="119"/>
      <point x="1451" y="55"/>
      <point x="1349" y="9"/>
      <point x="1226" y="-17"/>
      <point x="1151" y="-17" type="qcurve"/>
      <point x="1115" y="-17"/>
      <point x="1036" y="-8"/>
      <point x="959" y="10"/>
      <point x="889" y="37"/>
      <point x="862" y="55" type="qcurve"/>
      <point x="799" y="200" type="line"/>
      <point x="780" y="114" type="line"/>
      <point x="756" y="96"/>
      <point x="686" y="51"/>
      <point x="598" y="11"/>
      <point x="497" y="-17"/>
      <point x="443" y="-17" type="qcurve"/>
      <point x="358" y="-17"/>
      <point x="207" y="32"/>
      <point x="94" y="127"/>
      <point x="28" y="267"/>
      <point x="28" y="358" type="qcurve"/>
      <point x="28" y="454"/>
      <point x="108" y="593"/>
      <point x="236" y="683"/>
      <point x="393" y="726"/>
      <point x="470" y="726" type="qcurve"/>
      <point x="513" y="726"/>
      <point x="585" y="719"/>
      <point x="614" y="714" type="qcurve"/>
      <point x="613" y="754"/>
      <point x="602" y="822"/>
      <point x="577" y="872"/>
      <point x="533" y="900"/>
      <point x="498" y="900" type="qcurve"/>
      <point x="439" y="900"/>
      <point x="331" y="880"/>
      <point x="289" y="868" type="qcurve"/>
      <point x="240" y="854"/>
      <point x="196" y="837" type="qcurve"/>
      <point x="92" y="1021" type="line"/>
      <point x="149" y="1048"/>
      <point x="216" y="1069" type="qcurve"/>
      <point x="273" y="1087"/>
      <point x="423" y="1117"/>
      <point x="507" y="1117" type="qcurve"/>
      <point x="622" y="1117"/>
      <point x="780" y="1063"/>
      <point x="829" y="1019" type="qcurve"/>
      <point x="886" y="1061"/>
      <point x="1032" y="1116"/>
      <point x="1127" y="1116" type="qcurve"/>
      <point x="1247" y="1116"/>
      <point x="1421" y="1046"/>
      <point x="1534" y="918"/>
      <point x="1588" y="740"/>
    </contour>
    <contour>
      <point x="615" y="516" type="line"/>
      <point x="592" y="519"/>
      <point x="537" y="523"/>
      <point x="507" y="523" type="qcurve"/>
      <point x="471" y="523"/>
      <point x="402" y="503"/>
      <point x="348" y="463"/>
      <point x="314" y="401"/>
      <point x="314" y="359" type="qcurve"/>
      <point x="314" y="325"/>
      <point x="337" y="266"/>
      <point x="375" y="223"/>
      <point x="424" y="198"/>
      <point x="451" y="198" type="qcurve"/>
      <point x="483" y="198"/>
      <point x="541" y="226"/>
      <point x="564" y="243" type="qcurve"/>
      <point x="590" y="263"/>
      <point x="615" y="289" type="qcurve"/>
    </contour>
    <contour>
      <point x="1036" y="671" type="line"/>
      <point x="1319" y="671" type="line"/>
      <point x="1319" y="716"/>
      <point x="1299" y="800"/>
      <point x="1257" y="864"/>
      <point x="1189" y="903"/>
      <point x="1141" y="903" type="qcurve"/>
      <point x="1099" y="903"/>
      <point x="1036" y="873"/>
      <point x="991" y="829"/>
      <point x="962" y="777"/>
      <point x="954" y="756" type="qcurve"/>
      <point x="863" y="653" type="line"/>
    </contour>
  </outline>
</glyph>
<glyph name="icircumflex" format="1">
  <advance width="600"/>
  <unicode hex="00EE"/>
  <outline>
    <contour>
      <point x="448" y="0" type="line"/>
      <point x="122" y="0" type="line"/>
      <point x="122" y="1052" type="line"/>
      <point x="448" y="1084" type="line"/>
    </contour>
    <contour>
      <point x="639" y="1257" type="line"/>
      <point x="424" y="1257" type="line"/>
      <point x="354" y="1360" type="line"/>
      <point x="324" y="1487" type="line"/>
      <point x="294" y="1360" type="line"/>
      <point x="213" y="1257" type="line"/>
      <point x="-17" y="1257" type="line"/>
      <point x="156" y="1532" type="line"/>
      <point x="452" y="1561" type="line"/>
    </contour>
  </outline>
</glyph>
<glyph name="idieresis" format="1">
  <advance width="600"/>
  <unicode hex="00EF"/>
  <outline>
    <contour>
      <point x="448" y="0" type="line"/>
      <point x="122" y="0" type="line"/>
      <point x="122" y="1052" type="line"/>
      <point x="448" y="1084" type="line"/>
    </contour>
    <contour>
      <point x="-46" y="1537" type="line"/>
      <point x="230" y="1537" type="line"/>
      <point x="230" y="1271" type="line"/>
      <point x="-46" y="1271" type="line"/>
    </contour>
    <contour>
      <point x="354" y="1537" type="line"/>
      <point x="630" y="1537" type="line"/>
      <point x="630" y="1271" type="line"/>
      <point x="354" y="1271" type="line"/>
    </contour>
  </outline>
</glyph>
<glyph name="thorn" format="1">
  <advance width="1200"/>
  <unicode hex="00FE"/>
  <outline>
    <contour>
      <point x="815" y="528" type="qcurve"/>
      <point x="815" y="596"/>
      <point x="791" y="728"/>
      <point x="738" y="833"/>
      <point x="655" y="897"/>
      <point x="596" y="897" type="qcurve"/>
      <point x="541" y="897"/>
      <point x="461" y="842"/>
      <point x="410" y="750"/>
      <point x="386" y="633"/>
      <point x="386" y="571" type="qcurve"/>
      <point x="386" y="502"/>
      <point x="410" y="370"/>
      <point x="463" y="267"/>
      <point x="545" y="203"/>
      <point x="603" y="203" type="qcurve"/>
      <point x="658" y="203"/>
      <point x="738" y="258"/>
      <point x="790" y="350"/>
      <point x="815" y="466"/>
    </contour>
    <contour>
      <point x="402" y="1527" type="line"/>
      <point x="402" y="1201" type="line"/>
      <point x="320" y="1030" type="line"/>
      <point x="501" y="1109" type="line"/>
      <point x="525" y="1113"/>
      <point x="574" y="1117"/>
      <point x="600" y="1117" type="qcurve"/>
      <point x="720" y="1117"/>
      <point x="919" y="1032"/>
      <point x="1062" y="881"/>
      <point x="1141" y="674"/>
      <point x="1141" y="553" type="qcurve"/>
      <point x="1141" y="431"/>
      <point x="1065" y="223"/>
      <point x="924" y="70"/>
      <point x="724" y="-17"/>
      <point x="600" y="-17" type="qcurve"/>
      <point x="574" y="-17"/>
      <point x="525" y="-13"/>
      <point x="501" y="-9" type="qcurve"/>
      <point x="320" y="75" type="line"/>
      <point x="402" y="-99" type="line"/>
      <point x="402" y="-380" type="line"/>
      <point x="60" y="-380" type="line"/>
      <point x="60" y="1493" type="line"/>
    </contour>
  </outline>
</glyph>
<glyph name="OE" format="1">
  <advance width="2000"/>
  <unicode hex="0152"/>
  <outline>
    <contour>
      <point x="915" y="0" type="line"/>
      <point x="925" y="70" type="line"/>
      <point x="799" y="-17" type="line"/>
      <point x="626" y="-17"/>
      <point x="354" y="99"/>
      <point x="165" y="304"/>
      <point x="66" y="585"/>
      <point x="66" y="750" type="qcurve"/>
      <point x="66" y="915"/>
      <point x="162" y="1196"/>
      <point x="348" y="1401"/>
      <point x="621" y="1517"/>
      <point x="798" y="1517" type="qcurve"/>
      <point x="925" y="1430" type="line"/>
      <point x="915" y="1500" type="line"/>
      <point x="1818" y="1500" type="line"/>
      <point x="1818" y="1272" type="line"/>
      <point x="1224" y="1272" type="line"/>
      <point x="1239" y="1134" type="line"/>
      <point x="1239" y="916" type="line"/>
      <point x="1752" y="916" type="line"/>
      <point x="1752" y="703" type="line"/>
      <point x="1239" y="703" type="line"/>
      <point x="1239" y="360" type="line"/>
      <point x="1232" y="228" type="line"/>
      <point x="1855" y="228" type="line"/>
      <point x="1828" y="0" type="line"/>
    </contour>
    <contour>
      <point x="789" y="221" type="qcurve"/>
      <point x="801" y="221"/>
      <point x="842" y="223"/>
      <point x="886" y="226"/>
      <point x="927" y="231"/>
      <point x="939" y="234" type="qcurve"/>
      <point x="939" y="1261" type="line"/>
      <point x="928" y="1265"/>
      <point x="887" y="1272"/>
      <point x="840" y="1276"/>
      <point x="794" y="1279"/>
      <point x="778" y="1279" type="qcurve"/>
      <point x="681" y="1279"/>
      <point x="544" y="1195"/>
      <point x="456" y="1056"/>
      <point x="415" y="877"/>
      <point x="415" y="783" type="qcurve"/>
      <point x="415" y="675"/>
      <point x="456" y="473"/>
      <point x="546" y="316"/>
      <point x="688" y="221"/>
    </contour>
  </outline>
</glyph>
<glyph name="circumflex" format="1">
  <advance width="1100"/>
  <unicode hex="02C6"/>
  <outline>
    <contour>
      <point x="814" y="1220" type="line"/>
      <point x="599" y="1220" type="line"/>
      <point x="529" y="1323" type="line"/>
      <point x="499" y="1450" type="line"/>
      <point x="469" y="1323" type="line"/>
      <point x="388" y="1220" type="line"/>
      <point x="158" y="1220" type="line"/>
      <point x="331" y="1495" type="line"/>
      <point x="627" y="1524" type="line"/>
    </contour>
  </outline>
</glyph>
<glyph name="caron" format="1">
  <advance width="1100"/>
  <unicode hex="02C7"/>
  <outline>
    <contour>
      <point x="627" y="1215" type="line"/>
      <point x="331" y="1244" type="line"/>
      <point x="158" y="1519" type="line"/>
      <point x="388" y="1519" type="line"/>
      <point x="463" y="1426" type="line"/>
      <point x="499" y="1299" type="line"/>
      <point x="533" y="1426" type="line"/>
      <point x="609" y="1519" type="line"/>
      <point x="814" y="1519" type="line"/>
    </contour>
  </outline>
</glyph>
<glyph name="breve" format="1">
  <advance width="1100"/>
  <unicode hex="02D8"/>
  <outline>
    <contour>
      <point x="366" y="1519" type="line"/>
      <point x="368" y="1488"/>
      <point x="381" y="1464" type="qcurve"/>
      <point x="392" y="1444"/>
      <point x="439" y="1410"/>
      <point x="483" y="1410" type="qcurve"/>
      <point x="527" y="1410"/>
      <point x="575" y="1444"/>
      <point x="588" y="1464" type="qcurve"/>
      <point x="602" y="1488"/>
      <point x="607" y="1519" type="qcurve"/>
      <point x="828" y="1519" type="line"/>
      <point x="828" y="1469" type="line"/>
      <point x="828" y="1446"/>
      <point x="790" y="1374"/>
      <point x="708" y="1304"/>
      <point x="576" y="1254"/>
      <point x="483" y="1254" type="qcurve"/>
      <point x="390" y="1254"/>
      <point x="260" y="1304"/>
      <point x="180" y="1373"/>
      <point x="144" y="1445"/>
      <point x="144" y="1468" type="qcurve"/>
      <point x="144" y="1519" type="line"/>
    </contour>
  </outline>
</glyph>
<glyph name="tilde" format="1">
  <advance width="1100"/>
  <unicode hex="02DC"/>
  <outline>
    <contour>
      <point x="118" y="1307" type="line"/>
      <point x="122" y="1347"/>
      <point x="154" y="1438"/>
      <point x="214" y="1514"/>
      <point x="306" y="1564"/>
      <point x="369" y="1564" type="qcurve"/>
      <point x="418" y="1564"/>
      <point x="485" y="1539"/>
      <point x="539" y="1509"/>
      <point x="588" y="1484"/>
      <point x="619" y="1484" type="qcurve"/>
      <point x="640" y="1484"/>
      <point x="668" y="1498"/>
      <point x="687" y="1522"/>
      <point x="697" y="1554"/>
      <point x="700" y="1572" type="qcurve"/>
      <point x="867" y="1562" type="line"/>
      <point x="864" y="1518"/>
      <point x="836" y="1425"/>
      <point x="779" y="1349"/>
      <point x="689" y="1300"/>
      <point x="622" y="1300" type="qcurve"/>
      <point x="576" y="1300"/>
      <point x="513" y="1325"/>
      <point x="461" y="1355"/>
      <point x="408" y="1380"/>
      <point x="373" y="1380" type="qcurve"/>
      <point x="355" y="1380"/>
      <point x="331" y="1366"/>
      <point x="314" y="1344"/>
      <point x="304" y="1315"/>
      <point x="300" y="1300" type="qcurve"/>
    </contour>
  </outline>
</glyph>
<glyph name="hungarumlaut" format="1">
  <advance width="1100"/>
  <unicode hex="02DD"/>
  <outline>
    <contour>
      <point x="336" y="1496" type="line"/>
      <point x="667" y="1518" type="line"/>
      <point x="385" y="1117" type="line"/>
      <point x="156" y="1117" type="line"/>
    </contour>
    <contour>
      <point x="699" y="1496" type="line"/>
      <point x="1030" y="1518" type="line"/>
      <point x="748" y="1117" type="line"/>
      <point x="519" y="1117" type="line"/>
    </contour>
  </outline>
</glyph>
<glyph name="Gamma" format="1">
  <advance width="1100"/>
  <unicode hex="0393"/>
  <outline>
    <contour>
      <point x="471" y="1131" type="line"/>
      <point x="471" y="0" type="line"/>
      <point x="129" y="0" type="line"/>
      <point x="129" y="1269" type="line"/>
      <point x="110" y="1500" type="line"/>
      <point x="1059" y="1500" type="line"/>
      <point x="1059" y="1282" type="line"/>
      <point x="459" y="1282" type="line"/>
    </contour>
  </outline>
</glyph>
<glyph name="Lambda" format="1">
  <advance width="1300"/>
  <unicode hex="039B"/>
  <outline>
    <contour>
      <point x="-16" y="1" type="line"/>
      <point x="384" y="1267" type="line"/>
      <point x="423" y="1500" type="line"/>
      <point x="803" y="1526" type="line"/>
      <point x="1299" y="0" type="line"/>
      <point x="960" y="0" type="line"/>
      <point x="715" y="801" type="line"/>
      <point x="621" y="1241" type="line"/>
      <point x="552" y="801" type="line"/>
      <point x="304" y="1" type="line"/>
    </contour>
  </outline>
</glyph>
<glyph name="Phi" format="1">
  <advance width="1400"/>
  <unicode hex="03A6"/>
  <outline>
    <contour>
      <point x="510" y="204" type="line"/>
      <point x="413" y="226"/>
      <point x="232" y="314"/>
      <point x="92" y="449"/>
      <point x="8" y="633"/>
      <point x="8" y="750" type="qcurve"/>
      <point x="8" y="862"/>
      <point x="86" y="1044"/>
      <point x="222" y="1181"/>
      <point x="405" y="1273"/>
      <point x="510" y="1296" type="qcurve"/>
      <point x="510" y="1493" type="line"/>
      <point x="851" y="1527" type="line"/>
      <point x="851" y="1296" type="line"/>
      <point x="948" y="1276"/>
      <point x="1130" y="1187"/>
      <point x="1271" y="1050"/>
      <point x="1356" y="866"/>
      <point x="1356" y="750" type="qcurve"/>
      <point x="1356" y="637"/>
      <point x="1277" y="455"/>
      <point x="1140" y="317"/>
      <point x="956" y="226"/>
      <point x="851" y="204" type="qcurve"/>
      <point x="851" y="0" type="line"/>
      <point x="510" y="0" type="line"/>
    </contour>
    <contour>
      <point x="1054" y="750" type="qcurve"/>
      <point x="1054" y="811"/>
      <point x="1020" y="916"/>
      <point x="964" y="1000"/>
      <point x="890" y="1060"/>
      <point x="851" y="1076" type="qcurve"/>
      <point x="851" y="423" type="line"/>
      <point x="890" y="439"/>
      <point x="963" y="500"/>
      <point x="1020" y="584"/>
      <point x="1054" y="689"/>
    </contour>
    <contour>
      <point x="309" y="730" type="qcurve"/>
      <point x="309" y="669"/>
      <point x="343" y="570"/>
      <point x="399" y="494"/>
      <point x="471" y="439"/>
      <point x="510" y="423" type="qcurve"/>
      <point x="510" y="1076" type="line"/>
      <point x="471" y="1060"/>
      <point x="399" y="993"/>
      <point x="343" y="902"/>
      <point x="309" y="791"/>
    </contour>
  </outline>
</glyph>
<glyph name="beta" format="1">
  <advance width="1200"/>
  <unicode hex="03B2"/>
  <outline>
    <contour>
      <point x="602" y="-17" type="qcurve"/>
      <point x="567" y="-17"/>
      <point x="499" y="-11"/>
      <point x="470" y="-7" type="qcurve"/>
      <point x="470" y="-527" type="line"/>
      <point x="134" y="-500" type="line"/>
      <point x="134" y="1101" type="line"/>
      <point x="134" y="1207"/>
      <point x="208" y="1364"/>
      <point x="338" y="1467"/>
      <point x="518" y="1517"/>
      <point x="623" y="1517" type="qcurve"/>
      <point x="711" y="1517"/>
      <point x="869" y="1470"/>
      <point x="989" y="1378"/>
      <point x="1059" y="1243"/>
      <point x="1059" y="1155" type="qcurve"/>
      <point x="1059" y="1110"/>
      <point x="1040" y="1028"/>
      <point x="1007" y="956"/>
      <point x="963" y="895"/>
      <point x="938" y="871" type="qcurve"/>
      <point x="734" y="809" type="line"/>
      <point x="926" y="784" type="line"/>
      <point x="964" y="767"/>
      <point x="1027" y="726"/>
      <point x="1050" y="701" type="qcurve"/>
      <point x="1073" y="677"/>
      <point x="1110" y="628"/>
      <point x="1135" y="571"/>
      <point x="1149" y="503"/>
      <point x="1149" y="460" type="qcurve"/>
      <point x="1149" y="413"/>
      <point x="1130" y="305"/>
      <point x="1083" y="199"/>
      <point x="1004" y="102"/>
      <point x="882" y="27"/>
      <point x="714" y="-17"/>
    </contour>
    <contour>
      <point x="461" y="211" type="line"/>
      <point x="485" y="199"/>
      <point x="547" y="183"/>
      <point x="576" y="183" type="qcurve"/>
      <point x="630" y="183"/>
      <point x="723" y="219"/>
      <point x="792" y="288"/>
      <point x="832" y="388"/>
      <point x="832" y="451" type="qcurve"/>
      <point x="832" y="572"/>
      <point x="721" y="700"/>
      <point x="600" y="700" type="qcurve"/>
      <point x="510" y="900" type="line"/>
      <point x="540" y="902"/>
      <point x="622" y="922"/>
      <point x="697" y="974"/>
      <point x="750" y="1064"/>
      <point x="750" y="1135" type="qcurve"/>
      <point x="750" y="1170"/>
      <point x="726" y="1236"/>
      <point x="686" y="1287"/>
      <point x="631" y="1317"/>
      <point x="600" y="1317" type="qcurve"/>
      <point x="570" y="1317"/>
      <point x="520" y="1295"/>
      <point x="482" y="1252"/>
      <point x="461" y="1189"/>
      <point x="461" y="1147" type="qcurve"/>
    </contour>
  </outline>
</glyph>
<glyph name="gamma" format="1">
  <advance width="1100"/>
  <unicode hex="03B3"/>
  <outline>
    <contour>
      <point x="-56" y="1116" type="line"/>
      <point x="1" y="1116"/>
      <point x="122" y="1108"/>
      <point x="231" y="1071"/>
      <point x="321" y="995"/>
      <point x="346" y="927" type="qcurve"/>
      <point x="451" y="641" type="line"/>
      <point x="531" y="220" type="line"/>
      <point x="610" y="643" type="line"/>
      <point x="778" y="1095" type="line"/>
      <point x="1088" y="1124" type="line"/>
      <point x="692" y="21" type="line"/>
      <point x="692" y="-500" type="line"/>
      <point x="364" y="-500" type="line"/>
      <point x="364" y="-7" type="line"/>
      <point x="58" y="834" type="line"/>
      <point x="47" y="864"/>
      <point x="9" y="899"/>
      <point x="-10" y="907" type="qcurve"/>
      <point x="-32" y="917"/>
      <point x="-56" y="920" type="qcurve"/>
    </contour>
  </outline>
</glyph>
<glyph name="eta" format="1">
  <advance width="1200"/>
  <unicode hex="03B7"/>
  <outline>
    <contour>
      <point x="458" y="0" type="line"/>
      <point x="132" y="0" type="line"/>
      <point x="132" y="1093" type="line"/>
      <point x="458" y="1126" type="line"/>
      <point x="458" y="1067" type="line"/>
      <point x="507" y="1087"/>
      <point x="625" y="1116"/>
      <point x="687" y="1116" type="qcurve"/>
      <point x="782" y="1116"/>
      <point x="912" y="1063"/>
      <point x="992" y="964"/>
      <point x="1027" y="823"/>
      <point x="1027" y="736" type="qcurve"/>
      <point x="1027" y="-500" type="line"/>
      <point x="701" y="-500" type="line"/>
      <point x="701" y="761" type="line"/>
      <point x="701" y="843"/>
      <point x="670" y="917"/>
      <point x="626" y="917" type="qcurve"/>
      <point x="609" y="917"/>
      <point x="568" y="904"/>
      <point x="524" y="883"/>
      <point x="479" y="855"/>
      <point x="458" y="841" type="qcurve"/>
    </contour>
  </outline>
</glyph>
<glyph name="theta" format="1">
  <advance width="1200"/>
  <unicode hex="03B8"/>
  <outline>
    <contour>
      <point x="599" y="-17" type="qcurve"/>
      <point x="499" y="-17"/>
      <point x="341" y="48"/>
      <point x="221" y="161"/>
      <point x="136" y="311"/>
      <point x="83" y="481"/>
      <point x="58" y="660"/>
      <point x="58" y="746" type="qcurve"/>
      <point x="58" y="832"/>
      <point x="82" y="1013"/>
      <point x="136" y="1184"/>
      <point x="220" y="1337"/>
      <point x="341" y="1451"/>
      <point x="499" y="1517"/>
      <point x="599" y="1517" type="qcurve"/>
      <point x="699" y="1517"/>
      <point x="857" y="1451"/>
      <point x="977" y="1337"/>
      <point x="1061" y="1184"/>
      <point x="1115" y="1013"/>
      <point x="1139" y="832"/>
      <point x="1139" y="746" type="qcurve"/>
      <point x="1139" y="660"/>
      <point x="1115" y="481"/>
      <point x="1061" y="311"/>
      <point x="977" y="161"/>
      <point x="857" y="49"/>
      <point x="699" y="-17"/>
    </contour>
    <contour>
      <point x="828" y="845" type="line"/>
      <point x="824" y="894"/>
      <point x="806" y="998"/>
      <point x="779" y="1097"/>
      <point x="741" y="1185"/>
      <point x="693" y="1251"/>
      <point x="634" y="1290"/>
      <point x="599" y="1290" type="qcurve"/>
      <point x="564" y="1290"/>
      <point x="504" y="1251"/>
      <point x="456" y="1185"/>
      <point x="418" y="1097"/>
      <point x="391" y="998"/>
      <point x="374" y="894"/>
      <point x="370" y="845" type="qcurve"/>
    </contour>
    <contour>
      <point x="370" y="651" type="line"/>
      <point x="374" y="602"/>
      <point x="392" y="499"/>
      <point x="420" y="401"/>
      <point x="457" y="314"/>
      <point x="505" y="248"/>
      <point x="564" y="210"/>
      <point x="599" y="210" type="qcurve"/>
      <point x="646" y="210"/>
      <point x="721" y="285"/>
      <point x="778" y="408"/>
      <point x="815" y="567"/>
      <point x="825" y="651" type="qcurve"/>
    </contour>
  </outline>
</glyph>
<glyph name="iota" format="1">
  <advance width="700"/>
  <unicode hex="03B9"/>
  <outline>
    <contour>
      <point x="125" y="874" type="line"/>
      <point x="104" y="1093" type="line"/>
      <point x="452" y="1125" type="line"/>
      <point x="452" y="400" type="line"/>
      <point x="452" y="362"/>
      <point x="453" y="289"/>
      <point x="462" y="231"/>
      <point x="482" y="195"/>
      <point x="500" y="195" type="qcurve"/>
      <point x="544" y="195"/>
      <point x="575" y="209" type="qcurve"/>
      <point x="671" y="35" type="line"/>
      <point x="657" y="26"/>
      <point x="613" y="7"/>
      <point x="561" y="-8"/>
      <point x="505" y="-17"/>
      <point x="480" y="-17" type="qcurve"/>
      <point x="360" y="-17"/>
      <point x="219" y="49"/>
      <point x="146" y="165"/>
      <point x="125" y="322"/>
      <point x="125" y="413" type="qcurve"/>
    </contour>
  </outline>
</glyph>
<glyph name="kappa" format="1">
  <advance width="1000"/>
  <unicode hex="03BA"/>
  <outline>
    <contour>
      <point x="132" y="0" type="line"/>
      <point x="132" y="890" type="line"/>
      <point x="110" y="1093" type="line"/>
      <point x="429" y="1125" type="line"/>
      <point x="429" y="774" type="line"/>
      <point x="669" y="1095" type="line"/>
      <point x="991" y="1133" type="line"/>
      <point x="620" y="670" type="line"/>
      <point x="446" y="600" type="line"/>
      <point x="620" y="530" type="line"/>
      <point x="1027" y="0" type="line"/>
      <point x="718" y="0" type="line"/>
      <point x="429" y="405" type="line"/>
      <point x="429" y="0" type="line"/>
    </contour>
  </outline>
</glyph>
<glyph name="mugreek" format="1">
  <advance width="1200"/>
  <unicode hex="03BC"/>
  <outline>
    <contour>
      <point x="700" y="27" type="line"/>
      <point x="668" y="8"/>
      <point x="592" y="-17"/>
      <point x="545" y="-17" type="qcurve"/>
      <point x="525" y="-17"/>
      <point x="467" y="-7"/>
      <point x="408" y="10"/>
      <point x="358" y="30"/>
      <point x="346" y="40" type="qcurve"/>
      <point x="411" y="-166" type="line"/>
      <point x="411" y="-500" type="line"/>
      <point x="100" y="-500" type="line"/>
      <point x="100" y="1093" type="line"/>
      <point x="411" y="1125" type="line"/>
      <point x="411" y="345" type="line"/>
      <point x="411" y="307"/>
      <point x="436" y="247"/>
      <point x="477" y="205"/>
      <point x="528" y="183"/>
      <point x="555" y="183" type="qcurve"/>
      <point x="598" y="183"/>
      <point x="671" y="223"/>
      <point x="700" y="251" type="qcurve"/>
      <point x="700" y="1093" type="line"/>
      <point x="1011" y="1125" type="line"/>
      <point x="1011" y="0" type="line"/>
      <point x="700" y="0" type="line"/>
    </contour>
  </outline>
</glyph>
<glyph name="xi" format="1">
  <advance width="1000"/>
  <unicode hex="03BE"/>
  <outline>
    <contour>
      <point x="354" y="33" type="qcurve"/>
      <point x="304" y="61"/>
      <point x="197" y="142"/>
      <point x="109" y="246"/>
      <point x="51" y="372"/>
      <point x="51" y="445" type="qcurve"/>
      <point x="51" y="512"/>
      <point x="81" y="615"/>
      <point x="134" y="695"/>
      <point x="204" y="754"/>
      <point x="244" y="777" type="qcurve"/>
      <point x="404" y="790" type="line"/>
      <point x="242" y="855" type="line"/>
      <point x="216" y="880"/>
      <point x="169" y="934"/>
      <point x="133" y="995"/>
      <point x="112" y="1062"/>
      <point x="112" y="1100" type="qcurve"/>
      <point x="112" y="1174"/>
      <point x="168" y="1309"/>
      <point x="238" y="1360" type="qcurve"/>
      <point x="194" y="1372"/>
      <point x="124" y="1408"/>
      <point x="76" y="1462"/>
      <point x="50" y="1534"/>
      <point x="50" y="1581" type="qcurve"/>
      <point x="381" y="1581" type="line"/>
      <point x="381" y="1574"/>
      <point x="385" y="1547"/>
      <point x="396" y="1520"/>
      <point x="413" y="1500"/>
      <point x="426" y="1500" type="qcurve"/>
      <point x="955" y="1500" type="line"/>
      <point x="926" y="1302" type="line"/>
      <point x="611" y="1302" type="line"/>
      <point x="588" y="1302"/>
      <point x="518" y="1281"/>
      <point x="452" y="1236"/>
      <point x="404" y="1162"/>
      <point x="404" y="1110" type="qcurve"/>
      <point x="404" y="1057"/>
      <point x="441" y="982"/>
      <point x="495" y="934"/>
      <point x="555" y="911"/>
      <point x="578" y="911" type="qcurve"/>
      <point x="872" y="911" type="line"/>
      <point x="837" y="700" type="line"/>
      <point x="790" y="700"/>
      <point x="683" y="694"/>
      <point x="578" y="676"/>
      <point x="480" y="643"/>
      <point x="406" y="588"/>
      <point x="361" y="509"/>
      <point x="361" y="454" type="qcurve"/>
      <point x="361" y="425"/>
      <point x="390" y="362"/>
      <point x="438" y="301"/>
      <point x="502" y="245"/>
      <point x="537" y="223" type="qcurve"/>
      <point x="636" y="161"/>
      <point x="782" y="74"/>
      <point x="879" y="-8"/>
      <point x="927" y="-98"/>
      <point x="927" y="-162" type="qcurve"/>
      <point x="927" y="-212"/>
      <point x="872" y="-311"/>
      <point x="778" y="-402"/>
      <point x="649" y="-484"/>
      <point x="576" y="-517" type="qcurve"/>
      <point x="442" y="-324" type="line"/>
      <point x="473" y="-308"/>
      <point x="529" y="-270"/>
      <point x="571" y="-229"/>
      <point x="596" y="-189"/>
      <point x="596" y="-170" type="qcurve"/>
      <point x="596" y="-133"/>
      <point x="543" y="-74"/>
      <point x="467" y="-24"/>
      <point x="384" y="16"/>
    </contour>
  </outline>
</glyph>
<glyph name="pi" format="1">
  <advance width="1300"/>
  <unicode hex="03C0"/>
  <outline>
    <contour>
      <point x="1009" y="900" type="line"/>
      <point x="1009" y="400" type="line"/>
      <point x="1009" y="334"/>
      <point x="1017" y="249"/>
      <point x="1031" y="201"/>
      <point x="1052" y="183"/>
      <point x="1066" y="183" type="qcurve"/>
      <point x="1083" y="183"/>
      <point x="1115" y="193"/>
      <point x="1129" y="200" type="qcurve"/>
      <point x="1145" y="208"/>
      <point x="1159" y="218" type="qcurve"/>
      <point x="1266" y="43" type="line"/>
      <point x="1250" y="35"/>
      <point x="1205" y="14"/>
      <point x="1150" y="-4"/>
      <point x="1084" y="-17"/>
      <point x="1046" y="-17" type="qcurve"/>
      <point x="926" y="-17"/>
      <point x="785" y="49"/>
      <point x="713" y="165"/>
      <point x="692" y="322"/>
      <point x="692" y="413" type="qcurve"/>
      <point x="692" y="900" type="line"/>
      <point x="428" y="900" type="line"/>
      <point x="543" y="752" type="line"/>
      <point x="543" y="0" type="line"/>
      <point x="226" y="0" type="line"/>
      <point x="226" y="698" type="line"/>
      <point x="226" y="752"/>
      <point x="225" y="829"/>
      <point x="217" y="879"/>
      <point x="202" y="903"/>
      <point x="188" y="903" type="qcurve"/>
      <point x="170" y="903"/>
      <point x="133" y="893"/>
      <point x="118" y="888" type="qcurve"/>
      <point x="100" y="882"/>
      <point x="83" y="874" type="qcurve"/>
      <point x="-32" y="1041" type="line"/>
      <point x="-16" y="1050"/>
      <point x="29" y="1070"/>
      <point x="84" y="1088"/>
      <point x="150" y="1100"/>
      <point x="187" y="1100" type="qcurve"/>
      <point x="1142" y="1100" type="line"/>
      <point x="1115" y="900" type="line"/>
    </contour>
  </outline>
</glyph>
<glyph name="sigma" format="1">
  <advance width="1300"/>
  <unicode hex="03C3"/>
  <outline>
    <contour>
      <point x="40" y="551" type="qcurve"/>
      <point x="40" y="663"/>
      <point x="103" y="868"/>
      <point x="235" y="1024"/>
      <point x="439" y="1117"/>
      <point x="580" y="1117" type="qcurve"/>
      <point x="1214" y="1117" type="line"/>
      <point x="1214" y="917" type="line"/>
      <point x="1041" y="917" type="line"/>
      <point x="899" y="939" type="line"/>
      <point x="1075" y="800" type="line"/>
      <point x="1088" y="766"/>
      <point x="1106" y="709"/>
      <point x="1117" y="651"/>
      <point x="1121" y="589"/>
      <point x="1121" y="551" type="qcurve"/>
      <point x="1121" y="435"/>
      <point x="1058" y="228"/>
      <point x="926" y="73"/>
      <point x="722" y="-17"/>
      <point x="580" y="-17" type="qcurve"/>
      <point x="439" y="-17"/>
      <point x="235" y="77"/>
      <point x="103" y="234"/>
      <point x="40" y="440"/>
    </contour>
    <contour>
      <point x="347" y="551" type="qcurve"/>
      <point x="347" y="486"/>
      <point x="375" y="355"/>
      <point x="433" y="249"/>
      <point x="521" y="183"/>
      <point x="580" y="183" type="qcurve"/>
      <point x="640" y="183"/>
      <point x="727" y="249"/>
      <point x="785" y="355"/>
      <point x="813" y="486"/>
      <point x="813" y="551" type="qcurve"/>
      <point x="813" y="617"/>
      <point x="785" y="748"/>
      <point x="727" y="852"/>
      <point x="640" y="917"/>
      <point x="580" y="917" type="qcurve"/>
      <point x="521" y="917"/>
      <point x="433" y="851"/>
      <point x="375" y="746"/>
      <point x="347" y="615"/>
    </contour>
  </outline>
</glyph>
<glyph name="phi" format="1">
  <advance width="1500"/>
  <unicode hex="03C6"/>
  <outline>
    <contour>
      <point x="885" y="1126" type="line"/>
      <point x="885" y="1005" type="line"/>
      <point x="973" y="986"/>
      <point x="1142" y="904"/>
      <point x="1274" y="778"/>
      <point x="1355" y="609"/>
      <point x="1355" y="503" type="qcurve"/>
      <point x="1355" y="400"/>
      <point x="1280" y="232"/>
      <point x="1151" y="104"/>
      <point x="981" y="20"/>
      <point x="885" y="2" type="qcurve"/>
      <point x="885" y="-500" type="line"/>
      <point x="557" y="-500" type="line"/>
      <point x="557" y="2" type="line"/>
      <point x="469" y="19"/>
      <point x="301" y="101"/>
      <point x="170" y="228"/>
      <point x="90" y="398"/>
      <point x="90" y="503" type="qcurve"/>
      <point x="90" y="605"/>
      <point x="166" y="771"/>
      <point x="294" y="898"/>
      <point x="463" y="984"/>
      <point x="557" y="1005" type="qcurve"/>
      <point x="557" y="1093" type="line"/>
    </contour>
    <contour>
      <point x="1067" y="503" type="qcurve"/>
      <point x="1067" y="556"/>
      <point x="1036" y="646"/>
      <point x="985" y="717"/>
      <point x="920" y="768"/>
      <point x="885" y="782" type="qcurve"/>
      <point x="885" y="223" type="line"/>
      <point x="920" y="238"/>
      <point x="985" y="290"/>
      <point x="1036" y="361"/>
      <point x="1067" y="450"/>
    </contour>
    <contour>
      <point x="376" y="503" type="qcurve"/>
      <point x="376" y="450"/>
      <point x="406" y="361"/>
      <point x="457" y="291"/>
      <point x="522" y="239"/>
      <point x="557" y="224" type="qcurve"/>
      <point x="557" y="781" type="line"/>
      <point x="522" y="766"/>
      <point x="456" y="715"/>
      <point x="406" y="645"/>
      <point x="376" y="556"/>
    </contour>
  </outline>
</glyph>
<glyph name="psi" format="1">
  <advance width="1500"/>
  <unicode hex="03C8"/>
  <outline>
    <contour>
      <point x="1035" y="700" type="line"/>
      <point x="1035" y="733"/>
      <point x="1027" y="801"/>
      <point x="1009" y="862"/>
      <point x="982" y="912"/>
      <point x="964" y="926" type="qcurve"/>
      <point x="964" y="1105" type="line"/>
      <point x="1051" y="1088"/>
      <point x="1197" y="1009"/>
      <point x="1302" y="898"/>
      <point x="1361" y="762"/>
      <point x="1361" y="689" type="qcurve"/>
      <point x="1361" y="499" type="line"/>
      <point x="1361" y="459"/>
      <point x="1355" y="352"/>
      <point x="1328" y="238"/>
      <point x="1273" y="126"/>
      <point x="1174" y="38"/>
      <point x="1023" y="-16"/>
      <point x="914" y="-16" type="qcurve"/>
      <point x="886" y="-16" type="line"/>
      <point x="886" y="-500" type="line"/>
      <point x="558" y="-500" type="line"/>
      <point x="558" y="-16" type="line"/>
      <point x="541" y="-16" type="line"/>
      <point x="432" y="-16"/>
      <point x="281" y="38"/>
      <point x="182" y="126"/>
      <point x="127" y="238"/>
      <point x="100" y="352"/>
      <point x="94" y="459"/>
      <point x="94" y="499" type="qcurve"/>
      <point x="94" y="814" type="line"/>
      <point x="420" y="846" type="line"/>
      <point x="420" y="501" type="line"/>
      <point x="420" y="441"/>
      <point x="429" y="331"/>
      <point x="454" y="246"/>
      <point x="502" y="195"/>
      <point x="541" y="195" type="qcurve"/>
      <point x="558" y="195" type="line"/>
      <point x="558" y="1093" type="line"/>
      <point x="886" y="1126" type="line"/>
      <point x="886" y="195" type="line"/>
      <point x="934" y="199"/>
      <point x="993" y="252"/>
      <point x="1024" y="336"/>
      <point x="1035" y="444"/>
      <point x="1035" y="501" type="qcurve"/>
    </contour>
  </outline>
</glyph>
<glyph name="omega" format="1">
  <advance width="1600"/>
  <unicode hex="03C9"/>
  <outline>
    <contour>
      <point x="917" y="744" type="line"/>
      <point x="917" y="487" type="line"/>
      <point x="917" y="428"/>
      <point x="933" y="318"/>
      <point x="967" y="234"/>
      <point x="1019" y="183"/>
      <point x="1054" y="183" type="qcurve"/>
      <point x="1093" y="183"/>
      <point x="1144" y="237"/>
      <point x="1174" y="332"/>
      <point x="1185" y="459"/>
      <point x="1185" y="531" type="qcurve"/>
      <point x="1185" y="649"/>
      <point x="1140" y="807"/>
      <point x="1078" y="900"/>
      <point x="1012" y="939"/>
      <point x="990" y="939" type="qcurve"/>
      <point x="990" y="1117" type="line"/>
      <point x="1099" y="1117"/>
      <point x="1286" y="1027"/>
      <point x="1424" y="874"/>
      <point x="1502" y="671"/>
      <point x="1502" y="559" type="qcurve"/>
      <point x="1502" y="509"/>
      <point x="1496" y="385"/>
      <point x="1469" y="257"/>
      <point x="1413" y="136"/>
      <point x="1314" y="41"/>
      <point x="1163" y="-17"/>
      <point x="1054" y="-17" type="qcurve"/>
      <point x="954" y="-17"/>
      <point x="813" y="28"/>
      <point x="765" y="66" type="qcurve"/>
      <point x="717" y="29"/>
      <point x="576" y="-17"/>
      <point x="477" y="-17" type="qcurve"/>
      <point x="368" y="-17"/>
      <point x="217" y="41"/>
      <point x="118" y="136"/>
      <point x="63" y="257"/>
      <point x="36" y="385"/>
      <point x="30" y="509"/>
      <point x="30" y="559" type="qcurve"/>
      <point x="30" y="671"/>
      <point x="108" y="874"/>
      <point x="245" y="1027"/>
      <point x="432" y="1117"/>
      <point x="541" y="1117" type="qcurve"/>
      <point x="541" y="939" type="line"/>
      <point x="520" y="939"/>
      <point x="453" y="900"/>
      <point x="391" y="807"/>
      <point x="346" y="649"/>
      <point x="346" y="531" type="qcurve"/>
      <point x="346" y="459"/>
      <point x="358" y="332"/>
      <point x="387" y="237"/>
      <point x="438" y="183"/>
      <point x="477" y="183" type="qcurve"/>
      <point x="512" y="183"/>
      <point x="564" y="234"/>
      <point x="598" y="318"/>
      <point x="614" y="428"/>
      <point x="614" y="487" type="qcurve"/>
      <point x="614" y="778" type="line"/>
    </contour>
  </outline>
</glyph>
<glyph name="Upsilon1" format="1">
  <advance width="1300"/>
  <unicode hex="03D2"/>
  <outline>
    <contour>
      <point x="1177" y="1336" type="line"/>
      <point x="1163" y="1334"/>
      <point x="1147" y="1324" type="qcurve"/>
      <point x="1133" y="1315"/>
      <point x="1101" y="1279"/>
      <point x="1084" y="1245" type="qcurve"/>
      <point x="798" y="662" type="line"/>
      <point x="798" y="0" type="line"/>
      <point x="464" y="0" type="line"/>
      <point x="464" y="662" type="line"/>
      <point x="177" y="1245" type="line"/>
      <point x="164" y="1271"/>
      <point x="121" y="1300"/>
      <point x="100" y="1308" type="qcurve"/>
      <point x="75" y="1317"/>
      <point x="48" y="1320" type="qcurve"/>
      <point x="48" y="1516" type="line"/>
      <point x="112" y="1516"/>
      <point x="225" y="1506"/>
      <point x="323" y="1469"/>
      <point x="407" y="1394"/>
      <point x="444" y="1328" type="qcurve"/>
      <point x="541" y="1157" type="line"/>
      <point x="631" y="799" type="line"/>
      <point x="722" y="1157" type="line"/>
      <point x="818" y="1328" type="line"/>
      <point x="854" y="1394"/>
      <point x="939" y="1469"/>
      <point x="1036" y="1506"/>
      <point x="1149" y="1516"/>
      <point x="1214" y="1516" type="qcurve"/>
    </contour>
  </outline>
</glyph>
<glyph name="phi1" format="1">
  <advance width="1500"/>
  <unicode hex="03D5"/>
  <outline>
    <contour>
      <point x="508" y="780" type="line"/>
      <point x="485" y="766"/>
      <point x="441" y="724"/>
      <point x="407" y="662"/>
      <point x="386" y="576"/>
      <point x="386" y="519" type="qcurve"/>
      <point x="386" y="456"/>
      <point x="415" y="362"/>
      <point x="462" y="293"/>
      <point x="524" y="246"/>
      <point x="557" y="230" type="qcurve"/>
      <point x="557" y="781" type="line"/>
      <point x="557" y="841"/>
      <point x="607" y="918"/>
      <point x="687" y="962"/>
      <point x="785" y="979"/>
      <point x="833" y="979" type="qcurve"/>
      <point x="934" y="979"/>
      <point x="1119" y="905"/>
      <point x="1261" y="776"/>
      <point x="1345" y="601"/>
      <point x="1345" y="499" type="qcurve"/>
      <point x="1345" y="393"/>
      <point x="1273" y="227"/>
      <point x="1148" y="104"/>
      <point x="980" y="25"/>
      <point x="885" y="7" type="qcurve"/>
      <point x="885" y="-500" type="line"/>
      <point x="557" y="-500" type="line"/>
      <point x="557" y="7" type="line"/>
      <point x="461" y="26"/>
      <point x="295" y="106"/>
      <point x="171" y="228"/>
      <point x="100" y="394"/>
      <point x="100" y="499" type="qcurve"/>
      <point x="100" y="590"/>
      <point x="153" y="734"/>
      <point x="236" y="843"/>
      <point x="335" y="919"/>
      <point x="381" y="943" type="qcurve"/>
    </contour>
    <contour>
      <point x="1067" y="519" type="qcurve"/>
      <point x="1067" y="582"/>
      <point x="1030" y="683"/>
      <point x="979" y="753"/>
      <point x="927" y="790"/>
      <point x="913" y="790" type="qcurve"/>
      <point x="903" y="790"/>
      <point x="892" y="781"/>
      <point x="886" y="769"/>
      <point x="884" y="755"/>
      <point x="884" y="750" type="qcurve"/>
      <point x="884" y="229" type="line"/>
      <point x="917" y="245"/>
      <point x="983" y="293"/>
      <point x="1035" y="362"/>
      <point x="1067" y="456"/>
    </contour>
  </outline>
</glyph>
<glyph name="omega1" format="1">
  <advance width="1600"/>
  <unicode hex="03D6"/>
  <outline>
    <contour>
      <point x="1494" y="900" type="line"/>
      <point x="1319" y="900" type="line"/>
      <point x="1449" y="800" type="line"/>
      <point x="1466" y="751"/>
      <point x="1483" y="611"/>
      <point x="1483" y="499" type="qcurve"/>
      <point x="1483" y="459"/>
      <point x="1474" y="352"/>
      <point x="1444" y="237"/>
      <point x="1385" y="126"/>
      <point x="1286" y="37"/>
      <point x="1139" y="-17"/>
      <point x="1036" y="-17" type="qcurve"/>
      <point x="986" y="-17"/>
      <point x="905" y="6"/>
      <point x="839" y="41"/>
      <point x="787" y="82"/>
      <point x="765" y="100" type="qcurve"/>
      <point x="744" y="82"/>
      <point x="691" y="41"/>
      <point x="626" y="6"/>
      <point x="545" y="-17"/>
      <point x="496" y="-17" type="qcurve"/>
      <point x="393" y="-17"/>
      <point x="246" y="37"/>
      <point x="147" y="126"/>
      <point x="88" y="237"/>
      <point x="57" y="352"/>
      <point x="48" y="459"/>
      <point x="48" y="499" type="qcurve"/>
      <point x="48" y="611"/>
      <point x="65" y="751"/>
      <point x="82" y="800" type="qcurve"/>
      <point x="199" y="900" type="line"/>
      <point x="22" y="900" type="line"/>
      <point x="49" y="1100" type="line"/>
      <point x="1522" y="1100" type="line"/>
    </contour>
    <contour>
      <point x="918" y="724" type="line"/>
      <point x="918" y="487" type="line"/>
      <point x="918" y="428"/>
      <point x="930" y="322"/>
      <point x="957" y="242"/>
      <point x="1003" y="195"/>
      <point x="1036" y="195" type="qcurve"/>
      <point x="1071" y="195"/>
      <point x="1117" y="246"/>
      <point x="1145" y="331"/>
      <point x="1157" y="441"/>
      <point x="1157" y="501" type="qcurve"/>
      <point x="1157" y="589"/>
      <point x="1145" y="723"/>
      <point x="1125" y="820"/>
      <point x="1100" y="883"/>
      <point x="1087" y="900" type="qcurve"/>
      <point x="444" y="900" type="line"/>
      <point x="430" y="883"/>
      <point x="406" y="820"/>
      <point x="386" y="723"/>
      <point x="375" y="589"/>
      <point x="375" y="501" type="qcurve"/>
      <point x="375" y="441"/>
      <point x="387" y="331"/>
      <point x="415" y="246"/>
      <point x="461" y="195"/>
      <point x="496" y="195" type="qcurve"/>
      <point x="529" y="195"/>
      <point x="575" y="242"/>
      <point x="602" y="322"/>
      <point x="614" y="428"/>
      <point x="614" y="487" type="qcurve"/>
      <point x="614" y="758" type="line"/>
    </contour>
  </outline>
</glyph>
<glyph name="endash" format="1">
  <advance width="1100"/>
  <unicode hex="2013"/>
  <outline>
    <contour>
      <point x="0" y="624" type="line"/>
      <point x="1000" y="624" type="line"/>
      <point x="1000" y="400" type="line"/>
      <point x="0" y="400" type="line"/>
    </contour>
  </outline>
</glyph>
<glyph name="emdash" format="1">
  <advance width="2100"/>
  <unicode hex="2014"/>
  <outline>
    <contour>
      <point x="0" y="624" type="line"/>
      <point x="2000" y="624" type="line"/>
      <point x="2000" y="400" type="line"/>
      <point x="0" y="400" type="line"/>
    </contour>
  </outline>
</glyph>
<glyph name="quotationdash" format="1">
  <advance width="1600"/>
  <unicode hex="2015"/>
  <outline>
    <contour>
      <point x="200" y="624" type="line"/>
      <point x="1400" y="624" type="line"/>
      <point x="1400" y="400" type="line"/>
      <point x="200" y="400" type="line"/>
    </contour>
  </outline>
</glyph>
<glyph name="dagger" format="1">
  <advance width="1100"/>
  <unicode hex="2020"/>
  <outline>
    <contour>
      <point x="100" y="1118" type="line"/>
      <point x="356" y="1118" type="line"/>
      <point x="356" y="1493" type="line"/>
      <point x="638" y="1527" type="line"/>
      <point x="638" y="1118" type="line"/>
      <point x="927" y="1118" type="line"/>
      <point x="899" y="900" type="line"/>
      <point x="638" y="900" type="line"/>
      <point x="638" y="-400" type="line"/>
      <point x="356" y="-400" type="line"/>
      <point x="356" y="900" type="line"/>
      <point x="100" y="900" type="line"/>
    </contour>
  </outline>
</glyph>
<glyph name="daggerdbl" format="1">
  <advance width="1000"/>
  <unicode hex="2021"/>
  <outline>
    <contour>
      <point x="356" y="82" type="line"/>
      <point x="100" y="82" type="line"/>
      <point x="100" y="300" type="line"/>
      <point x="356" y="300" type="line"/>
      <point x="356" y="900" type="line"/>
      <point x="100" y="900" type="line"/>
      <point x="100" y="1118" type="line"/>
      <point x="356" y="1118" type="line"/>
      <point x="356" y="1493" type="line"/>
      <point x="638" y="1527" type="line"/>
      <point x="638" y="1118" type="line"/>
      <point x="927" y="1118" type="line"/>
      <point x="899" y="900" type="line"/>
      <point x="638" y="900" type="line"/>
      <point x="638" y="300" type="line"/>
      <point x="927" y="300" type="line"/>
      <point x="899" y="82" type="line"/>
      <point x="638" y="82" type="line"/>
      <point x="638" y="-400" type="line"/>
      <point x="356" y="-400" type="line"/>
    </contour>
  </outline>
</glyph>
<glyph name="perthousand" format="1">
  <advance width="2600"/>
  <unicode hex="2030"/>
  <outline>
    <contour>
      <point x="2051" y="-17" type="qcurve"/>
      <point x="1964" y="-17"/>
      <point x="1820" y="44"/>
      <point x="1717" y="151"/>
      <point x="1659" y="297"/>
      <point x="1659" y="382" type="qcurve"/>
      <point x="1659" y="466"/>
      <point x="1714" y="610"/>
      <point x="1816" y="715"/>
      <point x="1961" y="774"/>
      <point x="2051" y="774" type="qcurve"/>
      <point x="2137" y="774"/>
      <point x="2281" y="715"/>
      <point x="2384" y="610"/>
      <point x="2442" y="466"/>
      <point x="2442" y="382" type="qcurve"/>
      <point x="2442" y="297"/>
      <point x="2387" y="151"/>
      <point x="2285" y="44"/>
      <point x="2140" y="-17"/>
    </contour>
    <contour>
      <point x="2142" y="371" type="qcurve"/>
      <point x="2142" y="407"/>
      <point x="2132" y="477"/>
      <point x="2110" y="532"/>
      <point x="2075" y="566"/>
      <point x="2050" y="566" type="qcurve"/>
      <point x="2027" y="566"/>
      <point x="1995" y="537"/>
      <point x="1974" y="489"/>
      <point x="1964" y="428"/>
      <point x="1964" y="396" type="qcurve"/>
      <point x="1964" y="360"/>
      <point x="1974" y="290"/>
      <point x="1996" y="236"/>
      <point x="2030" y="203"/>
      <point x="2055" y="203" type="qcurve"/>
      <point x="2077" y="203"/>
      <point x="2110" y="232"/>
      <point x="2132" y="279"/>
      <point x="2142" y="339"/>
    </contour>
    <contour>
      <point x="639" y="0" type="line"/>
      <point x="306" y="0" type="line"/>
      <point x="1125" y="1500" type="line"/>
      <point x="1449" y="1500" type="line"/>
    </contour>
    <contour>
      <point x="401" y="726" type="qcurve"/>
      <point x="314" y="726"/>
      <point x="170" y="787"/>
      <point x="66" y="894"/>
      <point x="8" y="1040"/>
      <point x="8" y="1125" type="qcurve"/>
      <point x="8" y="1209"/>
      <point x="63" y="1353"/>
      <point x="165" y="1458"/>
      <point x="311" y="1517"/>
      <point x="401" y="1517" type="qcurve"/>
      <point x="487" y="1517"/>
      <point x="631" y="1458"/>
      <point x="734" y="1353"/>
      <point x="792" y="1209"/>
      <point x="792" y="1125" type="qcurve"/>
      <point x="792" y="1040"/>
      <point x="737" y="894"/>
      <point x="635" y="787"/>
      <point x="490" y="726"/>
    </contour>
    <contour>
      <point x="492" y="1115" type="qcurve"/>
      <point x="492" y="1151"/>
      <point x="482" y="1220"/>
      <point x="460" y="1275"/>
      <point x="425" y="1309"/>
      <point x="400" y="1309" type="qcurve"/>
      <point x="377" y="1309"/>
      <point x="344" y="1280"/>
      <point x="323" y="1233"/>
      <point x="313" y="1172"/>
      <point x="313" y="1139" type="qcurve"/>
      <point x="313" y="1103"/>
      <point x="323" y="1034"/>
      <point x="345" y="980"/>
      <point x="380" y="947"/>
      <point x="404" y="947" type="qcurve"/>
      <point x="427" y="947"/>
      <point x="460" y="976"/>
      <point x="482" y="1023"/>
      <point x="492" y="1083"/>
    </contour>
    <contour>
      <point x="1352" y="-17" type="qcurve"/>
      <point x="1265" y="-17"/>
      <point x="1121" y="44"/>
      <point x="1018" y="151"/>
      <point x="960" y="297"/>
      <point x="960" y="382" type="qcurve"/>
      <point x="960" y="466"/>
      <point x="1015" y="610"/>
      <point x="1117" y="715"/>
      <point x="1262" y="774"/>
      <point x="1352" y="774" type="qcurve"/>
      <point x="1438" y="774"/>
      <point x="1582" y="715"/>
      <point x="1685" y="610"/>
      <point x="1743" y="466"/>
      <point x="1743" y="382" type="qcurve"/>
      <point x="1743" y="297"/>
      <point x="1688" y="151"/>
      <point x="1586" y="44"/>
      <point x="1441" y="-17"/>
    </contour>
    <contour>
      <point x="1443" y="371" type="qcurve"/>
      <point x="1443" y="407"/>
      <point x="1433" y="477"/>
      <point x="1411" y="532"/>
      <point x="1376" y="566"/>
      <point x="1351" y="566" type="qcurve"/>
      <point x="1328" y="566"/>
      <point x="1296" y="537"/>
      <point x="1275" y="489"/>
      <point x="1265" y="428"/>
      <point x="1265" y="396" type="qcurve"/>
      <point x="1265" y="360"/>
      <point x="1275" y="290"/>
      <point x="1297" y="236"/>
      <point x="1331" y="203"/>
      <point x="1356" y="203" type="qcurve"/>
      <point x="1378" y="203"/>
      <point x="1411" y="232"/>
      <point x="1433" y="279"/>
      <point x="1443" y="339"/>
    </contour>
  </outline>
</glyph>
<glyph name="zerosuperior" format="1">
  <advance width="800"/>
  <unicode hex="2070"/>
  <outline>
    <contour>
      <point x="298" y="712" type="qcurve"/>
      <point x="251" y="712"/>
      <point x="173" y="744"/>
      <point x="111" y="800"/>
      <point x="64" y="875"/>
      <point x="33" y="960"/>
      <point x="18" y="1051"/>
      <point x="18" y="1095" type="qcurve"/>
      <point x="18" y="1140"/>
      <point x="31" y="1231"/>
      <point x="59" y="1317"/>
      <point x="104" y="1391"/>
      <point x="166" y="1446"/>
      <point x="247" y="1478"/>
      <point x="298" y="1478" type="qcurve"/>
      <point x="344" y="1478"/>
      <point x="422" y="1445"/>
      <point x="484" y="1389"/>
      <point x="531" y="1314"/>
      <point x="562" y="1229"/>
      <point x="578" y="1138"/>
      <point x="578" y="1095" type="qcurve"/>
      <point x="578" y="1050"/>
      <point x="564" y="958"/>
      <point x="536" y="873"/>
      <point x="492" y="799"/>
      <point x="429" y="743"/>
      <point x="348" y="712"/>
    </contour>
    <contour>
      <point x="192" y="1115" type="qcurve"/>
      <point x="192" y="1090"/>
      <point x="195" y="1028"/>
      <point x="203" y="965"/>
      <point x="218" y="906"/>
      <point x="243" y="860"/>
      <point x="277" y="833"/>
      <point x="301" y="833" type="qcurve"/>
      <point x="322" y="833"/>
      <point x="354" y="853"/>
      <point x="377" y="889"/>
      <point x="392" y="936"/>
      <point x="400" y="990"/>
      <point x="404" y="1047"/>
      <point x="404" y="1074" type="qcurve"/>
      <point x="404" y="1100"/>
      <point x="401" y="1162"/>
      <point x="392" y="1224"/>
      <point x="377" y="1283"/>
      <point x="353" y="1329"/>
      <point x="318" y="1356"/>
      <point x="294" y="1356" type="qcurve"/>
      <point x="273" y="1356"/>
      <point x="241" y="1336"/>
      <point x="218" y="1300"/>
      <point x="204" y="1253"/>
      <point x="195" y="1199"/>
      <point x="192" y="1142"/>
    </contour>
  </outline>
</glyph>
<glyph name="ismallsuperior" format="1">
  <advance width="300"/>
  <unicode hex="2071"/>
  <outline>
    <contour>
      <point x="221" y="720" type="line"/>
      <point x="63" y="720" type="line"/>
      <point x="63" y="1244" type="line"/>
      <point x="221" y="1260" type="line"/>
    </contour>
    <contour>
      <point x="60" y="1470" type="line"/>
      <point x="224" y="1470" type="line"/>
      <point x="224" y="1354" type="line"/>
      <point x="60" y="1354" type="line"/>
    </contour>
  </outline>
</glyph>
<glyph name="foursuperior" format="1">
  <advance width="600"/>
  <unicode hex="2074"/>
  <outline>
    <contour>
      <point x="569" y="870" type="line"/>
      <point x="480" y="870" type="line"/>
      <point x="480" y="720" type="line"/>
      <point x="320" y="720" type="line"/>
      <point x="320" y="870" type="line"/>
      <point x="20" y="870" type="line"/>
      <point x="20" y="970" type="line"/>
      <point x="267" y="1482" type="line"/>
      <point x="425" y="1466" type="line"/>
      <point x="261" y="1101" type="line"/>
      <point x="174" y="970" type="line"/>
      <point x="320" y="970" type="line"/>
      <point x="320" y="1119" type="line"/>
      <point x="480" y="1106" type="line"/>
      <point x="480" y="970" type="line"/>
      <point x="580" y="970" type="line"/>
    </contour>
  </outline>
</glyph>
<glyph name="sevensuperior" format="1">
  <advance width="600"/>
  <unicode hex="2077"/>
  <outline>
    <contour>
      <point x="70" y="1470" type="line"/>
      <point x="573" y="1470" type="line"/>
      <point x="573" y="1389" type="line"/>
      <point x="573" y="1376"/>
      <point x="559" y="1338"/>
      <point x="534" y="1291"/>
      <point x="502" y="1237"/>
      <point x="484" y="1208" type="qcurve"/>
      <point x="463" y="1173"/>
      <point x="417" y="1094"/>
      <point x="377" y="1012"/>
      <point x="348" y="930"/>
      <point x="344" y="893" type="qcurve"/>
      <point x="342" y="875"/>
      <point x="339" y="831"/>
      <point x="338" y="784"/>
      <point x="338" y="739"/>
      <point x="338" y="720" type="qcurve"/>
      <point x="170" y="720" type="line"/>
      <point x="170" y="736"/>
      <point x="170" y="790"/>
      <point x="173" y="850"/>
      <point x="177" y="908"/>
      <point x="182" y="929" type="qcurve"/>
      <point x="191" y="973"/>
      <point x="226" y="1064"/>
      <point x="268" y="1150"/>
      <point x="315" y="1229"/>
      <point x="336" y="1263" type="qcurve"/>
      <point x="353" y="1291"/>
      <point x="382" y="1339"/>
      <point x="388" y="1356" type="qcurve"/>
      <point x="70" y="1356" type="line"/>
    </contour>
  </outline>
</glyph>
<glyph name="eightsuperior" format="1">
  <advance width="600"/>
  <unicode hex="2078"/>
  <outline>
    <contour>
      <point x="308" y="1478" type="qcurve"/>
      <point x="359" y="1478"/>
      <point x="447" y="1452"/>
      <point x="511" y="1402"/>
      <point x="547" y="1331"/>
      <point x="547" y="1287" type="qcurve"/>
      <point x="547" y="1261"/>
      <point x="527" y="1218"/>
      <point x="495" y="1182"/>
      <point x="455" y="1153"/>
      <point x="435" y="1142" type="qcurve"/>
      <point x="468" y="1126"/>
      <point x="526" y="1083"/>
      <point x="569" y="1031"/>
      <point x="593" y="969"/>
      <point x="593" y="933" type="qcurve"/>
      <point x="593" y="876"/>
      <point x="545" y="792"/>
      <point x="466" y="737"/>
      <point x="364" y="711"/>
      <point x="311" y="711" type="qcurve"/>
      <point x="259" y="711"/>
      <point x="161" y="741"/>
      <point x="86" y="799"/>
      <point x="41" y="884"/>
      <point x="41" y="940" type="qcurve"/>
      <point x="41" y="976"/>
      <point x="62" y="1037"/>
      <point x="101" y="1088"/>
      <point x="153" y="1129"/>
      <point x="185" y="1144" type="qcurve"/>
      <point x="162" y="1157"/>
      <point x="123" y="1188"/>
      <point x="94" y="1222"/>
      <point x="77" y="1260"/>
      <point x="77" y="1282" type="qcurve"/>
      <point x="77" y="1333"/>
      <point x="121" y="1407"/>
      <point x="189" y="1455"/>
      <point x="270" y="1478"/>
    </contour>
    <contour>
      <point x="431" y="931" type="qcurve"/>
      <point x="431" y="958"/>
      <point x="408" y="1002"/>
      <point x="371" y="1037"/>
      <point x="326" y="1065"/>
      <point x="303" y="1075" type="qcurve"/>
      <point x="282" y="1065"/>
      <point x="245" y="1037"/>
      <point x="218" y="1001"/>
      <point x="203" y="957"/>
      <point x="203" y="930" type="qcurve"/>
      <point x="203" y="906"/>
      <point x="222" y="865"/>
      <point x="253" y="836"/>
      <point x="292" y="820"/>
      <point x="311" y="820" type="qcurve"/>
      <point x="334" y="820"/>
      <point x="377" y="835"/>
      <point x="410" y="863"/>
      <point x="431" y="904"/>
    </contour>
    <contour>
      <point x="237" y="1298" type="qcurve"/>
      <point x="237" y="1281"/>
      <point x="251" y="1252"/>
      <point x="275" y="1228"/>
      <point x="305" y="1209"/>
      <point x="321" y="1202" type="qcurve"/>
      <point x="335" y="1209"/>
      <point x="359" y="1229"/>
      <point x="376" y="1252"/>
      <point x="387" y="1280"/>
      <point x="387" y="1296" type="qcurve"/>
      <point x="387" y="1315"/>
      <point x="372" y="1343"/>
      <point x="351" y="1361"/>
      <point x="327" y="1370"/>
      <point x="317" y="1370" type="qcurve"/>
      <point x="303" y="1370"/>
      <point x="274" y="1359"/>
      <point x="252" y="1339"/>
      <point x="237" y="1313"/>
    </contour>
  </outline>
</glyph>
<glyph name="ninesuperior" format="1">
  <advance width="600"/>
  <unicode hex="2079"/>
  <outline>
    <contour>
      <point x="144" y="819" type="line"/>
      <point x="178" y="820"/>
      <point x="245" y="842"/>
      <point x="305" y="877"/>
      <point x="356" y="924"/>
      <point x="394" y="979"/>
      <point x="416" y="1039"/>
      <point x="416" y="1070" type="qcurve"/>
      <point x="327" y="994" type="line"/>
      <point x="319" y="993"/>
      <point x="303" y="992"/>
      <point x="294" y="992" type="qcurve"/>
      <point x="240" y="992"/>
      <point x="145" y="1025"/>
      <point x="75" y="1087"/>
      <point x="35" y="1175"/>
      <point x="35" y="1228" type="qcurve"/>
      <point x="35" y="1284"/>
      <point x="73" y="1376"/>
      <point x="143" y="1442"/>
      <point x="243" y="1478"/>
      <point x="305" y="1478" type="qcurve"/>
      <point x="360" y="1478"/>
      <point x="444" y="1447"/>
      <point x="506" y="1396"/>
      <point x="547" y="1329"/>
      <point x="572" y="1257"/>
      <point x="582" y="1186"/>
      <point x="582" y="1156" type="qcurve"/>
      <point x="582" y="1068"/>
      <point x="526" y="912"/>
      <point x="419" y="794"/>
      <point x="264" y="719"/>
      <point x="165" y="711" type="qcurve"/>
    </contour>
    <contour>
      <point x="299" y="1100" type="qcurve"/>
      <point x="316" y="1100"/>
      <point x="352" y="1116"/>
      <point x="384" y="1142"/>
      <point x="410" y="1175"/>
      <point x="418" y="1192" type="qcurve"/>
      <point x="417" y="1224"/>
      <point x="401" y="1287"/>
      <point x="372" y="1338"/>
      <point x="333" y="1370"/>
      <point x="309" y="1370" type="qcurve"/>
      <point x="285" y="1370"/>
      <point x="246" y="1348"/>
      <point x="216" y="1312"/>
      <point x="200" y="1264"/>
      <point x="200" y="1237" type="qcurve"/>
      <point x="200" y="1210"/>
      <point x="213" y="1161"/>
      <point x="239" y="1123"/>
      <point x="275" y="1100"/>
    </contour>
  </outline>
</glyph>
<glyph name="plussuperior" format="1">
  <advance width="600"/>
  <unicode hex="207A"/>
  <outline>
    <contour>
      <point x="40" y="1070" type="line"/>
      <point x="220" y="1070" type="line"/>
      <point x="220" y="1285" type="line"/>
      <point x="330" y="1285" type="line"/>
      <point x="330" y="1070" type="line"/>
      <point x="510" y="1070" type="line"/>
      <point x="510" y="970" type="line"/>
      <point x="330" y="970" type="line"/>
      <point x="330" y="770" type="line"/>
      <point x="220" y="770" type="line"/>
      <point x="220" y="970" type="line"/>
      <point x="40" y="970" type="line"/>
    </contour>
  </outline>
</glyph>
<glyph name="minussuperior" format="1">
  <advance width="600"/>
  <unicode hex="207B"/>
  <outline>
    <contour>
      <point x="50" y="1070" type="line"/>
      <point x="500" y="1070" type="line"/>
      <point x="500" y="958" type="line"/>
      <point x="50" y="958" type="line"/>
    </contour>
  </outline>
</glyph>
<glyph name="equalsuperior" format="1">
  <advance width="500"/>
  <unicode hex="207C"/>
  <outline>
    <contour>
      <point x="50" y="1120" type="line"/>
      <point x="450" y="1120" type="line"/>
      <point x="450" y="1010" type="line"/>
      <point x="50" y="1010" type="line"/>
    </contour>
    <contour>
      <point x="50" y="920" type="line"/>
      <point x="450" y="920" type="line"/>
      <point x="450" y="810" type="line"/>
      <point x="50" y="810" type="line"/>
    </contour>
  </outline>
</glyph>
<glyph name="parenleftsuperior" format="1">
  <advance width="400"/>
  <unicode hex="207D"/>
  <outline>
    <contour>
      <point x="72" y="1296" type="line"/>
      <point x="72" y="1342"/>
      <point x="82" y="1423"/>
      <point x="118" y="1483"/>
      <point x="185" y="1517"/>
      <point x="242" y="1517" type="qcurve"/>
      <point x="255" y="1517"/>
      <point x="283" y="1513"/>
      <point x="312" y="1506"/>
      <point x="338" y="1496"/>
      <point x="348" y="1489" type="qcurve"/>
      <point x="303" y="1432" type="line"/>
      <point x="294" y="1432"/>
      <point x="270" y="1427"/>
      <point x="248" y="1407"/>
      <point x="233" y="1366"/>
      <point x="233" y="1330" type="qcurve"/>
      <point x="233" y="694" type="line"/>
      <point x="233" y="657"/>
      <point x="248" y="617"/>
      <point x="269" y="598"/>
      <point x="292" y="594"/>
      <point x="299" y="594" type="qcurve"/>
      <point x="348" y="534" type="line"/>
      <point x="338" y="528"/>
      <point x="312" y="517"/>
      <point x="283" y="510"/>
      <point x="255" y="507"/>
      <point x="242" y="507" type="qcurve"/>
      <point x="185" y="507"/>
      <point x="118" y="543"/>
      <point x="82" y="606"/>
      <point x="72" y="689"/>
      <point x="72" y="736" type="qcurve"/>
    </contour>
  </outline>
</glyph>
<glyph name="fourinferior" format="1">
  <advance width="600"/>
  <unicode hex="2084"/>
  <outline>
    <contour>
      <point x="569" y="-350" type="line"/>
      <point x="480" y="-350" type="line"/>
      <point x="480" y="-500" type="line"/>
      <point x="320" y="-500" type="line"/>
      <point x="320" y="-350" type="line"/>
      <point x="20" y="-350" type="line"/>
      <point x="20" y="-250" type="line"/>
      <point x="267" y="262" type="line"/>
      <point x="425" y="246" type="line"/>
      <point x="261" y="-119" type="line"/>
      <point x="174" y="-250" type="line"/>
      <point x="320" y="-250" type="line"/>
      <point x="320" y="-101" type="line"/>
      <point x="480" y="-114" type="line"/>
      <point x="480" y="-250" type="line"/>
      <point x="580" y="-250" type="line"/>
    </contour>
  </outline>
</glyph>
<glyph name="seveninferior" format="1">
  <advance width="600"/>
  <unicode hex="2087"/>
  <outline>
    <contour>
      <point x="70" y="250" type="line"/>
      <point x="573" y="250" type="line"/>
      <point x="573" y="169" type="line"/>
      <point x="573" y="156"/>
      <point x="559" y="118"/>
      <point x="534" y="71"/>
      <point x="502" y="17"/>
      <point x="484" y="-12" type="qcurve"/>
      <point x="463" y="-47"/>
      <point x="417" y="-126"/>
      <point x="377" y="-208"/>
      <point x="348" y="-290"/>
      <point x="344" y="-327" type="qcurve"/>
      <point x="342" y="-345"/>
      <point x="339" y="-389"/>
      <point x="338" y="-436"/>
      <point x="338" y="-481"/>
      <point x="338" y="-500" type="qcurve"/>
      <point x="170" y="-500" type="line"/>
      <point x="170" y="-484"/>
      <point x="170" y="-430"/>
      <point x="173" y="-370"/>
      <point x="177" y="-312"/>
      <point x="182" y="-291" type="qcurve"/>
      <point x="191" y="-247"/>
      <point x="226" y="-156"/>
      <point x="268" y="-70"/>
      <point x="315" y="9"/>
      <point x="336" y="43" type="qcurve"/>
      <point x="353" y="71"/>
      <point x="382" y="119"/>
      <point x="388" y="136" type="qcurve"/>
      <point x="70" y="136" type="line"/>
    </contour>
  </outline>
</glyph>
<glyph name="nineinferior" format="1">
  <advance width="600"/>
  <unicode hex="2089"/>
  <outline>
    <contour>
      <point x="144" y="-401" type="line"/>
      <point x="178" y="-400"/>
      <point x="245" y="-378"/>
      <point x="305" y="-343"/>
      <point x="356" y="-296"/>
      <point x="394" y="-241"/>
      <point x="416" y="-181"/>
      <point x="416" y="-150" type="qcurve"/>
      <point x="327" y="-226" type="line"/>
      <point x="319" y="-227"/>
      <point x="303" y="-228"/>
      <point x="294" y="-228" type="qcurve"/>
      <point x="240" y="-228"/>
      <point x="145" y="-195"/>
      <point x="75" y="-133"/>
      <point x="35" y="-45"/>
      <point x="35" y="8" type="qcurve"/>
      <point x="35" y="64"/>
      <point x="73" y="156"/>
      <point x="143" y="222"/>
      <point x="243" y="258"/>
      <point x="305" y="258" type="qcurve"/>
      <point x="360" y="258"/>
      <point x="444" y="227"/>
      <point x="506" y="176"/>
      <point x="547" y="109"/>
      <point x="572" y="37"/>
      <point x="582" y="-34"/>
      <point x="582" y="-64" type="qcurve"/>
      <point x="582" y="-152"/>
      <point x="526" y="-308"/>
      <point x="419" y="-426"/>
      <point x="264" y="-501"/>
      <point x="165" y="-509" type="qcurve"/>
    </contour>
    <contour>
      <point x="299" y="-120" type="qcurve"/>
      <point x="316" y="-120"/>
      <point x="352" y="-104"/>
      <point x="384" y="-78"/>
      <point x="410" y="-45"/>
      <point x="418" y="-28" type="qcurve"/>
      <point x="417" y="4"/>
      <point x="401" y="67"/>
      <point x="372" y="118"/>
      <point x="333" y="150"/>
      <point x="309" y="150" type="qcurve"/>
      <point x="285" y="150"/>
      <point x="246" y="128"/>
      <point x="216" y="92"/>
      <point x="200" y="44"/>
      <point x="200" y="17" type="qcurve"/>
      <point x="200" y="-10"/>
      <point x="213" y="-59"/>
      <point x="239" y="-97"/>
      <point x="275" y="-120"/>
    </contour>
  </outline>
</glyph>
<glyph name="minusinferior" format="1">
  <advance width="600"/>
  <unicode hex="208B"/>
  <outline>
    <contour>
      <point x="50" y="-150" type="line"/>
      <point x="500" y="-150" type="line"/>
      <point x="500" y="-262" type="line"/>
      <point x="50" y="-262" type="line"/>
    </contour>
  </outline>
</glyph>
<glyph name="parenleftinferior" format="1">
  <advance width="400"/>
  <unicode hex="208D"/>
  <outline>
    <contour>
      <point x="72" y="79" type="line"/>
      <point x="72" y="125"/>
      <point x="82" y="206"/>
      <point x="118" y="266"/>
      <point x="185" y="300"/>
      <point x="242" y="300" type="qcurve"/>
      <point x="255" y="300"/>
      <point x="283" y="296"/>
      <point x="312" y="289"/>
      <point x="338" y="279"/>
      <point x="348" y="272" type="qcurve"/>
      <point x="303" y="215" type="line"/>
      <point x="294" y="215"/>
      <point x="270" y="210"/>
      <point x="248" y="190"/>
      <point x="233" y="149"/>
      <point x="233" y="113" type="qcurve"/>
      <point x="233" y="-523" type="line"/>
      <point x="233" y="-560"/>
      <point x="248" y="-600"/>
      <point x="269" y="-619"/>
      <point x="292" y="-623"/>
      <point x="299" y="-623" type="qcurve"/>
      <point x="348" y="-683" type="line"/>
      <point x="338" y="-689"/>
      <point x="312" y="-700"/>
      <point x="283" y="-707"/>
      <point x="255" y="-710"/>
      <point x="242" y="-710" type="qcurve"/>
      <point x="185" y="-710"/>
      <point x="118" y="-674"/>
      <point x="82" y="-611"/>
      <point x="72" y="-528"/>
      <point x="72" y="-481" type="qcurve"/>
    </contour>
  </outline>
</glyph>
<glyph name="parenrightinferior" format="1">
  <advance width="400"/>
  <unicode hex="208E"/>
  <outline>
    <contour>
      <point x="365" y="-481" type="line"/>
      <point x="365" y="-528"/>
      <point x="355" y="-611"/>
      <point x="320" y="-674"/>
      <point x="252" y="-710"/>
      <point x="195" y="-710" type="qcurve"/>
      <point x="183" y="-710"/>
      <point x="154" y="-707"/>
      <point x="126" y="-700"/>
      <point x="100" y="-689"/>
      <point x="89" y="-683" type="qcurve"/>
      <point x="138" y="-623" type="line"/>
      <point x="146" y="-623"/>
      <point x="168" y="-619"/>
      <point x="189" y="-600"/>
      <point x="205" y="-560"/>
      <point x="205" y="-523" type="qcurve"/>
      <point x="205" y="113" type="line"/>
      <point x="205" y="149"/>
      <point x="190" y="190"/>
      <point x="168" y="210"/>
      <point x="143" y="215"/>
      <point x="134" y="215" type="qcurve"/>
      <point x="89" y="272" type="line"/>
      <point x="100" y="279"/>
      <point x="126" y="289"/>
      <point x="154" y="296"/>
      <point x="183" y="300"/>
      <point x="195" y="300" type="qcurve"/>
      <point x="252" y="300"/>
      <point x="320" y="266"/>
      <point x="355" y="206"/>
      <point x="365" y="125"/>
      <point x="365" y="79" type="qcurve"/>
    </contour>
  </outline>
</glyph>
<glyph name="Euro" format="1">
  <advance width="1400"/>
  <unicode hex="20AC"/>
  <outline>
    <contour>
      <point x="521" y="492" type="line"/>
      <point x="536" y="438"/>
      <point x="590" y="340"/>
      <point x="664" y="265"/>
      <point x="756" y="221"/>
      <point x="810" y="221" type="qcurve"/>
      <point x="844" y="221"/>
      <point x="910" y="226"/>
      <point x="983" y="243"/>
      <point x="1069" y="278"/>
      <point x="1123" y="308" type="qcurve"/>
      <point x="1242" y="133" type="line"/>
      <point x="1141" y="52"/>
      <point x="916" y="-17"/>
      <point x="786" y="-17" type="qcurve"/>
      <point x="668" y="-17"/>
      <point x="463" y="60"/>
      <point x="301" y="196"/>
      <point x="189" y="382"/>
      <point x="164" y="491" type="qcurve"/>
      <point x="28" y="491" type="line"/>
      <point x="28" y="700" type="line"/>
      <point x="124" y="700" type="line"/>
      <point x="123" y="717"/>
      <point x="121" y="747"/>
      <point x="121" y="765" type="qcurve"/>
      <point x="121" y="776"/>
      <point x="122" y="806"/>
      <point x="123" y="817" type="qcurve"/>
      <point x="28" y="817" type="line"/>
      <point x="28" y="1025" type="line"/>
      <point x="154" y="1025" type="line"/>
      <point x="182" y="1131"/>
      <point x="290" y="1311"/>
      <point x="452" y="1443"/>
      <point x="670" y="1517"/>
      <point x="807" y="1517" type="qcurve"/>
      <point x="936" y="1517"/>
      <point x="1151" y="1438"/>
      <point x="1224" y="1373" type="qcurve"/>
      <point x="1123" y="1190" type="line"/>
      <point x="1090" y="1215"/>
      <point x="1014" y="1250"/>
      <point x="935" y="1271"/>
      <point x="857" y="1280"/>
      <point x="823" y="1280" type="qcurve"/>
      <point x="748" y="1280"/>
      <point x="633" y="1228"/>
      <point x="550" y="1137"/>
      <point x="498" y="1011"/>
      <point x="485" y="937" type="qcurve"/>
      <point x="610" y="1025" type="line"/>
      <point x="1090" y="1025" type="line"/>
      <point x="977" y="817" type="line"/>
      <point x="472" y="817" type="line"/>
      <point x="472" y="799" type="line"/>
      <point x="472" y="785"/>
      <point x="472" y="749"/>
      <point x="474" y="735" type="qcurve"/>
      <point x="426" y="628" type="line"/>
      <point x="559" y="700" type="line"/>
      <point x="919" y="700" type="line"/>
      <point x="806" y="492" type="line"/>
    </contour>
  </outline>
</glyph>
<glyph name="Ifraktur" format="1">
  <advance width="1100"/>
  <unicode hex="2111"/>
  <outline>
    <contour>
      <point x="247" y="1400" type="qcurve"/>
      <point x="957" y="1400" type="line"/>
      <point x="931" y="1216" type="line"/>
      <point x="892" y="1193"/>
      <point x="816" y="1124"/>
      <point x="756" y="1044"/>
      <point x="719" y="962"/>
      <point x="719" y="926" type="qcurve"/>
      <point x="719" y="882"/>
      <point x="760" y="785"/>
      <point x="823" y="680"/>
      <point x="895" y="567"/>
      <point x="958" y="446"/>
      <point x="999" y="318"/>
      <point x="999" y="251" type="qcurve"/>
      <point x="999" y="177"/>
      <point x="931" y="75"/>
      <point x="829" y="11"/>
      <point x="711" y="-17"/>
      <point x="661" y="-17" type="qcurve"/>
      <point x="610" y="-17"/>
      <point x="507" y="7"/>
      <point x="416" y="43"/>
      <point x="341" y="84"/>
      <point x="317" y="102" type="qcurve"/>
      <point x="299" y="200" type="line"/>
      <point x="149" y="66" type="line"/>
      <point x="30" y="156" type="line"/>
      <point x="259" y="353" type="line"/>
      <point x="298" y="316"/>
      <point x="408" y="248"/>
      <point x="525" y="195"/>
      <point x="636" y="164"/>
      <point x="677" y="164" type="qcurve"/>
      <point x="699" y="164"/>
      <point x="739" y="174"/>
      <point x="770" y="195"/>
      <point x="789" y="228"/>
      <point x="789" y="252" type="qcurve"/>
      <point x="789" y="289"/>
      <point x="746" y="386"/>
      <point x="682" y="497"/>
      <point x="606" y="617"/>
      <point x="542" y="736"/>
      <point x="499" y="850"/>
      <point x="499" y="900" type="qcurve"/>
      <point x="499" y="926"/>
      <point x="522" y="1000"/>
      <point x="575" y="1084"/>
      <point x="661" y="1174"/>
      <point x="723" y="1216" type="qcurve"/>
      <point x="299" y="1216" type="line"/>
      <point x="276" y="1193"/>
      <point x="260" y="1137"/>
      <point x="260" y="1107" type="qcurve"/>
      <point x="260" y="1090"/>
      <point x="269" y="1054"/>
      <point x="274" y="1040" type="qcurve"/>
      <point x="280" y="1023"/>
      <point x="289" y="1007" type="qcurve"/>
      <point x="183" y="947" type="line"/>
      <point x="124" y="1030"/>
      <point x="124" y="1121" type="qcurve"/>
      <point x="124" y="1251"/>
    </contour>
  </outline>
</glyph>
<glyph name="weierstrass" format="1">
  <advance width="1666"/>
  <unicode hex="2118"/>
  <outline>
    <contour>
      <point x="338" y="-358" type="qcurve"/>
      <point x="363" y="-358"/>
      <point x="403" y="-322"/>
      <point x="430" y="-266"/>
      <point x="445" y="-196"/>
      <point x="445" y="-161" type="qcurve"/>
      <point x="445" y="-125"/>
      <point x="434" y="-36"/>
      <point x="416" y="53"/>
      <point x="393" y="136"/>
      <point x="381" y="168" type="qcurve"/>
      <point x="381" y="254" type="line"/>
      <point x="349" y="200"/>
      <point x="293" y="80"/>
      <point x="252" y="-46"/>
      <point x="228" y="-174"/>
      <point x="228" y="-236" type="qcurve"/>
      <point x="228" y="-295"/>
      <point x="287" y="-358"/>
    </contour>
    <contour>
      <point x="719" y="1031" type="line"/>
      <point x="657" y="1019"/>
      <point x="533" y="954"/>
      <point x="433" y="851"/>
      <point x="370" y="709"/>
      <point x="370" y="620" type="qcurve"/>
      <point x="370" y="578"/>
      <point x="381" y="528" type="qcurve"/>
      <point x="381" y="406" type="line"/>
      <point x="452" y="517"/>
      <point x="617" y="730"/>
      <point x="806" y="896"/>
      <point x="1020" y="997"/>
      <point x="1142" y="997" type="qcurve"/>
      <point x="1218" y="997"/>
      <point x="1342" y="954"/>
      <point x="1429" y="864"/>
      <point x="1476" y="726"/>
      <point x="1476" y="630" type="qcurve"/>
      <point x="1476" y="487"/>
      <point x="1401" y="249"/>
      <point x="1265" y="78"/>
      <point x="1072" y="-17"/>
      <point x="954" y="-17" type="qcurve"/>
      <point x="908" y="-17"/>
      <point x="816" y="15"/>
      <point x="743" y="77"/>
      <point x="697" y="165"/>
      <point x="697" y="221" type="qcurve"/>
      <point x="697" y="296"/>
      <point x="738" y="410"/>
      <point x="802" y="495"/>
      <point x="880" y="553"/>
      <point x="955" y="589"/>
      <point x="1018" y="607"/>
      <point x="1034" y="610" type="qcurve"/>
      <point x="1064" y="470" type="line"/>
      <point x="1039" y="459"/>
      <point x="959" y="419"/>
      <point x="882" y="353"/>
      <point x="826" y="258"/>
      <point x="826" y="194" type="qcurve"/>
      <point x="826" y="169"/>
      <point x="845" y="131"/>
      <point x="878" y="105"/>
      <point x="920" y="91"/>
      <point x="944" y="91" type="qcurve"/>
      <point x="1010" y="91"/>
      <point x="1114" y="143"/>
      <point x="1192" y="230"/>
      <point x="1246" y="342"/>
      <point x="1279" y="463"/>
      <point x="1294" y="583"/>
      <point x="1294" y="633" type="qcurve"/>
      <point x="1294" y="676"/>
      <point x="1278" y="758"/>
      <point x="1238" y="821"/>
      <point x="1170" y="860"/>
      <point x="1118" y="860" type="qcurve"/>
      <point x="1044" y="860"/>
      <point x="907" y="813"/>
      <point x="782" y="735"/>
      <point x="668" y="631"/>
      <point x="567" y="519"/>
      <point x="481" y="404"/>
      <point x="445" y="353" type="qcurve"/>
      <point x="475" y="288"/>
      <point x="531" y="162"/>
      <point x="574" y="37"/>
      <point x="599" y="-89"/>
      <point x="599" y="-154" type="qcurve"/>
      <point x="599" y="-215"/>
      <point x="571" y="-343"/>
      <point x="505" y="-447"/>
      <point x="395" y="-514"/>
      <point x="313" y="-514" type="qcurve"/>
      <point x="254" y="-514"/>
      <point x="173" y="-473"/>
      <point x="122" y="-405"/>
      <point x="100" y="-315"/>
      <point x="100" y="-266" type="qcurve"/>
      <point x="100" y="-183"/>
      <point x="137" y="-27"/>
      <point x="197" y="116"/>
      <point x="273" y="244"/>
      <point x="312" y="299" type="qcurve"/>
      <point x="297" y="333"/>
      <point x="265" y="410"/>
      <point x="239" y="490"/>
      <point x="222" y="569"/>
      <point x="222" y="605" type="qcurve"/>
      <point x="222" y="683"/>
      <point x="265" y="820"/>
      <point x="338" y="934"/>
      <point x="433" y="1023"/>
      <point x="539" y="1085"/>
      <point x="649" y="1117"/>
      <point x="699" y="1117" type="qcurve"/>
    </contour>
  </outline>
</glyph>
<glyph name="trademark" format="1">
  <advance width="1700"/>
  <unicode hex="2122"/>
  <outline>
    <contour>
      <point x="398" y="900" type="line"/>
      <point x="398" y="1400" type="line"/>
      <point x="208" y="1400" type="line"/>
      <point x="208" y="1500" type="line"/>
      <point x="789" y="1500" type="line"/>
      <point x="789" y="1400" type="line"/>
      <point x="599" y="1400" type="line"/>
      <point x="599" y="900" type="line"/>
    </contour>
    <contour>
      <point x="1299" y="900" type="line"/>
      <point x="1299" y="1290" type="line"/>
      <point x="1249" y="1120" type="line"/>
      <point x="1169" y="950" type="line"/>
      <point x="1129" y="950" type="line"/>
      <point x="1049" y="1120" type="line"/>
      <point x="999" y="1290" type="line"/>
      <point x="999" y="900" type="line"/>
      <point x="819" y="900" type="line"/>
      <point x="819" y="1500" type="line"/>
      <point x="1039" y="1500" type="line"/>
      <point x="1109" y="1380" type="line"/>
      <point x="1149" y="1230" type="line"/>
      <point x="1189" y="1380" type="line"/>
      <point x="1259" y="1500" type="line"/>
      <point x="1479" y="1500" type="line"/>
      <point x="1479" y="900" type="line"/>
    </contour>
  </outline>
</glyph>
<glyph name="onethirds" format="1">
  <advance width="1500"/>
  <unicode hex="2153"/>
  <outline>
    <contour>
      <point x="474" y="0" type="line"/>
      <point x="289" y="0" type="line"/>
      <point x="1064" y="1500" type="line"/>
      <point x="1240" y="1500" type="line"/>
    </contour>
    <contour>
      <point x="284" y="1162" type="line"/>
      <point x="321" y="1343" type="line"/>
      <point x="207" y="1208" type="line"/>
      <point x="165" y="1171" type="line"/>
      <point x="88" y="1263" type="line"/>
      <point x="328" y="1484" type="line"/>
      <point x="449" y="1468" type="line"/>
      <point x="449" y="822" type="line"/>
      <point x="571" y="822" type="line"/>
      <point x="571" y="722" type="line"/>
      <point x="162" y="722" type="line"/>
      <point x="162" y="822" type="line"/>
      <point x="284" y="822" type="line"/>
    </contour>
    <contour>
      <point x="959" y="507" type="line"/>
      <point x="974" y="517"/>
      <point x="1015" y="547"/>
      <point x="1061" y="583"/>
      <point x="1110" y="623"/>
      <point x="1154" y="664"/>
      <point x="1191" y="706"/>
      <point x="1203" y="725" type="qcurve"/>
      <point x="1073" y="688" type="line"/>
      <point x="908" y="688" type="line"/>
      <point x="918" y="788" type="line"/>
      <point x="1339" y="788" type="line"/>
      <point x="1339" y="701" type="line"/>
      <point x="1324" y="662"/>
      <point x="1266" y="596"/>
      <point x="1230" y="564" type="qcurve"/>
      <point x="1152" y="522" type="line"/>
      <point x="1205" y="522"/>
      <point x="1291" y="495"/>
      <point x="1352" y="444"/>
      <point x="1386" y="370"/>
      <point x="1386" y="324" type="qcurve"/>
      <point x="1386" y="275"/>
      <point x="1345" y="194"/>
      <point x="1275" y="130"/>
      <point x="1180" y="83"/>
      <point x="1073" y="53"/>
      <point x="958" y="38"/>
      <point x="903" y="38" type="qcurve"/>
      <point x="903" y="138" type="line"/>
      <point x="962" y="140"/>
      <point x="1074" y="167"/>
      <point x="1162" y="213"/>
      <point x="1215" y="279"/>
      <point x="1215" y="319" type="qcurve"/>
      <point x="1215" y="348"/>
      <point x="1191" y="388"/>
      <point x="1149" y="412"/>
      <point x="1093" y="423"/>
      <point x="1062" y="423" type="qcurve"/>
      <point x="1055" y="423"/>
      <point x="1026" y="421"/>
      <point x="995" y="420"/>
      <point x="966" y="418"/>
      <point x="959" y="418" type="qcurve"/>
    </contour>
  </outline>
</glyph>
<glyph name="twofifths" format="1">
  <advance width="1500"/>
  <unicode hex="2156"/>
  <outline>
    <contour>
      <point x="474" y="0" type="line"/>
      <point x="289" y="0" type="line"/>
      <point x="1064" y="1500" type="line"/>
      <point x="1240" y="1500" type="line"/>
    </contour>
    <contour>
      <point x="74" y="722" type="line"/>
      <point x="74" y="817" type="line"/>
      <point x="97" y="854"/>
      <point x="159" y="935"/>
      <point x="224" y="1014"/>
      <point x="286" y="1084"/>
      <point x="309" y="1109" type="qcurve"/>
      <point x="336" y="1138"/>
      <point x="374" y="1178"/>
      <point x="397" y="1212"/>
      <point x="408" y="1247"/>
      <point x="408" y="1270" type="qcurve"/>
      <point x="408" y="1289"/>
      <point x="395" y="1325"/>
      <point x="372" y="1354"/>
      <point x="340" y="1372"/>
      <point x="319" y="1372" type="qcurve"/>
      <point x="278" y="1372"/>
      <point x="216" y="1317"/>
      <point x="192" y="1270" type="qcurve"/>
      <point x="76" y="1313" type="line"/>
      <point x="90" y="1352"/>
      <point x="136" y="1413"/>
      <point x="199" y="1457"/>
      <point x="278" y="1480"/>
      <point x="327" y="1480" type="qcurve"/>
      <point x="384" y="1480"/>
      <point x="473" y="1443"/>
      <point x="534" y="1382"/>
      <point x="566" y="1304"/>
      <point x="566" y="1265" type="qcurve"/>
      <point x="566" y="1230"/>
      <point x="544" y="1171"/>
      <point x="507" y="1116"/>
      <point x="460" y="1062"/>
      <point x="435" y="1032" type="qcurve"/>
      <point x="410" y="1002"/>
      <point x="357" y="940"/>
      <point x="308" y="884"/>
      <point x="269" y="837"/>
      <point x="258" y="822" type="qcurve"/>
      <point x="579" y="822" type="line"/>
      <point x="579" y="722" type="line"/>
    </contour>
    <contour>
      <point x="1073" y="561" type="line"/>
      <point x="1085" y="564"/>
      <point x="1114" y="567"/>
      <point x="1131" y="567" type="qcurve"/>
      <point x="1189" y="567"/>
      <point x="1281" y="533"/>
      <point x="1344" y="474"/>
      <point x="1378" y="396"/>
      <point x="1378" y="351" type="qcurve"/>
      <point x="1378" y="299"/>
      <point x="1337" y="213"/>
      <point x="1266" y="144"/>
      <point x="1172" y="91"/>
      <point x="1066" y="56"/>
      <point x="953" y="38"/>
      <point x="899" y="38" type="qcurve"/>
      <point x="899" y="151" type="line"/>
      <point x="934" y="152"/>
      <point x="1009" y="166"/>
      <point x="1079" y="190"/>
      <point x="1141" y="224"/>
      <point x="1187" y="265"/>
      <point x="1214" y="314"/>
      <point x="1214" y="341" type="qcurve"/>
      <point x="1214" y="361"/>
      <point x="1200" y="400"/>
      <point x="1175" y="430"/>
      <point x="1140" y="449"/>
      <point x="1118" y="449" type="qcurve"/>
      <point x="1099" y="449"/>
      <point x="1066" y="443"/>
      <point x="1039" y="433"/>
      <point x="1019" y="422"/>
      <point x="1011" y="417" type="qcurve"/>
      <point x="899" y="417" type="line"/>
      <point x="899" y="788" type="line"/>
      <point x="1332" y="788" type="line"/>
      <point x="1332" y="688" type="line"/>
      <point x="1073" y="688" type="line"/>
    </contour>
  </outline>
</glyph>
<glyph name="threefifths" format="1">
  <advance width="1500"/>
  <unicode hex="2157"/>
  <outline>
    <contour>
      <point x="474" y="0" type="line"/>
      <point x="289" y="0" type="line"/>
      <point x="1064" y="1500" type="line"/>
      <point x="1240" y="1500" type="line"/>
    </contour>
    <contour>
      <point x="1073" y="561" type="line"/>
      <point x="1085" y="564"/>
      <point x="1114" y="567"/>
      <point x="1131" y="567" type="qcurve"/>
      <point x="1189" y="567"/>
      <point x="1281" y="533"/>
      <point x="1344" y="474"/>
      <point x="1378" y="396"/>
      <point x="1378" y="351" type="qcurve"/>
      <point x="1378" y="299"/>
      <point x="1337" y="213"/>
      <point x="1266" y="144"/>
      <point x="1172" y="91"/>
      <point x="1066" y="56"/>
      <point x="953" y="38"/>
      <point x="899" y="38" type="qcurve"/>
      <point x="899" y="151" type="line"/>
      <point x="934" y="152"/>
      <point x="1009" y="166"/>
      <point x="1079" y="190"/>
      <point x="1141" y="224"/>
      <point x="1187" y="265"/>
      <point x="1214" y="314"/>
      <point x="1214" y="341" type="qcurve"/>
      <point x="1214" y="361"/>
      <point x="1200" y="400"/>
      <point x="1175" y="430"/>
      <point x="1140" y="449"/>
      <point x="1118" y="449" type="qcurve"/>
      <point x="1099" y="449"/>
      <point x="1066" y="443"/>
      <point x="1039" y="433"/>
      <point x="1019" y="422"/>
      <point x="1011" y="417" type="qcurve"/>
      <point x="899" y="417" type="line"/>
      <point x="899" y="788" type="line"/>
      <point x="1332" y="788" type="line"/>
      <point x="1332" y="688" type="line"/>
      <point x="1073" y="688" type="line"/>
    </contour>
    <contour>
      <point x="150" y="1191" type="line"/>
      <point x="165" y="1201"/>
      <point x="206" y="1231"/>
      <point x="252" y="1267"/>
      <point x="301" y="1307"/>
      <point x="345" y="1348"/>
      <point x="382" y="1390"/>
      <point x="394" y="1409" type="qcurve"/>
      <point x="264" y="1372" type="line"/>
      <point x="99" y="1372" type="line"/>
      <point x="109" y="1472" type="line"/>
      <point x="530" y="1472" type="line"/>
      <point x="530" y="1385" type="line"/>
      <point x="515" y="1346"/>
      <point x="457" y="1280"/>
      <point x="421" y="1248" type="qcurve"/>
      <point x="343" y="1206" type="line"/>
      <point x="396" y="1206"/>
      <point x="482" y="1179"/>
      <point x="543" y="1128"/>
      <point x="577" y="1054"/>
      <point x="577" y="1008" type="qcurve"/>
      <point x="577" y="959"/>
      <point x="536" y="878"/>
      <point x="466" y="814"/>
      <point x="371" y="767"/>
      <point x="264" y="737"/>
      <point x="149" y="722"/>
      <point x="94" y="722" type="qcurve"/>
      <point x="94" y="822" type="line"/>
      <point x="153" y="824"/>
      <point x="265" y="851"/>
      <point x="353" y="897"/>
      <point x="406" y="963"/>
      <point x="406" y="1003" type="qcurve"/>
      <point x="406" y="1032"/>
      <point x="382" y="1072"/>
      <point x="340" y="1096"/>
      <point x="284" y="1107"/>
      <point x="253" y="1107" type="qcurve"/>
      <point x="246" y="1107"/>
      <point x="217" y="1105"/>
      <point x="186" y="1104"/>
      <point x="157" y="1102"/>
      <point x="150" y="1102" type="qcurve"/>
    </contour>
  </outline>
</glyph>
<glyph name="onesixth" format="1">
  <advance width="1500"/>
  <unicode hex="2159"/>
  <outline>
    <contour>
      <point x="474" y="0" type="line"/>
      <point x="289" y="0" type="line"/>
      <point x="1064" y="1500" type="line"/>
      <point x="1240" y="1500" type="line"/>
    </contour>
    <contour>
      <point x="284" y="1162" type="line"/>
      <point x="321" y="1343" type="line"/>
      <point x="207" y="1208" type="line"/>
      <point x="165" y="1171" type="line"/>
      <point x="88" y="1263" type="line"/>
      <point x="328" y="1484" type="line"/>
      <point x="449" y="1468" type="line"/>
      <point x="449" y="822" type="line"/>
      <point x="571" y="822" type="line"/>
      <point x="571" y="722" type="line"/>
      <point x="162" y="722" type="line"/>
      <point x="162" y="822" type="line"/>
      <point x="284" y="822" type="line"/>
    </contour>
    <contour>
      <point x="1326" y="678" type="line"/>
      <point x="1313" y="685"/>
      <point x="1282" y="688"/>
      <point x="1270" y="688" type="qcurve"/>
      <point x="1236" y="688"/>
      <point x="1162" y="654"/>
      <point x="1097" y="590"/>
      <point x="1049" y="497"/>
      <point x="1040" y="438" type="qcurve"/>
      <point x="1122" y="510" type="line"/>
      <point x="1136" y="513"/>
      <point x="1161" y="516"/>
      <point x="1173" y="516" type="qcurve"/>
      <point x="1221" y="516"/>
      <point x="1312" y="491"/>
      <point x="1382" y="439"/>
      <point x="1424" y="357"/>
      <point x="1424" y="300" type="qcurve"/>
      <point x="1424" y="245"/>
      <point x="1384" y="146"/>
      <point x="1311" y="72"/>
      <point x="1209" y="29"/>
      <point x="1148" y="29" type="qcurve"/>
      <point x="1094" y="29"/>
      <point x="1011" y="61"/>
      <point x="950" y="114"/>
      <point x="908" y="181"/>
      <point x="882" y="253"/>
      <point x="871" y="323"/>
      <point x="871" y="351" type="qcurve"/>
      <point x="871" y="410"/>
      <point x="897" y="522"/>
      <point x="945" y="621"/>
      <point x="1016" y="704"/>
      <point x="1105" y="763"/>
      <point x="1213" y="796"/>
      <point x="1275" y="796" type="qcurve"/>
      <point x="1284" y="796"/>
      <point x="1317" y="794"/>
      <point x="1343" y="787" type="qcurve"/>
    </contour>
    <contour>
      <point x="1166" y="416" type="qcurve"/>
      <point x="1148" y="416"/>
      <point x="1111" y="401"/>
      <point x="1078" y="378"/>
      <point x="1049" y="350"/>
      <point x="1040" y="338" type="qcurve"/>
      <point x="1040" y="325"/>
      <point x="1040" y="304"/>
      <point x="1042" y="284"/>
      <point x="1045" y="265"/>
      <point x="1048" y="255" type="qcurve"/>
      <point x="1054" y="231"/>
      <point x="1074" y="189"/>
      <point x="1099" y="157"/>
      <point x="1131" y="138"/>
      <point x="1149" y="138" type="qcurve"/>
      <point x="1176" y="138"/>
      <point x="1216" y="166"/>
      <point x="1243" y="212"/>
      <point x="1255" y="268"/>
      <point x="1255" y="296" type="qcurve"/>
      <point x="1255" y="321"/>
      <point x="1242" y="365"/>
      <point x="1218" y="397"/>
      <point x="1185" y="416"/>
    </contour>
  </outline>
</glyph>
<glyph name="oneeighth" format="1">
  <advance width="1500"/>
  <unicode hex="215B"/>
  <outline>
    <contour>
      <point x="474" y="0" type="line"/>
      <point x="289" y="0" type="line"/>
      <point x="1064" y="1500" type="line"/>
      <point x="1240" y="1500" type="line"/>
    </contour>
    <contour>
      <point x="284" y="1162" type="line"/>
      <point x="321" y="1343" type="line"/>
      <point x="207" y="1208" type="line"/>
      <point x="165" y="1171" type="line"/>
      <point x="88" y="1263" type="line"/>
      <point x="328" y="1484" type="line"/>
      <point x="449" y="1468" type="line"/>
      <point x="449" y="822" type="line"/>
      <point x="571" y="822" type="line"/>
      <point x="571" y="722" type="line"/>
      <point x="162" y="722" type="line"/>
      <point x="162" y="822" type="line"/>
      <point x="284" y="822" type="line"/>
    </contour>
    <contour>
      <point x="1137" y="796" type="qcurve"/>
      <point x="1188" y="796"/>
      <point x="1276" y="770"/>
      <point x="1340" y="720"/>
      <point x="1376" y="649"/>
      <point x="1376" y="605" type="qcurve"/>
      <point x="1376" y="579"/>
      <point x="1356" y="536"/>
      <point x="1324" y="500"/>
      <point x="1284" y="471"/>
      <point x="1264" y="460" type="qcurve"/>
      <point x="1297" y="444"/>
      <point x="1355" y="401"/>
      <point x="1398" y="349"/>
      <point x="1422" y="287"/>
      <point x="1422" y="251" type="qcurve"/>
      <point x="1422" y="194"/>
      <point x="1374" y="110"/>
      <point x="1295" y="55"/>
      <point x="1193" y="29"/>
      <point x="1140" y="29" type="qcurve"/>
      <point x="1088" y="29"/>
      <point x="990" y="59"/>
      <point x="915" y="117"/>
      <point x="870" y="202"/>
      <point x="870" y="258" type="qcurve"/>
      <point x="870" y="294"/>
      <point x="891" y="355"/>
      <point x="930" y="406"/>
      <point x="982" y="447"/>
      <point x="1014" y="462" type="qcurve"/>
      <point x="991" y="475"/>
      <point x="952" y="506"/>
      <point x="923" y="540"/>
      <point x="906" y="578"/>
      <point x="906" y="600" type="qcurve"/>
      <point x="906" y="651"/>
      <point x="950" y="725"/>
      <point x="1018" y="773"/>
      <point x="1099" y="796"/>
    </contour>
    <contour>
      <point x="1260" y="249" type="qcurve"/>
      <point x="1260" y="276"/>
      <point x="1237" y="320"/>
      <point x="1200" y="355"/>
      <point x="1155" y="383"/>
      <point x="1132" y="393" type="qcurve"/>
      <point x="1111" y="383"/>
      <point x="1074" y="355"/>
      <point x="1047" y="319"/>
      <point x="1032" y="275"/>
      <point x="1032" y="248" type="qcurve"/>
      <point x="1032" y="224"/>
      <point x="1051" y="183"/>
      <point x="1082" y="154"/>
      <point x="1121" y="138"/>
      <point x="1140" y="138" type="qcurve"/>
      <point x="1163" y="138"/>
      <point x="1206" y="153"/>
      <point x="1239" y="181"/>
      <point x="1260" y="222"/>
    </contour>
    <contour>
      <point x="1066" y="616" type="qcurve"/>
      <point x="1066" y="599"/>
      <point x="1080" y="570"/>
      <point x="1104" y="546"/>
      <point x="1134" y="527"/>
      <point x="1150" y="520" type="qcurve"/>
      <point x="1164" y="527"/>
      <point x="1188" y="547"/>
      <point x="1205" y="570"/>
      <point x="1216" y="598"/>
      <point x="1216" y="614" type="qcurve"/>
      <point x="1216" y="633"/>
      <point x="1201" y="661"/>
      <point x="1180" y="679"/>
      <point x="1156" y="688"/>
      <point x="1146" y="688" type="qcurve"/>
      <point x="1132" y="688"/>
      <point x="1103" y="677"/>
      <point x="1081" y="657"/>
      <point x="1066" y="631"/>
    </contour>
  </outline>
</glyph>
<glyph name="fiveeighths" format="1">
  <advance width="1500"/>
  <unicode hex="215D"/>
  <outline>
    <contour>
      <point x="474" y="0" type="line"/>
      <point x="289" y="0" type="line"/>
      <point x="1064" y="1500" type="line"/>
      <point x="1240" y="1500" type="line"/>
    </contour>
    <contour>
      <point x="1137" y="796" type="qcurve"/>
      <point x="1188" y="796"/>
      <point x="1276" y="770"/>
      <point x="1340" y="720"/>
      <point x="1376" y="649"/>
      <point x="1376" y="605" type="qcurve"/>
      <point x="1376" y="579"/>
      <point x="1356" y="536"/>
      <point x="1324" y="500"/>
      <point x="1284" y="471"/>
      <point x="1264" y="460" type="qcurve"/>
      <point x="1297" y="444"/>
      <point x="1355" y="401"/>
      <point x="1398" y="349"/>
      <point x="1422" y="287"/>
      <point x="1422" y="251" type="qcurve"/>
      <point x="1422" y="194"/>
      <point x="1374" y="110"/>
      <point x="1295" y="55"/>
      <point x="1193" y="29"/>
      <point x="1140" y="29" type="qcurve"/>
      <point x="1088" y="29"/>
      <point x="990" y="59"/>
      <point x="915" y="117"/>
      <point x="870" y="202"/>
      <point x="870" y="258" type="qcurve"/>
      <point x="870" y="294"/>
      <point x="891" y="355"/>
      <point x="930" y="406"/>
      <point x="982" y="447"/>
      <point x="1014" y="462" type="qcurve"/>
      <point x="991" y="475"/>
      <point x="952" y="506"/>
      <point x="923" y="540"/>
      <point x="906" y="578"/>
      <point x="906" y="600" type="qcurve"/>
      <point x="906" y="651"/>
      <point x="950" y="725"/>
      <point x="1018" y="773"/>
      <point x="1099" y="796"/>
    </contour>
    <contour>
      <point x="1260" y="249" type="qcurve"/>
      <point x="1260" y="276"/>
      <point x="1237" y="320"/>
      <point x="1200" y="355"/>
      <point x="1155" y="383"/>
      <point x="1132" y="393" type="qcurve"/>
      <point x="1111" y="383"/>
      <point x="1074" y="355"/>
      <point x="1047" y="319"/>
      <point x="1032" y="275"/>
      <point x="1032" y="248" type="qcurve"/>
      <point x="1032" y="224"/>
      <point x="1051" y="183"/>
      <point x="1082" y="154"/>
      <point x="1121" y="138"/>
      <point x="1140" y="138" type="qcurve"/>
      <point x="1163" y="138"/>
      <point x="1206" y="153"/>
      <point x="1239" y="181"/>
      <point x="1260" y="222"/>
    </contour>
    <contour>
      <point x="1066" y="616" type="qcurve"/>
      <point x="1066" y="599"/>
      <point x="1080" y="570"/>
      <point x="1104" y="546"/>
      <point x="1134" y="527"/>
      <point x="1150" y="520" type="qcurve"/>
      <point x="1164" y="527"/>
      <point x="1188" y="547"/>
      <point x="1205" y="570"/>
      <point x="1216" y="598"/>
      <point x="1216" y="614" type="qcurve"/>
      <point x="1216" y="633"/>
      <point x="1201" y="661"/>
      <point x="1180" y="679"/>
      <point x="1156" y="688"/>
      <point x="1146" y="688" type="qcurve"/>
      <point x="1132" y="688"/>
      <point x="1103" y="677"/>
      <point x="1081" y="657"/>
      <point x="1066" y="631"/>
    </contour>
    <contour>
      <point x="264" y="1245" type="line"/>
      <point x="276" y="1248"/>
      <point x="305" y="1251"/>
      <point x="322" y="1251" type="qcurve"/>
      <point x="380" y="1251"/>
      <point x="472" y="1217"/>
      <point x="535" y="1158"/>
      <point x="569" y="1080"/>
      <point x="569" y="1035" type="qcurve"/>
      <point x="569" y="983"/>
      <point x="528" y="897"/>
      <point x="457" y="828"/>
      <point x="363" y="775"/>
      <point x="257" y="740"/>
      <point x="144" y="722"/>
      <point x="90" y="722" type="qcurve"/>
      <point x="90" y="835" type="line"/>
      <point x="125" y="836"/>
      <point x="200" y="850"/>
      <point x="270" y="874"/>
      <point x="332" y="908"/>
      <point x="378" y="949"/>
      <point x="405" y="998"/>
      <point x="405" y="1025" type="qcurve"/>
      <point x="405" y="1045"/>
      <point x="391" y="1084"/>
      <point x="366" y="1114"/>
      <point x="331" y="1133"/>
      <point x="309" y="1133" type="qcurve"/>
      <point x="290" y="1133"/>
      <point x="257" y="1127"/>
      <point x="230" y="1117"/>
      <point x="210" y="1106"/>
      <point x="202" y="1101" type="qcurve"/>
      <point x="90" y="1101" type="line"/>
      <point x="90" y="1472" type="line"/>
      <point x="523" y="1472" type="line"/>
      <point x="523" y="1372" type="line"/>
      <point x="264" y="1372" type="line"/>
    </contour>
  </outline>
</glyph>
<glyph name="seveneighths" format="1">
  <advance width="1500"/>
  <unicode hex="215E"/>
  <outline>
    <contour>
      <point x="473" y="0" type="line"/>
      <point x="288" y="0" type="line"/>
      <point x="1063" y="1500" type="line"/>
      <point x="1239" y="1500" type="line"/>
    </contour>
    <contour>
      <point x="1136" y="796" type="qcurve"/>
      <point x="1187" y="796"/>
      <point x="1275" y="770"/>
      <point x="1339" y="720"/>
      <point x="1375" y="649"/>
      <point x="1375" y="605" type="qcurve"/>
      <point x="1375" y="579"/>
      <point x="1355" y="536"/>
      <point x="1323" y="500"/>
      <point x="1283" y="471"/>
      <point x="1263" y="460" type="qcurve"/>
      <point x="1296" y="444"/>
      <point x="1354" y="401"/>
      <point x="1397" y="349"/>
      <point x="1421" y="287"/>
      <point x="1421" y="251" type="qcurve"/>
      <point x="1421" y="194"/>
      <point x="1373" y="110"/>
      <point x="1294" y="55"/>
      <point x="1192" y="29"/>
      <point x="1139" y="29" type="qcurve"/>
      <point x="1087" y="29"/>
      <point x="989" y="59"/>
      <point x="914" y="117"/>
      <point x="869" y="202"/>
      <point x="869" y="258" type="qcurve"/>
      <point x="869" y="294"/>
      <point x="890" y="355"/>
      <point x="929" y="406"/>
      <point x="981" y="447"/>
      <point x="1013" y="462" type="qcurve"/>
      <point x="990" y="475"/>
      <point x="951" y="506"/>
      <point x="922" y="540"/>
      <point x="905" y="578"/>
      <point x="905" y="600" type="qcurve"/>
      <point x="905" y="651"/>
      <point x="949" y="725"/>
      <point x="1017" y="773"/>
      <point x="1098" y="796"/>
    </contour>
    <contour>
      <point x="1259" y="249" type="qcurve"/>
      <point x="1259" y="276"/>
      <point x="1236" y="320"/>
      <point x="1199" y="355"/>
      <point x="1154" y="383"/>
      <point x="1131" y="393" type="qcurve"/>
      <point x="1110" y="383"/>
      <point x="1073" y="355"/>
      <point x="1046" y="319"/>
      <point x="1031" y="275"/>
      <point x="1031" y="248" type="qcurve"/>
      <point x="1031" y="224"/>
      <point x="1050" y="183"/>
      <point x="1081" y="154"/>
      <point x="1120" y="138"/>
      <point x="1139" y="138" type="qcurve"/>
      <point x="1162" y="138"/>
      <point x="1205" y="153"/>
      <point x="1238" y="181"/>
      <point x="1259" y="222"/>
    </contour>
    <contour>
      <point x="1065" y="616" type="qcurve"/>
      <point x="1065" y="599"/>
      <point x="1079" y="570"/>
      <point x="1103" y="546"/>
      <point x="1133" y="527"/>
      <point x="1149" y="520" type="qcurve"/>
      <point x="1163" y="527"/>
      <point x="1187" y="547"/>
      <point x="1204" y="570"/>
      <point x="1215" y="598"/>
      <point x="1215" y="614" type="qcurve"/>
      <point x="1215" y="633"/>
      <point x="1200" y="661"/>
      <point x="1179" y="679"/>
      <point x="1155" y="688"/>
      <point x="1145" y="688" type="qcurve"/>
      <point x="1131" y="688"/>
      <point x="1102" y="677"/>
      <point x="1080" y="657"/>
      <point x="1065" y="631"/>
    </contour>
    <contour>
      <point x="88" y="1472" type="line"/>
      <point x="591" y="1472" type="line"/>
      <point x="591" y="1391" type="line"/>
      <point x="591" y="1378"/>
      <point x="577" y="1340"/>
      <point x="552" y="1293"/>
      <point x="520" y="1239"/>
      <point x="502" y="1210" type="qcurve"/>
      <point x="481" y="1175"/>
      <point x="435" y="1096"/>
      <point x="395" y="1014"/>
      <point x="366" y="932"/>
      <point x="362" y="895" type="qcurve"/>
      <point x="360" y="877"/>
      <point x="357" y="833"/>
      <point x="356" y="786"/>
      <point x="356" y="741"/>
      <point x="356" y="722" type="qcurve"/>
      <point x="188" y="722" type="line"/>
      <point x="188" y="738"/>
      <point x="188" y="792"/>
      <point x="191" y="852"/>
      <point x="195" y="910"/>
      <point x="200" y="931" type="qcurve"/>
      <point x="209" y="975"/>
      <point x="244" y="1066"/>
      <point x="286" y="1152"/>
      <point x="333" y="1231"/>
      <point x="354" y="1265" type="qcurve"/>
      <point x="371" y="1293"/>
      <point x="400" y="1341"/>
      <point x="406" y="1358" type="qcurve"/>
      <point x="88" y="1358" type="line"/>
    </contour>
  </outline>
</glyph>
<glyph name="fractionnumeratorone" format="1">
  <advance width="1500"/>
  <unicode hex="215F"/>
  <outline>
    <contour>
      <point x="474" y="0" type="line"/>
      <point x="289" y="0" type="line"/>
      <point x="1064" y="1500" type="line"/>
      <point x="1240" y="1500" type="line"/>
    </contour>
    <contour>
      <point x="282" y="1162" type="line"/>
      <point x="319" y="1343" type="line"/>
      <point x="205" y="1208" type="line"/>
      <point x="163" y="1171" type="line"/>
      <point x="86" y="1263" type="line"/>
      <point x="326" y="1484" type="line"/>
      <point x="447" y="1468" type="line"/>
      <point x="447" y="822" type="line"/>
      <point x="569" y="822" type="line"/>
      <point x="569" y="722" type="line"/>
      <point x="160" y="722" type="line"/>
      <point x="160" y="822" type="line"/>
      <point x="282" y="822" type="line"/>
    </contour>
  </outline>
</glyph>
